# Blender 5.1.1
# www.blender.org
mtllib after-midnight.mtl
o Cylinder
v 0.000000 5.598146 5.598146
v 0.000000 -5.598146 5.598146
v -1.092144 5.598146 5.490580
v -1.092144 -5.598146 5.490580
v -2.142318 5.598146 5.172013
v -2.142318 -5.598146 5.172013
v -3.110164 5.598146 4.654688
v -3.110164 -5.598146 4.654688
v -3.958487 5.598146 3.958487
v -3.958487 -5.598146 3.958487
v -4.654688 5.598146 3.110164
v -4.654688 -5.598146 3.110164
v -5.172013 5.598146 2.142318
v -5.172013 -5.598146 2.142318
v -5.490580 5.598146 1.092144
v -5.490580 -5.598146 1.092144
v -5.598146 5.598146 0.000000
v -5.598146 -5.598146 0.000000
v -5.490580 5.598146 -1.092144
v -5.490580 -5.598146 -1.092144
v -5.172013 5.598146 -2.142318
v -5.172013 -5.598146 -2.142318
v -4.654688 5.598146 -3.110164
v -4.654688 -5.598146 -3.110164
v -3.958487 5.598146 -3.958487
v -3.958487 -5.598146 -3.958487
v -3.110164 5.598146 -4.654688
v -3.110164 -5.598146 -4.654688
v -2.142318 5.598146 -5.172013
v -2.142318 -5.598146 -5.172013
v -1.092144 5.598146 -5.490580
v -1.092144 -5.598146 -5.490580
v 0.000000 5.598146 -5.598146
v 0.000000 -5.598146 -5.598146
v 1.092144 5.598146 -5.490580
v 1.092144 -5.598146 -5.490580
v 2.142318 5.598146 -5.172013
v 2.142318 -5.598146 -5.172013
v 3.110164 5.598146 -4.654688
v 3.110164 -5.598146 -4.654688
v 3.958487 5.598146 -3.958487
v 3.958487 -5.598146 -3.958487
v 4.654688 5.598146 -3.110164
v 4.654688 -5.598146 -3.110164
v 5.172013 5.598146 -2.142318
v 5.172013 -5.598146 -2.142318
v 5.490580 5.598146 -1.092144
v 5.490580 -5.598146 -1.092144
v 5.598146 5.598146 0.000000
v 5.598146 -5.598146 0.000000
v 5.490580 5.598146 1.092144
v 5.490580 -5.598146 1.092144
v 5.172013 5.598146 2.142318
v 5.172013 -5.598146 2.142318
v 4.654688 5.598146 3.110164
v 4.654688 -5.598146 3.110164
v 3.958487 5.598146 3.958487
v 3.958487 -5.598146 3.958487
v 3.110164 5.598146 4.654688
v 3.110164 -5.598146 4.654688
v 2.142318 5.598146 5.172013
v 2.142318 -5.598146 5.172013
v 1.092144 5.598146 5.490580
v 1.092144 -5.598146 5.490580
v -0.001788 5.597826 5.598146
v -0.001788 -5.598467 5.598146
v -1.093933 5.597826 5.490580
v -1.093933 -5.598467 5.490580
v -2.144106 5.597826 5.172013
v -2.144106 -5.598467 5.172013
v -3.111952 5.597826 4.654688
v -3.111952 -5.598467 4.654688
v -3.960275 5.597826 3.958487
v -3.960275 -5.598467 3.958487
v -4.656476 5.597826 3.110164
v -4.656476 -5.598467 3.110164
v -5.173801 5.597826 2.142318
v -5.173801 -5.598467 2.142318
v -5.492368 5.597826 1.092144
v -5.492368 -5.598467 1.092144
v -5.599935 5.597826 0.000000
v -5.599935 -5.598467 0.000000
v -5.492368 5.597826 -1.092144
v -5.492368 -5.598467 -1.092144
v -5.173801 5.597826 -2.142318
v -5.173801 -5.598467 -2.142318
v -4.656476 5.597826 -3.110164
v -4.656476 -5.598467 -3.110164
v -3.960275 5.597826 -3.958487
v -3.960275 -5.598467 -3.958487
v -3.111952 5.597826 -4.654688
v -3.111952 -5.598467 -4.654688
v -2.144106 5.597826 -5.172013
v -2.144106 -5.598467 -5.172013
v -1.093933 5.597826 -5.490580
v -1.093933 -5.598467 -5.490580
v -0.001788 5.597826 -5.598146
v -0.001788 -5.598467 -5.598146
v 1.090356 5.597826 -5.490580
v 1.090356 -5.598467 -5.490580
v 2.140530 5.597826 -5.172013
v 2.140530 -5.598467 -5.172013
v 3.108375 5.597826 -4.654688
v 3.108375 -5.598467 -4.654688
v 3.956699 5.597826 -3.958487
v 3.956699 -5.598467 -3.958487
v 4.652900 5.597826 -3.110164
v 4.652900 -5.598467 -3.110164
v 5.170225 5.597826 -2.142318
v 5.170225 -5.598467 -2.142318
v 5.488791 5.597826 -1.092144
v 5.488791 -5.598467 -1.092144
v 5.596358 5.597826 0.000000
v 5.596358 -5.598467 0.000000
v 5.488791 5.597826 1.092144
v 5.488791 -5.598467 1.092144
v 5.170225 5.597826 2.142318
v 5.170225 -5.598467 2.142318
v 4.652900 5.597826 3.110164
v 4.652900 -5.598467 3.110164
v 3.956699 5.597826 3.958487
v 3.956699 -5.598467 3.958487
v 3.108375 5.597826 4.654688
v 3.108375 -5.598467 4.654688
v 2.140530 5.597826 5.172013
v 2.140530 -5.598467 5.172013
v 1.090356 5.597826 5.490580
v 1.090356 -5.598467 5.490580
v -0.001788 10.416218 1.777304
v -0.348523 10.416218 1.743154
v -0.681933 10.416218 1.642015
v -0.989206 10.416218 1.477775
v -1.258532 10.416218 1.256744
v -1.479563 10.416218 0.987418
v -1.643803 10.416218 0.680145
v -1.744942 10.416218 0.346735
v -1.779092 10.416218 0.000000
v -1.744942 10.416218 -0.346735
v -1.643803 10.416218 -0.680145
v -1.479563 10.416218 -0.987417
v -1.258532 10.416218 -1.256743
v -0.989206 10.416218 -1.477774
v -0.681933 10.416218 -1.642015
v -0.348523 10.416218 -1.743153
v -0.001788 10.416218 -1.777304
v 0.344947 10.416218 -1.743153
v 0.678357 10.416218 -1.642015
v 0.985629 10.416218 -1.477774
v 1.254955 10.416218 -1.256743
v 1.475986 10.416218 -0.987417
v 1.640226 10.416218 -0.680145
v 1.741365 10.416218 -0.346735
v 1.775516 10.416218 0.000000
v 1.741365 10.416218 0.346735
v 1.640226 10.416218 0.680145
v 1.475986 10.416218 0.987418
v 1.254955 10.416218 1.256744
v 0.985629 10.416218 1.477775
v 0.678357 10.416218 1.642015
v 0.344947 10.416218 1.743154
v -0.001786 16.177183 5.684729
v -1.110822 16.177183 5.575498
v -2.177238 16.177183 5.252005
v -3.160053 16.177183 4.726679
v -4.021496 16.177183 4.019710
v -4.728466 16.177183 3.158267
v -5.253792 16.177183 2.175452
v -5.577285 16.177183 1.109035
v -5.686515 16.177183 0.000000
v -5.577285 16.177183 -1.109036
v -5.253792 16.177183 -2.175452
v -4.728466 16.177183 -3.158266
v -4.021496 16.177183 -4.019710
v -3.160053 16.177183 -4.726679
v -2.177238 16.177183 -5.252004
v -1.110822 16.177183 -5.575499
v -0.001786 16.177183 -5.684729
v 1.107249 16.177183 -5.575499
v 2.173666 16.177183 -5.252004
v 3.156480 16.177183 -4.726679
v 4.017923 16.177183 -4.019710
v 4.724892 16.177183 -3.158266
v 5.250217 16.177183 -2.175452
v 5.573711 16.177183 -1.109036
v 5.682942 16.177183 0.000000
v 5.573711 16.177183 1.109035
v 5.250217 16.177183 2.175452
v 4.724892 16.177183 3.158267
v 4.017923 16.177183 4.019710
v 3.156480 16.177183 4.726679
v 2.173666 16.177183 5.252005
v 1.107249 16.177183 5.575498
vn -0.0000 -0.6857 -0.7279
vn -0.0000 0.6857 -0.7279
vn 0.1420 -0.6857 -0.7139
vn 0.1420 0.6857 -0.7139
vn 0.2785 -0.6857 -0.6725
vn 0.2785 0.6857 -0.6725
vn 0.4044 -0.6857 -0.6052
vn 0.4044 0.6857 -0.6052
vn 0.5147 -0.6857 -0.5147
vn 0.5147 0.6857 -0.5147
vn 0.6052 -0.6857 -0.4044
vn 0.6052 0.6857 -0.4044
vn 0.6725 -0.6857 -0.2785
vn 0.6725 0.6857 -0.2785
vn 0.7139 -0.6857 -0.1420
vn 0.7139 0.6857 -0.1420
vn 0.7279 -0.6857 -0.0000
vn 0.7279 0.6857 -0.0000
vn 0.7139 -0.6857 0.1420
vn 0.7139 0.6857 0.1420
vn 0.6725 -0.6857 0.2785
vn 0.6725 0.6857 0.2785
vn 0.6052 -0.6857 0.4044
vn 0.6052 0.6857 0.4044
vn 0.5147 -0.6857 0.5147
vn 0.5147 0.6857 0.5147
vn 0.4044 -0.6857 0.6052
vn 0.4044 0.6857 0.6052
vn 0.2785 -0.6857 0.6725
vn 0.2785 0.6857 0.6725
vn 0.1420 -0.6857 0.7139
vn 0.1420 0.6857 0.7139
vn -0.0000 -0.6857 0.7279
vn -0.0000 0.6857 0.7279
vn -0.1420 -0.6857 0.7139
vn -0.1420 0.6857 0.7139
vn -0.2785 -0.6857 0.6725
vn -0.2785 0.6857 0.6725
vn -0.4044 -0.6857 0.6052
vn -0.4044 0.6857 0.6052
vn -0.5147 -0.6857 0.5147
vn -0.5147 0.6857 0.5147
vn -0.6052 -0.6857 0.4044
vn -0.6052 0.6857 0.4044
vn -0.6725 -0.6857 0.2785
vn -0.6725 0.6857 0.2785
vn -0.7139 -0.6857 0.1420
vn -0.7139 0.6857 0.1420
vn -0.7279 -0.6857 -0.0000
vn -0.7279 0.6857 -0.0000
vn -0.7139 -0.6857 -0.1420
vn -0.7139 0.6857 -0.1420
vn -0.6725 -0.6857 -0.2785
vn -0.6725 0.6857 -0.2785
vn -0.6052 -0.6857 -0.4044
vn -0.6052 0.6857 -0.4044
vn -0.5147 -0.6857 -0.5147
vn -0.5147 0.6857 -0.5147
vn -0.4044 -0.6857 -0.6052
vn -0.4044 0.6857 -0.6052
vn -0.2785 -0.6857 -0.6725
vn -0.2785 0.6857 -0.6725
vn -0.1420 -0.6857 -0.7139
vn -0.1420 0.6857 -0.7139
vn -0.0000 0.3228 0.9465
vn -0.1846 0.3228 0.9283
vn -0.3622 0.3228 0.8744
vn -0.5258 0.3228 0.7870
vn -0.6693 0.3228 0.6693
vn -0.7870 0.3228 0.5258
vn -0.8744 0.3228 0.3622
vn -0.9283 0.3228 0.1846
vn -0.9465 0.3228 -0.0000
vn -0.9283 0.3228 -0.1846
vn -0.8744 0.3228 -0.3622
vn -0.7870 0.3228 -0.5258
vn -0.6693 0.3228 -0.6693
vn -0.5258 0.3228 -0.7870
vn -0.3622 0.3228 -0.8744
vn -0.1846 0.3228 -0.9283
vn -0.0000 0.3228 -0.9465
vn 0.1846 0.3228 -0.9283
vn 0.3622 0.3228 -0.8744
vn 0.5258 0.3228 -0.7870
vn 0.6693 0.3228 -0.6693
vn 0.7870 0.3228 -0.5258
vn 0.8744 0.3228 -0.3622
vn 0.9283 0.3228 -0.1846
vn 0.9465 0.3228 -0.0000
vn 0.9283 0.3228 0.1846
vn 0.8744 0.3228 0.3622
vn 0.7870 0.3228 0.5258
vn 0.6693 0.3228 0.6693
vn 0.5258 0.3228 0.7870
vn 0.3622 0.3228 0.8744
vn 0.1846 0.3228 0.9283
vn -0.0000 0.0387 0.9993
vn -0.1949 0.0387 0.9801
vn -0.3824 0.0387 0.9232
vn -0.5552 0.0387 0.8308
vn -0.7066 0.0387 0.7066
vn -0.8308 0.0387 0.5552
vn -0.9232 0.0387 0.3824
vn -0.9801 0.0387 0.1949
vn -0.9993 0.0387 -0.0000
vn -0.9801 0.0387 -0.1949
vn -0.9232 0.0387 -0.3824
vn -0.8308 0.0387 -0.5552
vn -0.7066 0.0387 -0.7066
vn -0.5552 0.0387 -0.8308
vn -0.3824 0.0387 -0.9232
vn -0.1949 0.0387 -0.9801
vn -0.0000 0.0387 -0.9993
vn 0.1949 0.0387 -0.9801
vn 0.3824 0.0387 -0.9232
vn 0.5552 0.0387 -0.8308
vn 0.7066 0.0387 -0.7066
vn 0.8308 0.0387 -0.5552
vn 0.9232 0.0387 -0.3824
vn 0.9801 0.0387 -0.1949
vn 0.9993 0.0387 -0.0000
vn 0.9801 0.0387 0.1949
vn 0.9232 0.0387 0.3824
vn 0.8308 0.0387 0.5552
vn 0.7066 0.0387 0.7066
vn 0.5552 0.0387 0.8308
vn 0.3824 0.0387 0.9232
vn 0.1949 0.0387 0.9801
vn -0.0000 0.4469 0.8946
vn -0.1745 0.4469 0.8774
vn -0.3423 0.4469 0.8265
vn -0.4970 0.4469 0.7438
vn -0.6326 0.4469 0.6326
vn -0.7438 0.4469 0.4970
vn -0.8265 0.4469 0.3423
vn -0.8774 0.4469 0.1745
vn -0.8946 0.4469 -0.0000
vn -0.8774 0.4469 -0.1745
vn -0.8265 0.4469 -0.3423
vn -0.7438 0.4469 -0.4970
vn -0.6326 0.4469 -0.6326
vn -0.4970 0.4469 -0.7438
vn -0.3423 0.4469 -0.8265
vn -0.1745 0.4469 -0.8774
vn -0.0000 0.4469 -0.8946
vn 0.1745 0.4469 -0.8774
vn 0.3423 0.4469 -0.8265
vn 0.4970 0.4469 -0.7438
vn 0.6326 0.4469 -0.6326
vn 0.7438 0.4469 -0.4970
vn 0.8265 0.4469 -0.3423
vn 0.8774 0.4469 -0.1745
vn 0.8946 0.4469 -0.0000
vn 0.8774 0.4469 0.1745
vn 0.8265 0.4469 0.3423
vn 0.7438 0.4469 0.4970
vn 0.6326 0.4469 0.6326
vn 0.4970 0.4469 0.7438
vn 0.3423 0.4469 0.8265
vn 0.1745 0.4469 0.8774
vt 1.000000 0.500000
vt 0.968750 0.500000
vt 0.968750 1.000000
vt 1.000000 1.000000
vt 0.937500 0.500000
vt 0.937500 1.000000
vt 0.906250 0.500000
vt 0.906250 1.000000
vt 0.875000 0.500000
vt 0.875000 1.000000
vt 0.843750 0.500000
vt 0.843750 1.000000
vt 0.812500 0.500000
vt 0.812500 1.000000
vt 0.781250 0.500000
vt 0.781250 1.000000
vt 0.750000 0.500000
vt 0.750000 1.000000
vt 0.718750 0.500000
vt 0.718750 1.000000
vt 0.687500 0.500000
vt 0.687500 1.000000
vt 0.656250 0.500000
vt 0.656250 1.000000
vt 0.625000 0.500000
vt 0.625000 1.000000
vt 0.593750 0.500000
vt 0.593750 1.000000
vt 0.562500 0.500000
vt 0.562500 1.000000
vt 0.531250 0.500000
vt 0.531250 1.000000
vt 0.500000 0.500000
vt 0.500000 1.000000
vt 0.468750 0.500000
vt 0.468750 1.000000
vt 0.437500 0.500000
vt 0.437500 1.000000
vt 0.406250 0.500000
vt 0.406250 1.000000
vt 0.375000 0.500000
vt 0.375000 1.000000
vt 0.343750 0.500000
vt 0.343750 1.000000
vt 0.312500 0.500000
vt 0.312500 1.000000
vt 0.281250 0.500000
vt 0.281250 1.000000
vt 0.250000 0.500000
vt 0.250000 1.000000
vt 0.218750 0.500000
vt 0.218750 1.000000
vt 0.187500 0.500000
vt 0.187500 1.000000
vt 0.156250 0.500000
vt 0.156250 1.000000
vt 0.125000 0.500000
vt 0.125000 1.000000
vt 0.093750 0.500000
vt 0.093750 1.000000
vt 0.062500 0.500000
vt 0.062500 1.000000
vt 0.296822 0.485388
vt 0.341844 0.471731
vt 0.383337 0.449553
vt 0.419706 0.419706
vt 0.449553 0.383337
vt 0.471731 0.341844
vt 0.485388 0.296822
vt 0.490000 0.250000
vt 0.485388 0.203178
vt 0.471731 0.158156
vt 0.449553 0.116663
vt 0.419706 0.080294
vt 0.383337 0.050447
vt 0.341844 0.028269
vt 0.296822 0.014612
vt 0.250000 0.010000
vt 0.203178 0.014612
vt 0.158156 0.028269
vt 0.116663 0.050447
vt 0.080294 0.080294
vt 0.050447 0.116663
vt 0.028269 0.158156
vt 0.014612 0.203178
vt 0.010000 0.250000
vt 0.014612 0.296822
vt 0.028269 0.341844
vt 0.050447 0.383337
vt 0.080294 0.419706
vt 0.116663 0.449553
vt 0.158156 0.471731
vt 0.203178 0.485388
vt 0.250000 0.490000
vt 0.031250 0.500000
vt 0.031250 1.000000
vt 0.000000 0.500000
vt 0.000000 1.000000
vt 0.750000 0.490000
vt 0.703178 0.485388
vt 0.658156 0.471731
vt 0.616663 0.449553
vt 0.580294 0.419706
vt 0.550447 0.383337
vt 0.528269 0.341844
vt 0.514612 0.296822
vt 0.510000 0.250000
vt 0.514612 0.203178
vt 0.528269 0.158156
vt 0.550447 0.116663
vt 0.580294 0.080294
vt 0.616663 0.050447
vt 0.658156 0.028269
vt 0.703178 0.014612
vt 0.750000 0.010000
vt 0.796822 0.014612
vt 0.841844 0.028269
vt 0.883337 0.050447
vt 0.919706 0.080294
vt 0.949553 0.116663
vt 0.971731 0.158156
vt 0.985388 0.203178
vt 0.990000 0.250000
vt 0.985388 0.296822
vt 0.971731 0.341844
vt 0.949553 0.383337
vt 0.919706 0.419706
vt 0.883337 0.449553
vt 0.841844 0.471731
vt 0.796822 0.485388
s 1
usemtl Material.001
f 1/1/1 2/4/2 4/3/4 3/2/3
f 3/2/3 4/3/4 6/6/6 5/5/5
f 5/5/5 6/6/6 8/8/8 7/7/7
f 7/7/7 8/8/8 10/10/10 9/9/9
f 9/9/9 10/10/10 12/12/12 11/11/11
f 11/11/11 12/12/12 14/14/14 13/13/13
f 13/13/13 14/14/14 16/16/16 15/15/15
f 15/15/15 16/16/16 18/18/18 17/17/17
f 17/17/17 18/18/18 20/20/20 19/19/19
f 19/19/19 20/20/20 22/22/22 21/21/21
f 21/21/21 22/22/22 24/24/24 23/23/23
f 23/23/23 24/24/24 26/26/26 25/25/25
f 25/25/25 26/26/26 28/28/28 27/27/27
f 27/27/27 28/28/28 30/30/30 29/29/29
f 29/29/29 30/30/30 32/32/32 31/31/31
f 31/31/31 32/32/32 34/34/34 33/33/33
f 33/33/33 34/34/34 36/36/36 35/35/35
f 35/35/35 36/36/36 38/38/38 37/37/37
f 37/37/37 38/38/38 40/40/40 39/39/39
f 39/39/39 40/40/40 42/42/42 41/41/41
f 41/41/41 42/42/42 44/44/44 43/43/43
f 43/43/43 44/44/44 46/46/46 45/45/45
f 45/45/45 46/46/46 48/48/48 47/47/47
f 47/47/47 48/48/48 50/50/50 49/49/49
f 49/49/49 50/50/50 52/52/52 51/51/51
f 51/51/51 52/52/52 54/54/54 53/53/53
f 53/53/53 54/54/54 56/56/56 55/55/55
f 55/55/55 56/56/56 58/58/58 57/57/57
f 57/57/57 58/58/58 60/60/60 59/59/59
f 59/59/59 60/60/60 62/62/62 61/61/61
f 4/63/4 2/94/2 64/93/64 62/92/62 60/91/60 58/90/58 56/89/56 54/88/54 52/87/52 50/86/50 48/85/48 46/84/46 44/83/44 42/82/42 40/81/40 38/80/38 36/79/36 34/78/34 32/77/32 30/76/30 28/75/28 26/74/26 24/73/24 22/72/22 20/71/20 18/70/18 16/69/16 14/68/14 12/67/12 10/66/10 8/65/8 6/64/6
f 61/61/61 62/62/62 64/96/64 63/95/63
f 63/95/63 64/96/64 2/98/2 1/97/1
f 1/99/1 3/130/3 5/129/5 7/128/7 9/127/9 11/126/11 13/125/13 15/124/15 17/123/17 19/122/19 21/121/21 23/120/23 25/119/25 27/118/27 29/117/29 31/116/31 33/115/33 35/114/35 37/113/37 39/112/39 41/111/41 43/110/43 45/109/45 47/108/47 49/107/49 51/106/51 53/105/53 55/104/55 57/103/57 59/102/59 61/101/61 63/100/63
f 65/1/65 67/2/66 68/3/35 66/4/33
f 67/2/66 69/5/67 70/6/37 68/3/35
f 69/5/67 71/7/68 72/8/39 70/6/37
f 71/7/68 73/9/69 74/10/41 72/8/39
f 73/9/69 75/11/70 76/12/43 74/10/41
f 75/11/70 77/13/71 78/14/45 76/12/43
f 77/13/71 79/15/72 80/16/47 78/14/45
f 79/15/72 81/17/73 82/18/49 80/16/47
f 81/17/73 83/19/74 84/20/51 82/18/49
f 83/19/74 85/21/75 86/22/53 84/20/51
f 85/21/75 87/23/76 88/24/55 86/22/53
f 87/23/76 89/25/77 90/26/57 88/24/55
f 89/25/77 91/27/78 92/28/59 90/26/57
f 91/27/78 93/29/79 94/30/61 92/28/59
f 93/29/79 95/31/80 96/32/63 94/30/61
f 95/31/80 97/33/81 98/34/1 96/32/63
f 97/33/81 99/35/82 100/36/3 98/34/1
f 99/35/82 101/37/83 102/38/5 100/36/3
f 101/37/83 103/39/84 104/40/7 102/38/5
f 103/39/84 105/41/85 106/42/9 104/40/7
f 105/41/85 107/43/86 108/44/11 106/42/9
f 107/43/86 109/45/87 110/46/13 108/44/11
f 109/45/87 111/47/88 112/48/15 110/46/13
f 111/47/88 113/49/89 114/50/17 112/48/15
f 113/49/89 115/51/90 116/52/19 114/50/17
f 115/51/90 117/53/91 118/54/21 116/52/19
f 117/53/91 119/55/92 120/56/23 118/54/21
f 119/55/92 121/57/93 122/58/25 120/56/23
f 121/57/93 123/59/94 124/60/27 122/58/25
f 123/59/94 125/61/95 126/62/29 124/60/27
f 68/63/35 70/64/37 72/65/39 74/66/41 76/67/43 78/68/45 80/69/47 82/70/49 84/71/51 86/72/53 88/73/55 90/74/57 92/75/59 94/76/61 96/77/63 98/78/1 100/79/3 102/80/5 104/81/7 106/82/9 108/83/11 110/84/13 112/85/15 114/86/17 116/87/19 118/88/21 120/89/23 122/90/25 124/91/27 126/92/29 128/93/31 66/94/33
f 125/61/95 127/95/96 128/96/31 126/62/29
f 127/95/96 65/97/65 66/98/33 128/96/31
f 95/31/80 144/31/112 145/33/113 97/33/81
f 113/49/89 153/49/121 154/51/122 115/51/90
f 69/5/67 131/5/99 132/7/100 71/7/68
f 87/23/76 140/23/108 141/25/109 89/25/77
f 105/41/85 149/41/117 150/43/118 107/43/86
f 123/59/94 158/59/126 159/61/127 125/61/95
f 79/15/72 136/15/104 137/17/105 81/17/73
f 97/33/81 145/33/113 146/35/114 99/35/82
f 115/51/90 154/51/122 155/53/123 117/53/91
f 71/7/68 132/7/100 133/9/101 73/9/69
f 89/25/77 141/25/109 142/27/110 91/27/78
f 107/43/86 150/43/118 151/45/119 109/45/87
f 125/61/95 159/61/127 160/95/128 127/95/96
f 81/17/73 137/17/105 138/19/106 83/19/74
f 99/35/82 146/35/114 147/37/115 101/37/83
f 117/53/91 155/53/123 156/55/124 119/55/92
f 73/9/69 133/9/101 134/11/102 75/11/70
f 91/27/78 142/27/110 143/29/111 93/29/79
f 109/45/87 151/45/119 152/47/120 111/47/88
f 65/1/65 129/1/97 130/2/98 67/2/66
f 127/95/96 160/95/128 129/97/97 65/97/65
f 83/19/74 138/19/106 139/21/107 85/21/75
f 101/37/83 147/37/115 148/39/116 103/39/84
f 119/55/92 156/55/124 157/57/125 121/57/93
f 75/11/70 134/11/102 135/13/103 77/13/71
f 93/29/79 143/29/111 144/31/112 95/31/80
f 111/47/88 152/47/120 153/49/121 113/49/89
f 67/2/66 130/2/98 131/5/99 69/5/67
f 85/21/75 139/21/107 140/23/108 87/23/76
f 103/39/84 148/39/116 149/41/117 105/41/85
f 121/57/93 157/57/125 158/59/126 123/59/94
f 77/13/71 135/13/103 136/15/104 79/15/72
usemtl goldcap
f 144/31/112 176/31/144 177/33/145 145/33/113
f 161/99/129 192/100/160 191/101/159 190/102/158 189/103/157 188/104/156 187/105/155 186/106/154 185/107/153 184/108/152 183/109/151 182/110/150 181/111/149 180/112/148 179/113/147 178/114/146 177/115/145 176/116/144 175/117/143 174/118/142 173/119/141 172/120/140 171/121/139 170/122/138 169/123/137 168/124/136 167/125/135 166/126/134 165/127/133 164/128/132 163/129/131 162/130/130
f 131/5/99 163/5/131 164/7/132 132/7/100
f 158/59/126 190/59/158 191/61/159 159/61/127
f 145/33/113 177/33/145 178/35/146 146/35/114
f 132/7/100 164/7/132 165/9/133 133/9/101
f 159/61/127 191/61/159 192/95/160 160/95/128
f 146/35/114 178/35/146 179/37/147 147/37/115
f 133/9/101 165/9/133 166/11/134 134/11/102
f 160/95/128 192/95/160 161/97/129 129/97/97
f 147/37/115 179/37/147 180/39/148 148/39/116
f 134/11/102 166/11/134 167/13/135 135/13/103
f 148/39/116 180/39/148 181/41/149 149/41/117
f 135/13/103 167/13/135 168/15/136 136/15/104
f 149/41/117 181/41/149 182/43/150 150/43/118
f 136/15/104 168/15/136 169/17/137 137/17/105
f 150/43/118 182/43/150 183/45/151 151/45/119
f 137/17/105 169/17/137 170/19/138 138/19/106
f 151/45/119 183/45/151 184/47/152 152/47/120
f 138/19/106 170/19/138 171/21/139 139/21/107
f 152/47/120 184/47/152 185/49/153 153/49/121
f 139/21/107 171/21/139 172/23/140 140/23/108
f 153/49/121 185/49/153 186/51/154 154/51/122
f 140/23/108 172/23/140 173/25/141 141/25/109
f 154/51/122 186/51/154 187/53/155 155/53/123
f 141/25/109 173/25/141 174/27/142 142/27/110
f 155/53/123 187/53/155 188/55/156 156/55/124
f 142/27/110 174/27/142 175/29/143 143/29/111
f 129/1/97 161/1/129 162/2/130 130/2/98
f 156/55/124 188/55/156 189/57/157 157/57/125
f 143/29/111 175/29/143 176/31/144 144/31/112
f 130/2/98 162/2/130 163/5/131 131/5/99
f 157/57/125 189/57/157 190/59/158 158/59/126
o Plane
v 3.997144 1.052135 3.998980
v 3.996782 3.482433 3.999322
v 3.464228 0.987726 -4.436535
v 3.418070 3.418030 -4.474417
v 3.995932 0.993587 -4.000102
v 4.203329 0.999449 -3.748391
v 4.701559 1.005297 -3.140776
v 5.189867 1.011152 -2.227672
v 5.476711 1.017007 -1.330713
v 5.632805 1.022861 -0.219243
v 5.559059 1.028716 0.968000
v 5.254718 1.034571 2.062525
v 4.818688 1.040425 2.922098
v 4.423073 1.046291 3.480633
v 3.997112 1.273071 3.999010
v 3.997079 1.494007 3.999041
v 3.997046 1.714944 3.999072
v 3.997014 1.935880 3.999103
v 3.996981 2.156816 3.999134
v 3.996948 2.377752 3.999166
v 3.996915 2.598688 3.999196
v 3.996882 2.819624 3.999228
v 3.996849 3.040561 3.999259
v 3.996816 3.261497 3.999290
v 4.401440 3.476578 3.506993
v 4.808414 3.470723 2.941319
v 5.252206 3.464869 2.070806
v 5.559531 3.459013 0.963203
v 5.631030 3.453159 -0.237265
v 5.467798 3.447304 -1.360094
v 5.170013 3.441449 -2.264814
v 4.701144 3.435595 -3.141402
v 4.170399 3.429740 -3.788517
v 3.995497 3.423885 -4.000490
v 3.422266 3.197094 -4.470973
v 3.426462 2.976158 -4.467529
v 3.430658 2.755222 -4.464086
v 3.434854 2.534286 -4.460642
v 3.439050 2.313350 -4.457199
v 3.443246 2.092414 -4.453754
v 3.447442 1.871477 -4.450311
v 3.451638 1.650541 -4.446867
v 3.455834 1.429605 -4.443424
v 3.460030 1.208656 -4.439981
v 4.421104 1.267216 3.483031
v 4.817755 1.261361 2.923845
v 5.254490 1.255507 2.063278
v 5.559102 1.249652 0.967564
v 5.632643 1.243798 -0.220881
v 5.475900 1.237943 -1.333385
v 5.188063 1.232088 -2.231048
v 4.701521 1.226233 -3.140832
v 4.200336 1.220384 -3.752038
v 3.995893 1.214524 -4.000137
v 4.419138 1.488153 3.485427
v 4.816820 1.482297 2.925593
v 5.254261 1.476444 2.064031
v 5.559144 1.470588 0.967128
v 5.632483 1.464734 -0.222520
v 5.475090 1.458879 -1.336056
v 5.186257 1.453024 -2.234425
v 4.701484 1.447170 -3.140889
v 4.197343 1.441310 -3.755685
v 3.995853 1.435460 -4.000173
v 4.417172 1.709088 3.487823
v 4.815886 1.703234 2.927340
v 5.254033 1.697380 2.064783
v 5.559187 1.691525 0.966691
v 5.632321 1.685670 -0.224158
v 5.474280 1.679815 -1.338727
v 5.184452 1.673960 -2.237802
v 4.701447 1.668106 -3.140945
v 4.194349 1.662258 -3.759333
v 3.995814 1.656396 -4.000208
v 4.415205 1.930026 3.490219
v 4.814952 1.924170 2.929087
v 5.253805 1.918316 2.065536
v 5.559231 1.912460 0.966255
v 5.632160 1.906606 -0.225797
v 5.473470 1.900751 -1.341398
v 5.182648 1.894896 -2.241178
v 4.701410 1.889042 -3.141002
v 4.191355 1.883194 -3.762981
v 3.995775 1.877332 -4.000243
v 4.413239 2.150961 3.492615
v 4.814018 2.145106 2.930834
v 5.253576 2.139252 2.066289
v 5.559274 2.133397 0.965820
v 5.631998 2.127542 -0.227435
v 5.472660 2.121687 -1.344068
v 5.180842 2.115832 -2.244555
v 4.701372 2.109978 -3.141058
v 4.188362 2.104119 -3.766628
v 3.995735 2.098268 -4.000278
v 4.411272 2.371897 3.495011
v 4.813085 2.366043 2.932582
v 5.253348 2.360188 2.067042
v 5.559317 2.354333 0.965383
v 5.631837 2.348478 -0.229073
v 5.471849 2.342623 -1.346739
v 5.179038 2.336769 -2.247931
v 4.701334 2.330914 -3.141116
v 4.185369 2.325057 -3.770275
v 3.995695 2.319205 -4.000313
v 4.409306 2.592834 3.497408
v 4.812150 2.586979 2.934329
v 5.253119 2.581124 2.067795
v 5.559360 2.575269 0.964947
v 5.631675 2.569414 -0.230712
v 5.471039 2.563559 -1.349410
v 5.177233 2.557705 -2.251308
v 4.701297 2.551850 -3.141173
v 4.182374 2.546007 -3.773925
v 3.995656 2.540141 -4.000349
v 4.407339 2.813769 3.499805
v 4.811216 2.807915 2.936077
v 5.252892 2.802060 2.068547
v 5.559402 2.796205 0.964511
v 5.631515 2.790351 -0.232350
v 5.470229 2.784496 -1.352081
v 5.175428 2.778641 -2.254685
v 4.701259 2.772787 -3.141230
v 4.179379 2.766932 -3.777573
v 3.995617 2.761076 -4.000383
v 4.405372 3.034706 3.502201
v 4.810283 3.028850 2.937824
v 5.252664 3.022996 2.069299
v 5.559445 3.017142 0.964075
v 5.631353 3.011286 -0.233988
v 5.469419 3.005432 -1.354752
v 5.173623 2.999577 -2.258061
v 4.701221 2.993722 -3.141287
v 4.176386 2.987868 -3.781221
v 3.995577 2.982013 -4.000419
v 4.403406 3.255642 3.504597
v 4.809348 3.249787 2.939572
v 5.252435 3.243932 2.070053
v 5.559488 3.238078 0.963639
v 5.631192 3.232222 -0.235627
v 5.468608 3.226368 -1.357423
v 5.171819 3.220513 -2.261438
v 4.701182 3.214659 -3.141344
v 4.173392 3.208804 -3.784868
v 3.995537 3.202949 -4.000454
vn 0.6344 -0.0000 -0.7730
vn 0.6345 -0.0000 -0.7730
vn 0.7726 -0.0000 0.6349
vn 0.8158 -0.0001 0.5783
vn 0.8918 -0.0002 0.4525
vn 0.9635 0.0002 0.2679
vn 0.9981 0.0006 0.0619
vn 0.9903 0.0008 -0.1393
vn 0.9524 0.0015 -0.3050
vn 0.8818 -0.0000 -0.4716
vn 0.7733 -0.0000 -0.6341
vn 0.7718 -0.0000 -0.6359
vn 0.8154 -0.0001 0.5788
vn 0.8917 -0.0002 0.4526
vn 0.9635 0.0002 0.2678
vn 0.9981 0.0006 0.0616
vn 0.9902 0.0008 -0.1397
vn 0.9521 0.0015 -0.3057
vn 0.7717 -0.0000 -0.6360
vn 0.8150 -0.0001 0.5794
vn 0.8916 -0.0002 0.4528
vn 0.9981 0.0006 0.0614
vn 0.9901 0.0008 -0.1402
vn 0.9519 0.0014 -0.3065
vn 0.8147 -0.0001 0.5799
vn 0.8915 -0.0002 0.4530
vn 0.9635 0.0002 0.2677
vn 0.9981 0.0006 0.0612
vn 0.9901 0.0008 -0.1406
vn 0.9516 0.0014 -0.3072
vn 0.7716 -0.0000 -0.6360
vn 0.8143 -0.0001 0.5805
vn 0.8914 -0.0002 0.4531
vn 0.9981 0.0006 0.0609
vn 0.9900 0.0008 -0.1411
vn 0.9514 0.0014 -0.3079
vn 0.7732 -0.0000 -0.6341
vn 0.7716 -0.0000 -0.6361
vn 0.8139 -0.0001 0.5810
vn 0.8914 -0.0002 0.4533
vn 0.9635 0.0002 0.2676
vn 0.9982 0.0006 0.0607
vn 0.9899 0.0008 -0.1415
vn 0.9512 0.0014 -0.3087
vn 0.8135 -0.0001 0.5816
vn 0.8913 -0.0002 0.4535
vn 0.9982 0.0006 0.0605
vn 0.9899 0.0008 -0.1419
vn 0.9509 0.0014 -0.3094
vn 0.7715 -0.0000 -0.6362
vn 0.8131 -0.0001 0.5821
vn 0.8912 -0.0002 0.4536
vn 0.9635 0.0002 0.2675
vn 0.9982 0.0006 0.0603
vn 0.9898 0.0008 -0.1424
vn 0.9507 0.0014 -0.3101
vn 0.8127 -0.0001 0.5827
vn 0.8911 -0.0002 0.4538
vn 0.9636 0.0002 0.2675
vn 0.9982 0.0005 0.0600
vn 0.9898 0.0008 -0.1428
vn 0.9505 0.0014 -0.3108
vn 0.7714 -0.0000 -0.6363
vn 0.7726 -0.0000 0.6350
vn 0.8123 -0.0001 0.5832
vn 0.8910 -0.0002 0.4539
vn 0.9636 0.0002 0.2674
vn 0.9982 0.0005 0.0598
vn 0.9897 0.0008 -0.1432
vn 0.9502 0.0014 -0.3116
vn 0.7725 -0.0000 0.6350
vn 0.8119 -0.0001 0.5837
vn 0.8909 -0.0002 0.4541
vn 0.9982 0.0005 0.0596
vn 0.9896 0.0008 -0.1437
vn 0.9500 0.0013 -0.3123
vn 0.7732 -0.0000 -0.6342
vn 0.7714 -0.0000 -0.6364
vt 0.909091 0.909091
vt 1.000000 0.909091
vt 1.000000 1.000000
vt 0.909091 1.000000
vt 0.000000 0.909091
vt 0.090909 0.909091
vt 0.090909 1.000000
vt 0.000000 1.000000
vt 0.181818 0.909091
vt 0.181818 1.000000
vt 0.272727 0.909091
vt 0.272727 1.000000
vt 0.363636 0.909091
vt 0.363636 1.000000
vt 0.454545 0.909091
vt 0.454545 1.000000
vt 0.545455 0.909091
vt 0.545455 1.000000
vt 0.636364 0.909091
vt 0.636364 1.000000
vt 0.727273 0.909091
vt 0.727273 1.000000
vt 0.818182 0.909091
vt 0.818182 1.000000
vt 0.000000 0.000000
vt 0.090909 0.000000
vt 0.090909 0.090909
vt 0.000000 0.090909
vt 0.090909 0.181818
vt 0.000000 0.181818
vt 0.090909 0.272727
vt 0.000000 0.272727
vt 0.090909 0.363636
vt 0.000000 0.363636
vt 0.090909 0.454545
vt 0.000000 0.454545
vt 0.090909 0.545455
vt 0.000000 0.545455
vt 0.090909 0.636364
vt 0.000000 0.636364
vt 0.090909 0.727273
vt 0.000000 0.727273
vt 0.090909 0.818182
vt 0.000000 0.818182
vt 0.181818 0.000000
vt 0.181818 0.090909
vt 0.181818 0.181818
vt 0.181818 0.272727
vt 0.181818 0.363636
vt 0.181818 0.454545
vt 0.181818 0.545455
vt 0.181818 0.636364
vt 0.181818 0.727273
vt 0.181818 0.818182
vt 0.272727 0.000000
vt 0.272727 0.090909
vt 0.272727 0.181818
vt 0.272727 0.272727
vt 0.272727 0.363636
vt 0.272727 0.454545
vt 0.272727 0.545455
vt 0.272727 0.636364
vt 0.272727 0.727273
vt 0.272727 0.818182
vt 0.363636 0.000000
vt 0.363636 0.090909
vt 0.363636 0.181818
vt 0.363636 0.272727
vt 0.363636 0.363636
vt 0.363636 0.454545
vt 0.363636 0.545455
vt 0.363636 0.636364
vt 0.363636 0.727273
vt 0.363636 0.818182
vt 0.454545 0.000000
vt 0.454545 0.090909
vt 0.454545 0.181818
vt 0.454545 0.272727
vt 0.454545 0.363636
vt 0.454545 0.454545
vt 0.454545 0.545455
vt 0.454545 0.636364
vt 0.454545 0.727273
vt 0.454545 0.818182
vt 0.545455 0.000000
vt 0.545455 0.090909
vt 0.545455 0.181818
vt 0.545455 0.272727
vt 0.545455 0.363636
vt 0.545455 0.454545
vt 0.545455 0.545455
vt 0.545455 0.636364
vt 0.545455 0.727273
vt 0.545455 0.818182
vt 0.636364 0.000000
vt 0.636364 0.090909
vt 0.636364 0.181818
vt 0.636364 0.272727
vt 0.636364 0.363636
vt 0.636364 0.454545
vt 0.636364 0.545455
vt 0.636364 0.636364
vt 0.636364 0.727273
vt 0.636364 0.818182
vt 0.727273 0.000000
vt 0.727273 0.090909
vt 0.727273 0.181818
vt 0.727273 0.272727
vt 0.727273 0.363636
vt 0.727273 0.454545
vt 0.727273 0.545455
vt 0.727273 0.636364
vt 0.727273 0.727273
vt 0.727273 0.818182
vt 0.818182 0.000000
vt 0.818182 0.090909
vt 0.818182 0.181818
vt 0.818182 0.272727
vt 0.818182 0.363636
vt 0.818182 0.454545
vt 0.818182 0.545455
vt 0.818182 0.636364
vt 0.818182 0.727273
vt 0.818182 0.818182
vt 0.909091 0.000000
vt 0.909091 0.090909
vt 0.909091 0.181818
vt 0.909091 0.272727
vt 0.909091 0.363636
vt 0.909091 0.454545
vt 0.909091 0.545455
vt 0.909091 0.636364
vt 0.909091 0.727273
vt 0.909091 0.818182
vt 1.000000 0.000000
vt 1.000000 0.090909
vt 1.000000 0.181818
vt 1.000000 0.272727
vt 1.000000 0.363636
vt 1.000000 0.454545
vt 1.000000 0.545455
vt 1.000000 0.636364
vt 1.000000 0.727273
vt 1.000000 0.818182
s 0
usemtl Material.003
f 336/131/161 227/134/161 196/133/161 226/132/161
f 197/135/162 195/138/162 236/137/162 246/136/162
f 246/136/162 236/137/162 235/140/162 256/139/162
f 256/139/162 235/140/162 234/142/162 266/141/162
f 266/141/161 234/142/161 233/144/161 276/143/161
f 276/143/161 233/144/161 232/146/161 286/145/161
f 286/145/161 232/146/161 231/148/161 296/147/161
f 296/147/161 231/148/161 230/150/161 306/149/161
f 306/149/161 230/150/161 229/152/161 316/151/161
f 316/151/161 229/152/161 228/154/161 326/153/161
f 326/153/161 228/154/161 227/134/161 336/131/161
f 193/155/163 206/158/163 237/157/163 207/156/163
f 206/158/164 205/160/164 238/159/164 237/157/164
f 205/160/165 204/162/165 239/161/165 238/159/165
f 204/162/166 203/164/166 240/163/166 239/161/166
f 203/164/167 202/166/167 241/165/167 240/163/167
f 202/166/168 201/168/168 242/167/168 241/165/168
f 201/168/169 200/170/169 243/169/169 242/167/169
f 200/170/170 199/172/170 244/171/170 243/169/170
f 199/172/171 198/174/171 245/173/171 244/171/171
f 198/174/172 197/135/172 246/136/172 245/173/172
f 207/156/163 237/157/163 247/176/163 208/175/163
f 237/157/173 238/159/173 248/177/173 247/176/173
f 238/159/174 239/161/174 249/178/174 248/177/174
f 239/161/175 240/163/175 250/179/175 249/178/175
f 240/163/176 241/165/176 251/180/176 250/179/176
f 241/165/177 242/167/177 252/181/177 251/180/177
f 242/167/178 243/169/178 253/182/178 252/181/178
f 243/169/170 244/171/170 254/183/170 253/182/170
f 244/171/171 245/173/171 255/184/171 254/183/171
f 245/173/179 246/136/179 256/139/179 255/184/179
f 208/175/163 247/176/163 257/186/163 209/185/163
f 247/176/180 248/177/180 258/187/180 257/186/180
f 248/177/181 249/178/181 259/188/181 258/187/181
f 249/178/175 250/179/175 260/189/175 259/188/175
f 250/179/182 251/180/182 261/190/182 260/189/182
f 251/180/183 252/181/183 262/191/183 261/190/183
f 252/181/184 253/182/184 263/192/184 262/191/184
f 253/182/170 254/183/170 264/193/170 263/192/170
f 254/183/171 255/184/171 265/194/171 264/193/171
f 255/184/179 256/139/179 266/141/179 265/194/179
f 209/185/163 257/186/163 267/196/163 210/195/163
f 257/186/185 258/187/185 268/197/185 267/196/185
f 258/187/186 259/188/186 269/198/186 268/197/186
f 259/188/187 260/189/187 270/199/187 269/198/187
f 260/189/188 261/190/188 271/200/188 270/199/188
f 261/190/189 262/191/189 272/201/189 271/200/189
f 262/191/190 263/192/190 273/202/190 272/201/190
f 263/192/170 264/193/170 274/203/170 273/202/170
f 264/193/171 265/194/171 275/204/171 274/203/171
f 265/194/191 266/141/191 276/143/191 275/204/191
f 210/195/163 267/196/163 277/206/163 211/205/163
f 267/196/192 268/197/192 278/207/192 277/206/192
f 268/197/193 269/198/193 279/208/193 278/207/193
f 269/198/187 270/199/187 280/209/187 279/208/187
f 270/199/194 271/200/194 281/210/194 280/209/194
f 271/200/195 272/201/195 282/211/195 281/210/195
f 272/201/196 273/202/196 283/212/196 282/211/196
f 273/202/170 274/203/170 284/213/170 283/212/170
f 274/203/197 275/204/197 285/214/197 284/213/197
f 275/204/198 276/143/198 286/145/198 285/214/198
f 211/205/163 277/206/163 287/216/163 212/215/163
f 277/206/199 278/207/199 288/217/199 287/216/199
f 278/207/200 279/208/200 289/218/200 288/217/200
f 279/208/201 280/209/201 290/219/201 289/218/201
f 280/209/202 281/210/202 291/220/202 290/219/202
f 281/210/203 282/211/203 292/221/203 291/220/203
f 282/211/204 283/212/204 293/222/204 292/221/204
f 283/212/170 284/213/170 294/223/170 293/222/170
f 284/213/197 285/214/197 295/224/197 294/223/197
f 285/214/198 286/145/198 296/147/198 295/224/198
f 212/215/163 287/216/163 297/226/163 213/225/163
f 287/216/205 288/217/205 298/227/205 297/226/205
f 288/217/206 289/218/206 299/228/206 298/227/206
f 289/218/201 290/219/201 300/229/201 299/228/201
f 290/219/207 291/220/207 301/230/207 300/229/207
f 291/220/208 292/221/208 302/231/208 301/230/208
f 292/221/209 293/222/209 303/232/209 302/231/209
f 293/222/170 294/223/170 304/233/170 303/232/170
f 294/223/197 295/224/197 305/234/197 304/233/197
f 295/224/210 296/147/210 306/149/210 305/234/210
f 213/225/163 297/226/163 307/236/163 214/235/163
f 297/226/211 298/227/211 308/237/211 307/236/211
f 298/227/212 299/228/212 309/238/212 308/237/212
f 299/228/213 300/229/213 310/239/213 309/238/213
f 300/229/214 301/230/214 311/240/214 310/239/214
f 301/230/215 302/231/215 312/241/215 311/240/215
f 302/231/216 303/232/216 313/242/216 312/241/216
f 303/232/170 304/233/170 314/243/170 313/242/170
f 304/233/197 305/234/197 315/244/197 314/243/197
f 305/234/210 306/149/210 316/151/210 315/244/210
f 214/235/163 307/236/163 317/246/163 215/245/163
f 307/236/217 308/237/217 318/247/217 317/246/217
f 308/237/218 309/238/218 319/248/218 318/247/218
f 309/238/219 310/239/219 320/249/219 319/248/219
f 310/239/220 311/240/220 321/250/220 320/249/220
f 311/240/221 312/241/221 322/251/221 321/250/221
f 312/241/222 313/242/222 323/252/222 322/251/222
f 313/242/170 314/243/170 324/253/170 323/252/170
f 314/243/197 315/244/197 325/254/197 324/253/197
f 315/244/223 316/151/223 326/153/223 325/254/223
f 215/245/224 317/246/224 327/256/224 216/255/224
f 317/246/225 318/247/225 328/257/225 327/256/225
f 318/247/226 319/248/226 329/258/226 328/257/226
f 319/248/227 320/249/227 330/259/227 329/258/227
f 320/249/228 321/250/228 331/260/228 330/259/228
f 321/250/229 322/251/229 332/261/229 331/260/229
f 322/251/230 323/252/230 333/262/230 332/261/230
f 323/252/170 324/253/170 334/263/170 333/262/170
f 324/253/197 325/254/197 335/264/197 334/263/197
f 325/254/223 326/153/223 336/131/223 335/264/223
f 216/255/231 327/256/231 217/266/231 194/265/231
f 327/256/232 328/257/232 218/267/232 217/266/232
f 328/257/233 329/258/233 219/268/233 218/267/233
f 329/258/227 330/259/227 220/269/227 219/268/227
f 330/259/234 331/260/234 221/270/234 220/269/234
f 331/260/235 332/261/235 222/271/235 221/270/235
f 332/261/236 333/262/236 223/272/236 222/271/236
f 333/262/170 334/263/170 224/273/170 223/272/170
f 334/263/237 335/264/237 225/274/237 224/273/237
f 335/264/238 336/131/238 226/132/238 225/274/238
o Text
v 4.778448 2.562698 -3.116138
v 4.977138 2.563235 -2.744414
v 4.979258 2.489280 -2.740448
v 4.896995 2.489049 -2.894353
v 4.911305 1.989877 -2.867580
v 4.877144 1.989773 -2.931490
v 4.862833 2.488955 -2.958264
v 4.780568 2.488745 -3.112173
v 5.009557 2.563322 -2.683763
v 5.043718 2.563414 -2.619853
v 5.050874 2.313818 -2.606466
v 5.184031 2.314175 -2.357345
v 5.176876 2.563771 -2.370733
v 5.211037 2.563863 -2.306822
v 5.227468 1.990717 -2.276079
v 5.193307 1.990625 -2.339991
v 5.186152 2.240221 -2.353379
v 5.052994 2.239863 -2.602499
v 5.060150 1.990267 -2.589112
v 5.025989 1.990175 -2.653022
v 5.268871 2.273221 -2.198620
v 5.285881 2.273438 -2.152645
v 5.286714 2.199479 -2.149897
v 5.275271 2.199358 -2.185600
v 5.275594 2.081703 -2.184822
v 5.276089 2.078620 -2.183595
v 5.276575 2.075668 -2.182346
v 5.277053 2.072873 -2.181074
v 5.277523 2.070263 -2.179778
v 5.277983 2.067862 -2.178456
v 5.278434 2.065698 -2.177105
v 5.278875 2.063797 -2.175725
v 5.280195 2.062186 -2.171385
v 5.283159 2.060891 -2.161616
v 5.286159 2.059930 -2.151729
v 5.289195 2.059350 -2.141721
v 5.292272 2.059153 -2.131576
v 5.301481 2.061031 -2.101219
v 5.310128 2.066482 -2.072710
v 5.318163 2.075304 -2.046225
v 5.325532 2.087322 -2.021931
v 5.332185 2.102382 -1.999999
v 5.338072 2.120269 -1.980597
v 5.343136 2.140817 -1.963897
v 5.347332 2.163843 -1.950066
v 5.350605 2.189152 -1.939279
v 5.352903 2.216580 -1.931702
v 5.354177 2.245960 -1.927503
v 5.354372 2.277069 -1.926858
v 5.353481 2.307510 -1.929799
v 5.351550 2.336496 -1.936161
v 5.348650 2.363795 -1.945719
v 5.344852 2.389191 -1.958239
v 5.340225 2.412437 -1.973496
v 5.334836 2.433303 -1.991262
v 5.328754 2.451596 -2.011309
v 5.322050 2.467061 -2.033412
v 5.314792 2.479476 -2.057337
v 5.307050 2.488619 -2.082861
v 5.298892 2.494258 -2.109755
v 5.290388 2.496165 -2.137786
v 5.285594 2.495748 -2.153591
v 5.280801 2.494518 -2.169390
v 5.278650 2.492511 -2.176437
v 5.277846 2.489709 -2.178854
v 5.277006 2.486125 -2.181203
v 5.276134 2.481765 -2.183482
v 5.275234 2.476634 -2.185687
v 5.274313 2.470739 -2.187818
v 5.273375 2.464086 -2.189872
v 5.272423 2.456679 -2.191849
v 5.271464 2.448525 -2.193748
v 5.268981 2.439631 -2.198416
v 5.266595 2.522830 -2.202877
v 5.271416 2.531757 -2.193841
v 5.272573 2.539618 -2.191543
v 5.273634 2.546467 -2.189314
v 5.274610 2.552361 -2.187145
v 5.275512 2.557356 -2.185021
v 5.276353 2.561506 -2.182922
v 5.277144 2.564867 -2.180828
v 5.277895 2.567497 -2.178714
v 5.278613 2.569449 -2.176553
v 5.280110 2.570780 -2.171669
v 5.284499 2.571555 -2.157200
v 5.289068 2.571808 -2.142138
v 5.301002 2.569225 -2.102798
v 5.312418 2.561586 -2.065166
v 5.323224 2.549203 -2.029542
v 5.333329 2.532397 -1.996229
v 5.342644 2.511427 -1.965522
v 5.351076 2.486637 -1.937727
v 5.358533 2.458322 -1.913142
v 5.364926 2.426798 -1.892069
v 5.370162 2.392364 -1.874808
v 5.374151 2.355322 -1.861655
v 5.376802 2.315980 -1.852916
v 5.378023 2.274644 -1.848891
v 5.377748 2.233612 -1.849797
v 5.375998 2.194723 -1.855567
v 5.372943 2.158278 -1.865640
v 5.368566 2.124509 -1.880068
v 5.362977 2.093701 -1.898493
v 5.356252 2.066134 -1.920661
v 5.348470 2.042045 -1.946314
v 5.339707 2.021738 -1.975202
v 5.330041 2.005470 -2.007068
v 5.319550 1.993479 -2.041651
v 5.308310 1.986081 -2.078707
v 5.296398 1.983532 -2.117973
v 5.290938 1.983788 -2.135974
v 5.285645 1.984633 -2.153424
v 5.280487 1.986091 -2.170428
v 5.278605 1.988177 -2.176575
v 5.277836 1.990916 -2.178883
v 5.277036 1.994331 -2.181122
v 5.276202 1.998448 -2.183306
v 5.275334 2.003288 -2.185448
v 5.274428 2.008875 -2.187560
v 5.273478 2.015231 -2.189652
v 5.272480 2.022381 -2.191734
v 5.271429 2.030348 -2.193814
v 5.404226 2.564697 -1.762513
v 5.427147 2.564789 -1.686952
v 5.433606 1.991643 -1.665660
v 5.410685 1.991551 -1.741221
v 5.462464 2.564930 -1.570527
v 5.483982 2.565016 -1.499592
v 5.488982 2.121290 -1.483109
v 5.592038 2.565449 -1.143378
v 5.601019 2.565522 -1.110546
v 5.601570 1.992375 -1.106869
v 5.595222 1.992289 -1.132881
v 5.590250 2.433495 -1.149272
v 5.488569 1.991862 -1.484469
v 5.468923 1.991784 -1.549235
v 5.662325 1.993076 -0.490648
v 5.640399 1.992827 -0.713280
v 5.635911 1.995607 -0.758844
v 5.631731 2.003745 -0.801280
v 5.627875 2.016782 -0.840434
v 5.624356 2.034262 -0.876161
v 5.621190 2.055718 -0.908309
v 5.618390 2.080712 -0.936733
v 5.615973 2.108774 -0.961280
v 5.613952 2.139441 -0.981799
v 5.612342 2.172271 -0.998144
v 5.611158 2.206783 -1.010163
v 5.610415 2.242525 -1.017710
v 5.610127 2.279061 -1.020631
v 5.610268 2.313129 -1.019201
v 5.610798 2.347289 -1.013815
v 5.611728 2.380939 -1.004375
v 5.613067 2.413521 -0.990784
v 5.614823 2.444457 -0.972950
v 5.617007 2.473171 -0.950775
v 5.619628 2.499057 -0.924165
v 5.622696 2.521559 -0.893019
v 5.626220 2.540063 -0.857244
v 5.630208 2.554030 -0.816744
v 5.634672 2.562863 -0.771424
v 5.639620 2.565974 -0.721186
v 5.661465 2.566222 -0.499392
v 5.653498 2.492175 -0.580285
v 5.641050 2.492034 -0.706667
v 5.637294 2.490007 -0.744796
v 5.633898 2.484199 -0.779291
v 5.630853 2.474893 -0.810204
v 5.628156 2.462357 -0.837589
v 5.625801 2.446868 -0.861500
v 5.623783 2.428699 -0.881988
v 5.622097 2.408149 -0.899110
v 5.620736 2.385465 -0.912920
v 5.619698 2.360969 -0.923469
v 5.618974 2.334887 -0.930815
v 5.618561 2.307521 -0.935005
v 5.618453 2.279153 -0.936098
v 5.618575 2.260145 -0.934861
v 5.618909 2.238892 -0.931462
v 5.619491 2.216156 -0.925563
v 5.620351 2.192683 -0.916831
v 5.621523 2.169183 -0.904923
v 5.623042 2.146423 -0.889506
v 5.624939 2.125134 -0.870237
v 5.627249 2.106074 -0.846785
v 5.630005 2.089960 -0.818809
v 5.633240 2.077543 -0.785970
v 5.636985 2.069579 -0.747935
v 5.641277 2.066792 -0.704365
v 5.654137 2.066938 -0.573798
v 5.673994 2.566364 -0.372173
v 5.682074 2.566456 -0.290151
v 5.682934 1.993310 -0.281407
v 5.674856 1.993218 -0.363429
v 5.694273 2.566595 -0.166281
v 5.701775 2.566680 -0.090117
v 5.702716 2.331579 0.080565
v 5.683818 2.567101 0.272436
v 5.676208 2.567190 0.349708
v 5.676699 1.994044 0.344717
v 5.684806 1.993953 0.262406
v 5.684423 2.440205 0.266290
v 5.684589 2.440194 0.264611
v 5.702151 2.218135 0.086296
v 5.703475 2.218127 0.072857
v 5.702708 2.439790 -0.080648
v 5.702542 2.439787 -0.082322
v 5.703213 1.993540 -0.075515
v 5.695134 1.993448 -0.157537
v 5.603575 2.568012 1.087158
v 5.604066 1.994866 1.082167
v 5.612174 1.994774 0.999855
v 5.611960 2.243529 1.002021
v 5.615352 2.243491 0.967584
v 5.616374 2.243147 0.957212
v 5.617382 2.241927 0.946978
v 5.618393 2.239517 0.936710
v 5.619424 2.235601 0.926236
v 5.620493 2.229864 0.915384
v 5.621616 2.221990 0.903984
v 5.622810 2.211665 0.891862
v 5.624092 2.198572 0.878847
v 5.625479 2.182396 0.864767
v 5.626987 2.162822 0.849450
v 5.628634 2.139536 0.832724
v 5.630437 2.112221 0.814417
v 5.637983 1.994482 0.737800
v 5.647662 1.994372 0.639529
v 5.646729 2.007336 0.649007
v 5.645888 2.019020 0.657545
v 5.645128 2.029618 0.665270
v 5.644434 2.039322 0.672304
v 5.643797 2.048326 0.678772
v 5.643204 2.056821 0.684798
v 5.642642 2.065001 0.690507
v 5.642099 2.073058 0.696022
v 5.641562 2.081185 0.701468
v 5.641020 2.089574 0.706968
v 5.640460 2.098419 0.712647
v 5.639872 2.107912 0.718630
v 5.638804 2.125397 0.729475
v 5.637774 2.142111 0.739933
v 5.636770 2.158055 0.750117
v 5.635784 2.173228 0.760136
v 5.634802 2.187631 0.770103
v 5.633815 2.201263 0.780126
v 5.632811 2.214125 0.790318
v 5.631780 2.226217 0.800790
v 5.630710 2.237540 0.811651
v 5.629591 2.248092 0.823012
v 5.628412 2.257875 0.834985
v 5.627162 2.266888 0.847681
v 5.628610 2.273485 0.832974
v 5.629945 2.281104 0.819422
v 5.631163 2.289717 0.807052
v 5.632263 2.299294 0.795888
v 5.633241 2.309806 0.785958
v 5.634094 2.321224 0.777287
v 5.634822 2.333519 0.769900
v 5.635420 2.346662 0.763824
v 5.635887 2.360623 0.759086
v 5.636220 2.375374 0.755710
v 5.636415 2.390884 0.753723
v 5.636471 2.407126 0.753152
v 5.636305 2.431118 0.754849
v 5.635852 2.453455 0.759443
v 5.635124 2.474057 0.766832
v 5.634131 2.492841 0.776918
v 5.632882 2.509725 0.789601
v 5.631387 2.524628 0.804780
v 5.629656 2.537467 0.822356
v 5.627698 2.548161 0.842228
v 5.625525 2.556628 0.864298
v 5.623144 2.562787 0.888466
v 5.620568 2.566555 0.914630
v 5.617804 2.567850 0.942692
v 5.611742 2.497327 1.004231
v 5.616954 2.497268 0.951316
v 5.618822 2.496571 0.932350
v 5.620501 2.494551 0.915309
v 5.621995 2.491250 0.900134
v 5.623312 2.486707 0.886769
v 5.624455 2.480964 0.875154
v 5.625432 2.474061 0.865233
v 5.626249 2.466041 0.856947
v 5.626910 2.456942 0.850238
v 5.627421 2.446806 0.845048
v 5.627788 2.435673 0.841319
v 5.628017 2.423585 0.838994
v 5.628113 2.410583 0.838013
v 5.628089 2.398685 0.838263
v 5.627944 2.387042 0.839729
v 5.627668 2.375804 0.842540
v 5.627246 2.365119 0.846825
v 5.626665 2.355135 0.852715
v 5.625915 2.346003 0.860339
v 5.624980 2.337871 0.869826
v 5.623849 2.330888 0.881306
v 5.622510 2.325203 0.894909
v 5.620948 2.320965 0.910765
v 5.619152 2.318322 0.929002
v 5.617109 2.317425 0.949750
v 5.611897 2.317484 1.002665
v 5.591533 2.568113 1.145046
v 5.500029 2.568482 1.446693
v 5.505435 1.995331 1.428872
v 5.598116 1.994965 1.123315
v 5.597918 2.068919 1.123990
v 5.527909 2.069194 1.354786
v 5.526228 2.247363 1.360325
v 5.592196 2.247099 1.142858
v 5.591499 2.321054 1.145158
v 5.525531 2.321308 1.362625
v 5.523898 2.494431 1.368007
v 5.592230 2.494164 1.142746
v 5.478276 2.568568 1.518403
v 5.343503 2.569101 1.962689
v 5.344201 2.495147 1.960389
v 5.400002 2.494927 1.776439
v 5.404710 1.995734 1.760917
v 5.427882 1.995643 1.684531
v 5.423173 2.494834 1.700053
v 5.478973 2.494613 1.516103
v 5.332627 2.569145 1.998543
v 5.272000 2.569485 2.192699
v 5.274013 1.996339 2.188488
v 5.278482 1.996324 2.176958
v 5.277984 2.262651 2.178453
v 5.335521 2.262403 1.989006
v 5.334823 2.336356 1.991305
v 5.277833 2.336605 2.178893
v 5.277489 2.495439 2.179874
v 5.333324 2.495190 1.996244
v 5.142744 2.573200 2.434589
v 5.118227 2.573268 2.480458
v 5.029061 1.997034 2.647274
v 5.064593 1.996941 2.580799
v 5.090773 2.165779 2.531821
v 5.193815 2.165511 2.339042
v 5.230528 1.996509 2.270358
v 5.266059 1.996417 2.203882
v 5.133220 2.447181 2.452407
v 5.177686 2.239501 2.369217
v 5.102358 2.239697 2.510147
vn 0.8819 -0.0000 -0.4714
vn 0.9569 -0.0000 -0.2903
vn 0.9564 -0.0000 -0.2919
vn 0.9561 -0.0001 -0.2930
vn 0.9570 -0.0000 -0.2902
vn 0.9562 -0.0000 -0.2926
vn 0.9567 -0.0001 -0.2910
vn 0.9485 -0.0000 -0.3169
vn 0.9486 -0.0000 -0.3164
vn 0.9524 -0.0000 -0.3047
vn 0.9413 0.0004 -0.3375
vn 0.9357 -0.0005 -0.3527
vn 0.9487 0.0005 -0.3162
vn 0.9426 -0.0007 -0.3339
vn 0.9489 -0.0000 -0.3155
vn 0.9359 -0.0001 -0.3523
vn 0.9269 0.0002 -0.3752
vn 0.9316 -0.0004 -0.3635
vn 0.9256 0.0004 -0.3785
vn 0.9207 -0.0004 -0.3902
vn 0.8828 0.0001 -0.4698
vn 0.8891 0.0020 -0.4577
vn 0.8826 -0.0006 -0.4702
vn 0.9003 0.0006 -0.4352
vn 0.8937 -0.0005 -0.4487
vn 0.9194 0.0005 -0.3934
vn 0.9267 -0.0007 -0.3757
vn 0.9115 0.0009 -0.4114
vn 0.9047 0.0022 -0.4260
vn 0.8986 0.0039 -0.4387
vn 0.9080 -0.0003 -0.4189
vn 0.8993 0.0008 -0.4374
vn 0.9090 0.0005 -0.4167
vn 0.9034 -0.0004 -0.4289
vn 0.9176 0.0003 -0.3976
vn 0.9124 -0.0004 -0.4093
vn 0.9417 0.0001 -0.3364
vn 0.9444 -0.0002 -0.3288
vn 0.9344 0.0003 -0.3561
vn 0.9399 -0.0005 -0.3416
vn 0.9523 -0.0006 -0.3052
vn 0.9377 0.0201 -0.3470
vn 0.9337 0.0004 -0.3581
vn 0.9286 -0.0004 -0.3712
vn 0.9715 0.0021 -0.2371
vn 0.9641 -0.0008 -0.2655
vn 0.9646 -0.0013 -0.2638
vn 0.9952 -0.0000 -0.0980
vn 0.9952 -0.0000 0.0980
vn 0.9952 -0.0000 0.0978
vn 1.0000 0.0064 0.0042
vn 0.9952 -0.0000 -0.0982
vn 1.0000 0.0077 0.0051
vn 0.9952 -0.0000 0.0981
vn 0.9952 -0.0001 0.0981
vn 0.9569 -0.0000 0.2903
vn 0.9569 -0.0001 0.2903
vn 0.9324 -0.0003 0.3614
vn 0.9255 0.0005 0.3787
vn 0.9182 -0.0005 0.3961
vn 0.9567 -0.0000 0.2909
vn 0.9568 0.0002 0.2906
vn 0.9568 -0.0000 0.2907
vn 0.9184 -0.0005 0.3957
vn 0.9544 0.0191 0.2980
vn 0.8819 -0.0000 0.4714
vt 0.142857 0.000000
vt 0.285714 0.000000
vt 0.428571 0.000000
vt 1.000000 0.000000
vt 0.000000 0.000000
vt 0.857143 0.000000
vt 0.571429 0.000000
vt 0.714286 0.000000
vt 0.545455 0.000000
vt 0.636364 0.000000
vt 0.727273 0.000000
vt 0.454545 0.000000
vt 0.272727 0.000000
vt 0.363636 0.000000
vt 0.818182 0.000000
vt 0.909091 0.000000
vt 0.181818 0.000000
vt 0.090909 0.000000
vt 0.752475 0.000000
vt 0.762376 0.000000
vt 0.277228 0.000000
vt 0.801980 0.000000
vt 0.811881 0.000000
vt 0.237624 0.000000
vt 0.247525 0.000000
vt 0.792079 0.000000
vt 0.257426 0.000000
vt 0.782178 0.000000
vt 0.772277 0.000000
vt 0.267327 0.000000
vt 0.287129 0.000000
vt 0.742574 0.000000
vt 0.297030 0.000000
vt 0.732673 0.000000
vt 0.306931 0.000000
vt 0.722772 0.000000
vt 0.316832 0.000000
vt 0.712871 0.000000
vt 0.326733 0.000000
vt 0.702970 0.000000
vt 0.356436 0.000000
vt 0.366337 0.000000
vt 0.673267 0.000000
vt 0.851485 0.000000
vt 0.198020 0.000000
vt 0.841584 0.000000
vt 0.207921 0.000000
vt 0.683168 0.000000
vt 0.346535 0.000000
vt 0.663366 0.000000
vt 0.376238 0.000000
vt 0.653465 0.000000
vt 0.168317 0.000000
vt 0.881188 0.000000
vt 0.158416 0.000000
vt 0.871287 0.000000
vt 0.178218 0.000000
vt 0.386139 0.000000
vt 0.396040 0.000000
vt 0.643564 0.000000
vt 0.861386 0.000000
vt 0.188119 0.000000
vt 0.831683 0.000000
vt 0.217822 0.000000
vt 0.821782 0.000000
vt 0.227723 0.000000
vt 0.336634 0.000000
vt 0.693069 0.000000
vt 0.425743 0.000000
vt 0.613861 0.000000
vt 0.415842 0.000000
vt 0.623762 0.000000
vt 0.148515 0.000000
vt 0.891089 0.000000
vt 0.900990 0.000000
vt 0.138614 0.000000
vt 0.128713 0.000000
vt 0.118812 0.000000
vt 0.910891 0.000000
vt 0.920792 0.000000
vt 0.108911 0.000000
vt 0.089109 0.000000
vt 0.099010 0.000000
vt 0.930693 0.000000
vt 0.445545 0.000000
vt 0.584158 0.000000
vt 0.435644 0.000000
vt 0.594059 0.000000
vt 0.603960 0.000000
vt 0.059406 0.000000
vt 0.069307 0.000000
vt 0.950495 0.000000
vt 0.960396 0.000000
vt 0.049505 0.000000
vt 0.455446 0.000000
vt 0.465347 0.000000
vt 0.564356 0.000000
vt 0.574257 0.000000
vt 0.514852 0.000000
vt 0.524752 0.000000
vt 0.504951 0.000000
vt 0.495050 0.000000
vt 0.534653 0.000000
vt 0.485149 0.000000
vt 0.544554 0.000000
vt 0.970297 0.000000
vt 0.039604 0.000000
vt 0.980198 0.000000
vt 0.990099 0.000000
vt 0.029703 0.000000
vt 0.475248 0.000000
vt 0.554455 0.000000
vt 0.940594 0.000000
vt 0.079208 0.000000
vt 0.009901 0.000000
vt 0.019802 0.000000
vt 0.405941 0.000000
vt 0.633663 0.000000
vt 0.333333 0.000000
vt 0.666667 0.000000
vt 0.777778 0.000000
vt 0.555556 0.000000
vt 0.444444 0.000000
vt 0.888889 0.000000
vt 0.222222 0.000000
vt 0.111111 0.000000
vt 0.490566 0.000000
vt 0.509434 0.000000
vt 0.037736 0.000000
vt 0.962264 0.000000
vt 0.018868 0.000000
vt 0.566038 0.000000
vt 0.452830 0.000000
vt 0.547170 0.000000
vt 0.471698 0.000000
vt 0.981132 0.000000
vt 0.528302 0.000000
vt 0.943396 0.000000
vt 0.056604 0.000000
vt 0.075472 0.000000
vt 0.924528 0.000000
vt 0.094340 0.000000
vt 0.905660 0.000000
vt 0.622642 0.000000
vt 0.396226 0.000000
vt 0.603774 0.000000
vt 0.415094 0.000000
vt 0.584906 0.000000
vt 0.433962 0.000000
vt 0.245283 0.000000
vt 0.264151 0.000000
vt 0.754717 0.000000
vt 0.132075 0.000000
vt 0.150943 0.000000
vt 0.867925 0.000000
vt 0.849057 0.000000
vt 0.169811 0.000000
vt 0.830189 0.000000
vt 0.188679 0.000000
vt 0.811321 0.000000
vt 0.207547 0.000000
vt 0.792453 0.000000
vt 0.226415 0.000000
vt 0.773585 0.000000
vt 0.735849 0.000000
vt 0.283019 0.000000
vt 0.716981 0.000000
vt 0.301887 0.000000
vt 0.698113 0.000000
vt 0.320755 0.000000
vt 0.679245 0.000000
vt 0.339623 0.000000
vt 0.660377 0.000000
vt 0.358491 0.000000
vt 0.113208 0.000000
vt 0.886792 0.000000
vt 0.641509 0.000000
vt 0.377358 0.000000
vt 0.357143 0.000000
vt 0.500000 0.000000
vt 0.214286 0.000000
vt 0.785714 0.000000
vt 0.071429 0.000000
vt 0.642857 0.000000
vt 0.928571 0.000000
vt 0.021505 0.000000
vt 0.032258 0.000000
vt 0.010753 0.000000
vt 0.064516 0.000000
vt 0.989247 0.000000
vt 0.053763 0.000000
vt 0.043011 0.000000
vt 0.720430 0.000000
vt 0.086022 0.000000
vt 0.978495 0.000000
vt 0.075269 0.000000
vt 0.096774 0.000000
vt 0.967742 0.000000
vt 0.752688 0.000000
vt 0.698925 0.000000
vt 0.741935 0.000000
vt 0.709677 0.000000
vt 0.731183 0.000000
vt 0.935484 0.000000
vt 0.946237 0.000000
vt 0.451613 0.000000
vt 0.774194 0.000000
vt 0.784946 0.000000
vt 0.677419 0.000000
vt 0.118280 0.000000
vt 0.107527 0.000000
vt 0.956989 0.000000
vt 0.763441 0.000000
vt 0.688172 0.000000
vt 0.376344 0.000000
vt 0.387097 0.000000
vt 0.161290 0.000000
vt 0.193548 0.000000
vt 0.204301 0.000000
vt 0.182796 0.000000
vt 0.215054 0.000000
vt 0.225806 0.000000
vt 0.236559 0.000000
vt 0.247312 0.000000
vt 0.258065 0.000000
vt 0.268817 0.000000
vt 0.279570 0.000000
vt 0.290323 0.000000
vt 0.301075 0.000000
vt 0.311828 0.000000
vt 0.172043 0.000000
vt 0.322581 0.000000
vt 0.344086 0.000000
vt 0.354839 0.000000
vt 0.365591 0.000000
vt 0.580645 0.000000
vt 0.591398 0.000000
vt 0.860215 0.000000
vt 0.150538 0.000000
vt 0.397849 0.000000
vt 0.408602 0.000000
vt 0.139785 0.000000
vt 0.419355 0.000000
vt 0.430108 0.000000
vt 0.129032 0.000000
vt 0.440860 0.000000
vt 0.462366 0.000000
vt 0.473118 0.000000
vt 0.924731 0.000000
vt 0.483871 0.000000
vt 0.494624 0.000000
vt 0.913979 0.000000
vt 0.505376 0.000000
vt 0.903226 0.000000
vt 0.516129 0.000000
vt 0.526882 0.000000
vt 0.892473 0.000000
vt 0.537634 0.000000
vt 0.548387 0.000000
vt 0.881720 0.000000
vt 0.559140 0.000000
vt 0.870968 0.000000
vt 0.569892 0.000000
vt 0.849462 0.000000
vt 0.602151 0.000000
vt 0.838710 0.000000
vt 0.612903 0.000000
vt 0.827957 0.000000
vt 0.623656 0.000000
vt 0.817204 0.000000
vt 0.634409 0.000000
vt 0.806452 0.000000
vt 0.645161 0.000000
vt 0.795699 0.000000
vt 0.655914 0.000000
vt 0.200000 0.000000
vt 0.300000 0.000000
vt 0.400000 0.000000
vt 0.100000 0.000000
vt 0.800000 0.000000
vt 0.900000 0.000000
vt 0.600000 0.000000
vt 0.700000 0.000000
s 0
usemtl Material.002
f 338/275/239 339/276/239 340/277/239
f 344/278/239 337/279/239 343/280/239
f 340/277/239 341/281/239 342/282/239
f 342/282/239 343/280/239 340/277/239
f 338/275/239 340/277/239 343/280/239
f 343/280/239 337/279/239 338/275/239
f 351/283/239 352/284/239 353/285/239
f 350/286/239 351/283/239 353/285/239
f 353/285/239 348/287/239 350/286/239
f 348/287/239 349/288/239 350/286/239
f 354/289/239 355/290/239 356/278/239
f 347/291/239 354/289/239 356/278/239
f 356/278/239 345/279/239 347/291/239
f 345/279/239 346/292/239 347/291/239
f 348/287/239 353/285/239 354/289/239
f 354/289/239 347/291/239 348/287/239
f 433/293/240 434/294/240 385/295/240
f 438/296/240 439/297/240 381/298/240
f 381/298/240 382/299/240 438/296/240
f 437/300/240 438/296/240 382/299/240
f 382/299/240 383/301/240 437/300/240
f 436/302/240 437/300/240 383/301/240
f 435/303/240 436/302/240 383/301/240
f 383/301/240 384/304/240 435/303/240
f 434/294/240 435/303/240 384/304/240
f 385/295/240 434/294/240 384/304/240
f 433/293/240 385/295/240 386/305/240
f 432/306/240 433/293/240 386/305/240
f 386/305/240 387/307/240 432/306/240
f 431/308/240 432/306/240 387/307/240
f 387/307/240 388/309/240 431/308/240
f 430/310/240 431/308/240 388/309/240
f 388/309/240 389/311/240 430/310/240
f 429/312/240 430/310/240 389/311/240
f 389/311/240 390/313/240 429/312/240
f 390/313/240 428/314/240 429/312/240
f 393/315/240 394/316/240 425/317/240
f 443/318/240 377/319/240 442/320/240
f 377/319/240 378/321/240 442/320/240
f 426/322/240 392/323/240 393/315/240
f 393/315/240 425/317/240 426/322/240
f 424/324/240 395/325/240 423/326/240
f 374/327/240 446/328/240 373/329/240
f 446/328/240 374/327/240 445/330/240
f 375/331/240 445/330/240 374/327/240
f 423/326/240 395/325/240 396/332/240
f 396/332/240 397/333/240 423/326/240
f 397/333/240 422/334/240 423/326/240
f 445/330/240 375/331/240 444/335/240
f 375/331/240 376/336/240 444/335/240
f 443/318/240 444/335/240 376/336/240
f 377/319/240 443/318/240 376/336/240
f 395/325/240 424/324/240 394/316/240
f 425/317/240 394/316/240 424/324/240
f 442/320/240 378/321/240 441/337/240
f 378/321/240 379/338/240 441/337/240
f 440/339/240 441/337/240 379/338/240
f 379/338/240 380/340/240 440/339/240
f 439/297/240 440/339/240 380/340/240
f 381/298/240 439/297/240 380/340/240
f 428/314/240 390/313/240 391/341/240
f 427/342/240 428/314/240 391/341/240
f 391/341/240 392/323/240 427/342/240
f 392/323/240 426/322/240 427/342/240
f 400/343/241 419/344/241 399/345/241
f 420/346/242 399/345/242 419/344/242
f 372/347/240 447/348/240 448/349/240
f 371/350/243 372/347/243 448/349/243
f 448/349/240 370/351/240 371/350/240
f 369/352/244 449/353/244 450/354/244
f 450/354/245 368/355/245 369/352/245
f 366/356/246 367/357/246 451/358/246
f 451/358/247 367/357/247 450/354/247
f 368/355/248 450/354/248 367/357/248
f 402/359/249 416/360/249 401/361/249
f 416/360/250 417/362/250 401/361/250
f 370/351/240 448/349/240 449/353/240
f 449/353/240 369/352/240 370/351/240
f 401/361/251 417/362/251 400/343/251
f 417/362/252 418/363/252 400/343/252
f 419/344/253 400/343/253 418/363/253
f 363/364/254 364/365/254 453/366/254
f 453/366/255 454/367/255 363/364/255
f 454/367/256 362/368/256 363/364/256
f 403/369/257 404/370/257 414/371/257
f 415/372/258 403/369/258 414/371/258
f 409/373/259 410/374/259 408/375/259
f 408/375/260 410/374/260 407/376/260
f 410/374/261 411/377/261 407/376/261
f 406/378/262 407/376/262 411/377/262
f 412/379/263 406/378/263 411/377/263
f 362/368/264 454/367/264 455/380/264
f 361/381/265 362/368/265 455/380/265
f 455/380/266 456/382/266 361/381/266
f 456/382/267 457/383/267 361/381/267
f 457/383/268 458/278/268 361/381/268
f 360/384/269 361/381/269 458/278/269
f 458/278/270 357/279/270 360/384/270
f 406/378/271 412/379/271 405/385/271
f 412/379/272 413/386/272 405/385/272
f 404/370/273 405/385/273 413/386/273
f 414/371/274 404/370/274 413/386/274
f 366/356/275 451/358/275 452/387/275
f 365/388/276 366/356/276 452/387/276
f 452/387/277 453/366/277 365/388/277
f 453/366/278 364/365/278 365/388/278
f 358/389/279 359/390/279 360/384/279
f 360/384/280 357/279/280 358/389/280
f 403/369/281 415/372/281 402/359/281
f 416/360/282 402/359/282 415/372/282
f 373/329/240 446/328/240 447/348/240
f 447/348/240 372/347/240 373/329/240
f 399/345/240 420/346/240 398/391/240
f 420/346/240 421/392/240 398/391/240
f 397/333/240 398/391/240 421/392/240
f 422/334/240 397/333/240 421/392/240
f 460/393/240 461/394/240 462/278/240
f 462/278/240 459/279/240 460/393/240
f 469/394/283 470/395/283 468/396/283
f 467/397/284 468/396/284 470/395/284
f 470/395/285 466/393/285 467/397/285
f 471/398/240 472/278/240 465/399/240
f 472/278/240 463/279/240 465/399/240
f 464/400/240 465/399/240 463/279/240
f 466/393/240 470/395/240 465/399/240
f 471/398/240 465/399/240 470/395/240
f 499/401/286 473/279/286 526/278/286
f 499/401/286 526/278/286 500/402/286
f 475/403/286 524/404/286 474/405/286
f 503/406/286 497/407/286 502/408/286
f 498/409/286 502/408/286 497/407/286
f 526/278/286 473/279/286 474/405/286
f 525/410/286 526/278/286 474/405/286
f 474/405/286 524/404/286 525/410/286
f 502/408/286 498/409/286 501/411/286
f 500/402/286 501/411/286 498/409/286
f 499/401/286 500/402/286 498/409/286
f 523/412/286 476/413/286 477/414/286
f 477/414/286 522/415/286 523/412/286
f 522/415/286 477/414/286 478/416/286
f 478/416/286 521/417/286 522/415/286
f 506/418/286 494/419/286 505/420/286
f 494/419/286 495/421/286 505/420/286
f 504/422/286 505/420/286 495/421/286
f 496/423/286 504/422/286 495/421/286
f 524/404/286 475/403/286 476/413/286
f 476/413/286 523/412/286 524/404/286
f 504/422/286 496/423/286 503/406/286
f 497/407/286 503/406/286 496/423/286
f 486/424/286 487/425/286 513/426/286
f 480/427/286 481/428/286 519/429/286
f 518/430/286 519/429/286 481/428/286
f 481/428/286 482/431/286 518/430/286
f 517/432/286 518/430/286 482/431/286
f 482/431/286 483/433/286 517/432/286
f 516/434/286 517/432/286 483/433/286
f 483/433/286 484/435/286 516/434/286
f 515/436/286 516/434/286 484/435/286
f 484/435/286 485/437/286 515/436/286
f 514/438/286 515/436/286 485/437/286
f 485/437/286 486/424/286 514/438/286
f 486/424/286 513/426/286 514/438/286
f 513/426/286 487/425/286 512/439/286
f 487/425/286 488/440/286 512/439/286
f 511/441/286 512/439/286 488/440/286
f 488/440/286 489/442/286 511/441/286
f 510/443/286 511/441/286 489/442/286
f 489/442/286 490/444/286 510/443/286
f 509/445/286 510/443/286 490/444/286
f 490/444/286 491/446/286 509/445/286
f 508/447/286 509/445/286 491/446/286
f 491/446/286 492/448/286 508/447/286
f 521/417/286 478/416/286 479/449/286
f 520/450/286 521/417/286 479/449/286
f 479/449/286 480/427/286 520/450/286
f 480/427/286 519/429/286 520/450/286
f 508/447/286 492/448/286 507/451/286
f 492/448/286 493/452/286 507/451/286
f 506/418/286 507/451/286 493/452/286
f 494/419/286 506/418/286 493/452/286
f 528/393/286 529/394/286 530/278/286
f 530/278/286 527/279/286 528/393/286
f 535/276/287 536/453/287 538/454/287
f 534/455/287 535/276/287 538/454/287
f 538/454/288 539/281/288 534/455/288
f 533/275/289 541/282/289 542/456/289
f 545/278/286 531/279/286 543/280/286
f 532/457/286 543/280/286 531/279/286
f 543/280/290 532/457/290 542/456/290
f 533/275/291 542/456/291 532/457/291
f 541/282/287 533/275/287 540/458/287
f 539/281/287 540/458/287 533/275/287
f 534/455/287 539/281/287 533/275/287
f 536/453/287 537/277/287 538/454/287
f 545/278/286 543/280/286 544/459/286
f 548/460/287 549/461/287 547/462/287
f 549/461/287 639/278/287 547/462/287
f 546/279/287 547/462/287 639/278/287
f 552/463/292 638/464/292 551/465/292
f 550/466/287 551/465/287 638/464/287
f 639/278/287 549/461/287 550/466/287
f 550/466/287 638/464/287 639/278/287
f 546/279/287 639/278/287 613/467/287
f 554/468/287 637/469/287 553/470/287
f 554/468/287 555/471/287 636/472/287
f 637/469/287 554/468/287 636/472/287
f 616/473/292 611/474/292 615/475/292
f 612/476/287 615/475/287 611/474/287
f 553/470/287 637/469/287 552/463/287
f 638/464/287 552/463/287 637/469/287
f 615/475/287 612/476/287 614/477/287
f 613/467/287 614/477/287 612/476/287
f 546/279/287 613/467/287 612/476/287
f 633/478/287 634/479/287 588/480/287
f 618/481/287 619/482/287 608/394/287
f 609/483/287 618/481/287 608/394/287
f 557/484/287 588/480/287 556/485/287
f 555/471/287 556/485/287 588/480/287
f 636/472/287 555/471/287 588/480/287
f 635/486/287 636/472/287 588/480/287
f 588/480/287 634/479/287 635/486/287
f 618/481/287 609/483/287 617/487/287
f 609/483/287 610/488/287 617/487/287
f 616/473/287 617/487/287 610/488/287
f 611/474/287 616/473/287 610/488/287
f 581/489/287 582/490/287 561/491/287
f 564/492/287 565/493/287 563/494/287
f 565/493/287 566/495/287 563/494/287
f 566/495/287 567/496/287 563/494/287
f 567/496/292 568/497/292 563/494/292
f 568/497/287 569/498/287 563/494/287
f 569/498/287 570/499/287 563/494/287
f 570/499/287 571/500/287 563/494/287
f 571/500/287 572/501/287 563/494/287
f 572/501/292 573/502/292 563/494/292
f 573/502/287 574/503/287 563/494/287
f 574/503/292 575/504/292 563/494/292
f 563/494/287 575/504/287 562/505/287
f 575/504/287 576/506/287 562/505/287
f 576/506/287 577/393/287 562/505/287
f 577/393/287 578/507/287 562/505/287
f 578/507/287 579/508/287 562/505/287
f 579/508/287 580/509/287 562/505/287
f 561/491/287 562/505/287 580/509/287
f 581/489/287 561/491/287 580/509/287
f 600/510/287 601/511/287 626/512/287
f 561/491/287 582/490/287 560/513/287
f 582/490/287 583/514/287 560/513/287
f 583/514/287 584/515/287 560/513/287
f 559/516/287 560/513/287 584/515/287
f 584/515/287 585/517/287 559/516/287
f 585/517/287 586/518/287 559/516/287
f 558/519/287 559/516/287 586/518/287
f 586/518/287 587/520/287 558/519/287
f 557/484/287 558/519/287 587/520/287
f 588/480/287 557/484/287 587/520/287
f 633/478/287 588/480/287 589/521/287
f 589/521/287 590/522/287 633/478/287
f 632/523/287 633/478/287 590/522/287
f 590/522/287 591/524/287 632/523/287
f 591/524/287 592/525/287 632/523/287
f 631/526/287 632/523/287 592/525/287
f 592/525/287 593/527/287 631/526/287
f 630/528/293 631/526/293 593/527/293
f 593/527/287 594/529/287 630/528/287
f 594/529/287 595/530/287 630/528/287
f 629/531/287 630/528/287 595/530/287
f 595/530/287 596/532/287 629/531/287
f 596/532/287 597/533/287 629/531/287
f 628/534/287 629/531/287 597/533/287
f 597/533/287 598/535/287 628/534/287
f 627/536/287 628/534/287 598/535/287
f 598/535/287 599/537/287 627/536/287
f 599/537/287 600/510/287 627/536/287
f 600/510/287 626/512/287 627/536/287
f 626/512/287 601/511/287 625/538/287
f 601/511/287 602/539/287 625/538/287
f 624/540/287 625/538/287 602/539/287
f 602/539/287 603/541/287 624/540/287
f 623/542/287 624/540/287 603/541/287
f 603/541/287 604/543/287 623/542/287
f 622/544/287 623/542/287 604/543/287
f 604/543/287 605/545/287 622/544/287
f 621/546/287 622/544/287 605/545/287
f 605/545/287 606/547/287 621/546/287
f 620/548/287 621/546/287 606/547/287
f 606/547/287 607/549/287 620/548/287
f 619/482/287 620/548/287 607/549/287
f 608/394/287 619/482/287 607/549/287
f 642/291/294 645/286/294 646/283/294
f 641/292/294 642/291/294 646/283/294
f 646/283/294 649/289/294 641/292/294
f 649/289/294 650/290/294 641/292/294
f 645/286/294 642/291/294 643/287/294
f 643/287/295 644/288/295 645/286/295
f 649/289/294 646/283/294 647/284/294
f 647/284/294 648/285/294 649/289/294
f 651/278/294 640/279/294 650/290/294
f 641/292/294 650/290/294 640/279/294
f 653/275/294 654/276/294 655/277/294
f 659/278/294 652/279/294 658/280/294
f 655/277/294 656/281/294 657/282/294
f 657/282/294 658/280/294 655/277/294
f 653/275/294 655/277/294 658/280/294
f 658/280/294 652/279/294 653/275/294
f 663/393/296 664/397/296 662/399/296
f 661/400/297 662/399/297 664/397/297
f 664/397/298 667/395/298 661/400/298
f 669/278/299 660/279/299 668/398/299
f 667/395/300 664/397/300 665/396/300
f 665/396/301 666/394/301 667/395/301
f 661/400/302 667/395/302 668/398/302
f 668/398/303 660/279/303 661/400/303
f 672/550/304 673/551/304 674/552/304
f 674/552/304 680/278/304 672/550/304
f 680/278/304 671/553/304 672/550/304
f 670/279/304 678/554/304 679/555/304
f 675/454/304 676/556/304 677/557/304
f 675/454/304 677/557/304 679/555/304
f 670/279/304 679/555/304 677/557/304
f 675/454/304 679/555/304 674/552/304
f 680/278/304 674/552/304 679/555/304
f 671/553/304 680/278/304 678/554/304
f 678/554/304 670/279/304 671/553/304
