# Blender 5.1.1
# www.blender.org
mtllib ocean-mist.mtl
o Cylinder
v 0.000000 5.598146 5.598146
v 0.000000 -5.598146 5.598146
v -1.092144 5.598146 5.490580
v -1.092144 -5.598146 5.490580
v -2.142318 5.598146 5.172013
v -2.142318 -5.598146 5.172013
v -3.110164 5.598146 4.654688
v -3.110164 -5.598146 4.654688
v -3.958487 5.598146 3.958487
v -3.958487 -5.598146 3.958487
v -4.654688 5.598146 3.110164
v -4.654688 -5.598146 3.110164
v -5.172013 5.598146 2.142318
v -5.172013 -5.598146 2.142318
v -5.490580 5.598146 1.092144
v -5.490580 -5.598146 1.092144
v -5.598146 5.598146 0.000000
v -5.598146 -5.598146 0.000000
v -5.490580 5.598146 -1.092144
v -5.490580 -5.598146 -1.092144
v -5.172013 5.598146 -2.142318
v -5.172013 -5.598146 -2.142318
v -4.654688 5.598146 -3.110164
v -4.654688 -5.598146 -3.110164
v -3.958487 5.598146 -3.958487
v -3.958487 -5.598146 -3.958487
v -3.110164 5.598146 -4.654688
v -3.110164 -5.598146 -4.654688
v -2.142318 5.598146 -5.172013
v -2.142318 -5.598146 -5.172013
v -1.092144 5.598146 -5.490580
v -1.092144 -5.598146 -5.490580
v 0.000000 5.598146 -5.598146
v 0.000000 -5.598146 -5.598146
v 1.092144 5.598146 -5.490580
v 1.092144 -5.598146 -5.490580
v 2.142318 5.598146 -5.172013
v 2.142318 -5.598146 -5.172013
v 3.110164 5.598146 -4.654688
v 3.110164 -5.598146 -4.654688
v 3.958487 5.598146 -3.958487
v 3.958487 -5.598146 -3.958487
v 4.654688 5.598146 -3.110164
v 4.654688 -5.598146 -3.110164
v 5.172013 5.598146 -2.142318
v 5.172013 -5.598146 -2.142318
v 5.490580 5.598146 -1.092144
v 5.490580 -5.598146 -1.092144
v 5.598146 5.598146 0.000000
v 5.598146 -5.598146 0.000000
v 5.490580 5.598146 1.092144
v 5.490580 -5.598146 1.092144
v 5.172013 5.598146 2.142318
v 5.172013 -5.598146 2.142318
v 4.654688 5.598146 3.110164
v 4.654688 -5.598146 3.110164
v 3.958487 5.598146 3.958487
v 3.958487 -5.598146 3.958487
v 3.110164 5.598146 4.654688
v 3.110164 -5.598146 4.654688
v 2.142318 5.598146 5.172013
v 2.142318 -5.598146 5.172013
v 1.092144 5.598146 5.490580
v 1.092144 -5.598146 5.490580
v -0.001788 5.597826 5.598146
v -0.001788 -5.598467 5.598146
v -1.093933 5.597826 5.490580
v -1.093933 -5.598467 5.490580
v -2.144106 5.597826 5.172013
v -2.144106 -5.598467 5.172013
v -3.111952 5.597826 4.654688
v -3.111952 -5.598467 4.654688
v -3.960275 5.597826 3.958487
v -3.960275 -5.598467 3.958487
v -4.656476 5.597826 3.110164
v -4.656476 -5.598467 3.110164
v -5.173801 5.597826 2.142318
v -5.173801 -5.598467 2.142318
v -5.492368 5.597826 1.092144
v -5.492368 -5.598467 1.092144
v -5.599935 5.597826 0.000000
v -5.599935 -5.598467 0.000000
v -5.492368 5.597826 -1.092144
v -5.492368 -5.598467 -1.092144
v -5.173801 5.597826 -2.142318
v -5.173801 -5.598467 -2.142318
v -4.656476 5.597826 -3.110164
v -4.656476 -5.598467 -3.110164
v -3.960275 5.597826 -3.958487
v -3.960275 -5.598467 -3.958487
v -3.111952 5.597826 -4.654688
v -3.111952 -5.598467 -4.654688
v -2.144106 5.597826 -5.172013
v -2.144106 -5.598467 -5.172013
v -1.093933 5.597826 -5.490580
v -1.093933 -5.598467 -5.490580
v -0.001788 5.597826 -5.598146
v -0.001788 -5.598467 -5.598146
v 1.090356 5.597826 -5.490580
v 1.090356 -5.598467 -5.490580
v 2.140530 5.597826 -5.172013
v 2.140530 -5.598467 -5.172013
v 3.108375 5.597826 -4.654688
v 3.108375 -5.598467 -4.654688
v 3.956699 5.597826 -3.958487
v 3.956699 -5.598467 -3.958487
v 4.652900 5.597826 -3.110164
v 4.652900 -5.598467 -3.110164
v 5.170225 5.597826 -2.142318
v 5.170225 -5.598467 -2.142318
v 5.488791 5.597826 -1.092144
v 5.488791 -5.598467 -1.092144
v 5.596358 5.597826 0.000000
v 5.596358 -5.598467 0.000000
v 5.488791 5.597826 1.092144
v 5.488791 -5.598467 1.092144
v 5.170225 5.597826 2.142318
v 5.170225 -5.598467 2.142318
v 4.652900 5.597826 3.110164
v 4.652900 -5.598467 3.110164
v 3.956699 5.597826 3.958487
v 3.956699 -5.598467 3.958487
v 3.108375 5.597826 4.654688
v 3.108375 -5.598467 4.654688
v 2.140530 5.597826 5.172013
v 2.140530 -5.598467 5.172013
v 1.090356 5.597826 5.490580
v 1.090356 -5.598467 5.490580
v -0.001788 10.416218 1.777304
v -0.348523 10.416218 1.743154
v -0.681933 10.416218 1.642015
v -0.989206 10.416218 1.477775
v -1.258532 10.416218 1.256744
v -1.479563 10.416218 0.987418
v -1.643803 10.416218 0.680145
v -1.744942 10.416218 0.346735
v -1.779092 10.416218 0.000000
v -1.744942 10.416218 -0.346735
v -1.643803 10.416218 -0.680145
v -1.479563 10.416218 -0.987417
v -1.258532 10.416218 -1.256743
v -0.989206 10.416218 -1.477774
v -0.681933 10.416218 -1.642015
v -0.348523 10.416218 -1.743153
v -0.001788 10.416218 -1.777304
v 0.344947 10.416218 -1.743153
v 0.678357 10.416218 -1.642015
v 0.985629 10.416218 -1.477774
v 1.254955 10.416218 -1.256743
v 1.475986 10.416218 -0.987417
v 1.640226 10.416218 -0.680145
v 1.741365 10.416218 -0.346735
v 1.775516 10.416218 0.000000
v 1.741365 10.416218 0.346735
v 1.640226 10.416218 0.680145
v 1.475986 10.416218 0.987418
v 1.254955 10.416218 1.256744
v 0.985629 10.416218 1.477775
v 0.678357 10.416218 1.642015
v 0.344947 10.416218 1.743154
v -0.001786 16.177183 5.684729
v -1.110822 16.177183 5.575498
v -2.177238 16.177183 5.252005
v -3.160053 16.177183 4.726679
v -4.021496 16.177183 4.019710
v -4.728466 16.177183 3.158267
v -5.253792 16.177183 2.175452
v -5.577285 16.177183 1.109035
v -5.686515 16.177183 0.000000
v -5.577285 16.177183 -1.109036
v -5.253792 16.177183 -2.175452
v -4.728466 16.177183 -3.158266
v -4.021496 16.177183 -4.019710
v -3.160053 16.177183 -4.726679
v -2.177238 16.177183 -5.252004
v -1.110822 16.177183 -5.575499
v -0.001786 16.177183 -5.684729
v 1.107249 16.177183 -5.575499
v 2.173666 16.177183 -5.252004
v 3.156480 16.177183 -4.726679
v 4.017923 16.177183 -4.019710
v 4.724892 16.177183 -3.158266
v 5.250217 16.177183 -2.175452
v 5.573711 16.177183 -1.109036
v 5.682942 16.177183 0.000000
v 5.573711 16.177183 1.109035
v 5.250217 16.177183 2.175452
v 4.724892 16.177183 3.158267
v 4.017923 16.177183 4.019710
v 3.156480 16.177183 4.726679
v 2.173666 16.177183 5.252005
v 1.107249 16.177183 5.575498
vn -0.0000 -0.6857 -0.7279
vn -0.0000 0.6857 -0.7279
vn 0.1420 -0.6857 -0.7139
vn 0.1420 0.6857 -0.7139
vn 0.2785 -0.6857 -0.6725
vn 0.2785 0.6857 -0.6725
vn 0.4044 -0.6857 -0.6052
vn 0.4044 0.6857 -0.6052
vn 0.5147 -0.6857 -0.5147
vn 0.5147 0.6857 -0.5147
vn 0.6052 -0.6857 -0.4044
vn 0.6052 0.6857 -0.4044
vn 0.6725 -0.6857 -0.2785
vn 0.6725 0.6857 -0.2785
vn 0.7139 -0.6857 -0.1420
vn 0.7139 0.6857 -0.1420
vn 0.7279 -0.6857 -0.0000
vn 0.7279 0.6857 -0.0000
vn 0.7139 -0.6857 0.1420
vn 0.7139 0.6857 0.1420
vn 0.6725 -0.6857 0.2785
vn 0.6725 0.6857 0.2785
vn 0.6052 -0.6857 0.4044
vn 0.6052 0.6857 0.4044
vn 0.5147 -0.6857 0.5147
vn 0.5147 0.6857 0.5147
vn 0.4044 -0.6857 0.6052
vn 0.4044 0.6857 0.6052
vn 0.2785 -0.6857 0.6725
vn 0.2785 0.6857 0.6725
vn 0.1420 -0.6857 0.7139
vn 0.1420 0.6857 0.7139
vn -0.0000 -0.6857 0.7279
vn -0.0000 0.6857 0.7279
vn -0.1420 -0.6857 0.7139
vn -0.1420 0.6857 0.7139
vn -0.2785 -0.6857 0.6725
vn -0.2785 0.6857 0.6725
vn -0.4044 -0.6857 0.6052
vn -0.4044 0.6857 0.6052
vn -0.5147 -0.6857 0.5147
vn -0.5147 0.6857 0.5147
vn -0.6052 -0.6857 0.4044
vn -0.6052 0.6857 0.4044
vn -0.6725 -0.6857 0.2785
vn -0.6725 0.6857 0.2785
vn -0.7139 -0.6857 0.1420
vn -0.7139 0.6857 0.1420
vn -0.7279 -0.6857 -0.0000
vn -0.7279 0.6857 -0.0000
vn -0.7139 -0.6857 -0.1420
vn -0.7139 0.6857 -0.1420
vn -0.6725 -0.6857 -0.2785
vn -0.6725 0.6857 -0.2785
vn -0.6052 -0.6857 -0.4044
vn -0.6052 0.6857 -0.4044
vn -0.5147 -0.6857 -0.5147
vn -0.5147 0.6857 -0.5147
vn -0.4044 -0.6857 -0.6052
vn -0.4044 0.6857 -0.6052
vn -0.2785 -0.6857 -0.6725
vn -0.2785 0.6857 -0.6725
vn -0.1420 -0.6857 -0.7139
vn -0.1420 0.6857 -0.7139
vn -0.0000 0.3228 0.9465
vn -0.1846 0.3228 0.9283
vn -0.3622 0.3228 0.8744
vn -0.5258 0.3228 0.7870
vn -0.6693 0.3228 0.6693
vn -0.7870 0.3228 0.5258
vn -0.8744 0.3228 0.3622
vn -0.9283 0.3228 0.1846
vn -0.9465 0.3228 -0.0000
vn -0.9283 0.3228 -0.1846
vn -0.8744 0.3228 -0.3622
vn -0.7870 0.3228 -0.5258
vn -0.6693 0.3228 -0.6693
vn -0.5258 0.3228 -0.7870
vn -0.3622 0.3228 -0.8744
vn -0.1846 0.3228 -0.9283
vn -0.0000 0.3228 -0.9465
vn 0.1846 0.3228 -0.9283
vn 0.3622 0.3228 -0.8744
vn 0.5258 0.3228 -0.7870
vn 0.6693 0.3228 -0.6693
vn 0.7870 0.3228 -0.5258
vn 0.8744 0.3228 -0.3622
vn 0.9283 0.3228 -0.1846
vn 0.9465 0.3228 -0.0000
vn 0.9283 0.3228 0.1846
vn 0.8744 0.3228 0.3622
vn 0.7870 0.3228 0.5258
vn 0.6693 0.3228 0.6693
vn 0.5258 0.3228 0.7870
vn 0.3622 0.3228 0.8744
vn 0.1846 0.3228 0.9283
vn -0.0000 0.0387 0.9993
vn -0.1949 0.0387 0.9801
vn -0.3824 0.0387 0.9232
vn -0.5552 0.0387 0.8308
vn -0.7066 0.0387 0.7066
vn -0.8308 0.0387 0.5552
vn -0.9232 0.0387 0.3824
vn -0.9801 0.0387 0.1949
vn -0.9993 0.0387 -0.0000
vn -0.9801 0.0387 -0.1949
vn -0.9232 0.0387 -0.3824
vn -0.8308 0.0387 -0.5552
vn -0.7066 0.0387 -0.7066
vn -0.5552 0.0387 -0.8308
vn -0.3824 0.0387 -0.9232
vn -0.1949 0.0387 -0.9801
vn -0.0000 0.0387 -0.9993
vn 0.1949 0.0387 -0.9801
vn 0.3824 0.0387 -0.9232
vn 0.5552 0.0387 -0.8308
vn 0.7066 0.0387 -0.7066
vn 0.8308 0.0387 -0.5552
vn 0.9232 0.0387 -0.3824
vn 0.9801 0.0387 -0.1949
vn 0.9993 0.0387 -0.0000
vn 0.9801 0.0387 0.1949
vn 0.9232 0.0387 0.3824
vn 0.8308 0.0387 0.5552
vn 0.7066 0.0387 0.7066
vn 0.5552 0.0387 0.8308
vn 0.3824 0.0387 0.9232
vn 0.1949 0.0387 0.9801
vn -0.0000 0.4469 0.8946
vn -0.1745 0.4469 0.8774
vn -0.3423 0.4469 0.8265
vn -0.4970 0.4469 0.7438
vn -0.6326 0.4469 0.6326
vn -0.7438 0.4469 0.4970
vn -0.8265 0.4469 0.3423
vn -0.8774 0.4469 0.1745
vn -0.8946 0.4469 -0.0000
vn -0.8774 0.4469 -0.1745
vn -0.8265 0.4469 -0.3423
vn -0.7438 0.4469 -0.4970
vn -0.6326 0.4469 -0.6326
vn -0.4970 0.4469 -0.7438
vn -0.3423 0.4469 -0.8265
vn -0.1745 0.4469 -0.8774
vn -0.0000 0.4469 -0.8946
vn 0.1745 0.4469 -0.8774
vn 0.3423 0.4469 -0.8265
vn 0.4970 0.4469 -0.7438
vn 0.6326 0.4469 -0.6326
vn 0.7438 0.4469 -0.4970
vn 0.8265 0.4469 -0.3423
vn 0.8774 0.4469 -0.1745
vn 0.8946 0.4469 -0.0000
vn 0.8774 0.4469 0.1745
vn 0.8265 0.4469 0.3423
vn 0.7438 0.4469 0.4970
vn 0.6326 0.4469 0.6326
vn 0.4970 0.4469 0.7438
vn 0.3423 0.4469 0.8265
vn 0.1745 0.4469 0.8774
vt 1.000000 0.500000
vt 0.968750 0.500000
vt 0.968750 1.000000
vt 1.000000 1.000000
vt 0.937500 0.500000
vt 0.937500 1.000000
vt 0.906250 0.500000
vt 0.906250 1.000000
vt 0.875000 0.500000
vt 0.875000 1.000000
vt 0.843750 0.500000
vt 0.843750 1.000000
vt 0.812500 0.500000
vt 0.812500 1.000000
vt 0.781250 0.500000
vt 0.781250 1.000000
vt 0.750000 0.500000
vt 0.750000 1.000000
vt 0.718750 0.500000
vt 0.718750 1.000000
vt 0.687500 0.500000
vt 0.687500 1.000000
vt 0.656250 0.500000
vt 0.656250 1.000000
vt 0.625000 0.500000
vt 0.625000 1.000000
vt 0.593750 0.500000
vt 0.593750 1.000000
vt 0.562500 0.500000
vt 0.562500 1.000000
vt 0.531250 0.500000
vt 0.531250 1.000000
vt 0.500000 0.500000
vt 0.500000 1.000000
vt 0.468750 0.500000
vt 0.468750 1.000000
vt 0.437500 0.500000
vt 0.437500 1.000000
vt 0.406250 0.500000
vt 0.406250 1.000000
vt 0.375000 0.500000
vt 0.375000 1.000000
vt 0.343750 0.500000
vt 0.343750 1.000000
vt 0.312500 0.500000
vt 0.312500 1.000000
vt 0.281250 0.500000
vt 0.281250 1.000000
vt 0.250000 0.500000
vt 0.250000 1.000000
vt 0.218750 0.500000
vt 0.218750 1.000000
vt 0.187500 0.500000
vt 0.187500 1.000000
vt 0.156250 0.500000
vt 0.156250 1.000000
vt 0.125000 0.500000
vt 0.125000 1.000000
vt 0.093750 0.500000
vt 0.093750 1.000000
vt 0.062500 0.500000
vt 0.062500 1.000000
vt 0.296822 0.485388
vt 0.341844 0.471731
vt 0.383337 0.449553
vt 0.419706 0.419706
vt 0.449553 0.383337
vt 0.471731 0.341844
vt 0.485388 0.296822
vt 0.490000 0.250000
vt 0.485388 0.203178
vt 0.471731 0.158156
vt 0.449553 0.116663
vt 0.419706 0.080294
vt 0.383337 0.050447
vt 0.341844 0.028269
vt 0.296822 0.014612
vt 0.250000 0.010000
vt 0.203178 0.014612
vt 0.158156 0.028269
vt 0.116663 0.050447
vt 0.080294 0.080294
vt 0.050447 0.116663
vt 0.028269 0.158156
vt 0.014612 0.203178
vt 0.010000 0.250000
vt 0.014612 0.296822
vt 0.028269 0.341844
vt 0.050447 0.383337
vt 0.080294 0.419706
vt 0.116663 0.449553
vt 0.158156 0.471731
vt 0.203178 0.485388
vt 0.250000 0.490000
vt 0.031250 0.500000
vt 0.031250 1.000000
vt 0.000000 0.500000
vt 0.000000 1.000000
vt 0.750000 0.490000
vt 0.703178 0.485388
vt 0.658156 0.471731
vt 0.616663 0.449553
vt 0.580294 0.419706
vt 0.550447 0.383337
vt 0.528269 0.341844
vt 0.514612 0.296822
vt 0.510000 0.250000
vt 0.514612 0.203178
vt 0.528269 0.158156
vt 0.550447 0.116663
vt 0.580294 0.080294
vt 0.616663 0.050447
vt 0.658156 0.028269
vt 0.703178 0.014612
vt 0.750000 0.010000
vt 0.796822 0.014612
vt 0.841844 0.028269
vt 0.883337 0.050447
vt 0.919706 0.080294
vt 0.949553 0.116663
vt 0.971731 0.158156
vt 0.985388 0.203178
vt 0.990000 0.250000
vt 0.985388 0.296822
vt 0.971731 0.341844
vt 0.949553 0.383337
vt 0.919706 0.419706
vt 0.883337 0.449553
vt 0.841844 0.471731
vt 0.796822 0.485388
s 1
usemtl Material.001
f 1/1/1 2/4/2 4/3/4 3/2/3
f 3/2/3 4/3/4 6/6/6 5/5/5
f 5/5/5 6/6/6 8/8/8 7/7/7
f 7/7/7 8/8/8 10/10/10 9/9/9
f 9/9/9 10/10/10 12/12/12 11/11/11
f 11/11/11 12/12/12 14/14/14 13/13/13
f 13/13/13 14/14/14 16/16/16 15/15/15
f 15/15/15 16/16/16 18/18/18 17/17/17
f 17/17/17 18/18/18 20/20/20 19/19/19
f 19/19/19 20/20/20 22/22/22 21/21/21
f 21/21/21 22/22/22 24/24/24 23/23/23
f 23/23/23 24/24/24 26/26/26 25/25/25
f 25/25/25 26/26/26 28/28/28 27/27/27
f 27/27/27 28/28/28 30/30/30 29/29/29
f 29/29/29 30/30/30 32/32/32 31/31/31
f 31/31/31 32/32/32 34/34/34 33/33/33
f 33/33/33 34/34/34 36/36/36 35/35/35
f 35/35/35 36/36/36 38/38/38 37/37/37
f 37/37/37 38/38/38 40/40/40 39/39/39
f 39/39/39 40/40/40 42/42/42 41/41/41
f 41/41/41 42/42/42 44/44/44 43/43/43
f 43/43/43 44/44/44 46/46/46 45/45/45
f 45/45/45 46/46/46 48/48/48 47/47/47
f 47/47/47 48/48/48 50/50/50 49/49/49
f 49/49/49 50/50/50 52/52/52 51/51/51
f 51/51/51 52/52/52 54/54/54 53/53/53
f 53/53/53 54/54/54 56/56/56 55/55/55
f 55/55/55 56/56/56 58/58/58 57/57/57
f 57/57/57 58/58/58 60/60/60 59/59/59
f 59/59/59 60/60/60 62/62/62 61/61/61
f 4/63/4 2/94/2 64/93/64 62/92/62 60/91/60 58/90/58 56/89/56 54/88/54 52/87/52 50/86/50 48/85/48 46/84/46 44/83/44 42/82/42 40/81/40 38/80/38 36/79/36 34/78/34 32/77/32 30/76/30 28/75/28 26/74/26 24/73/24 22/72/22 20/71/20 18/70/18 16/69/16 14/68/14 12/67/12 10/66/10 8/65/8 6/64/6
f 61/61/61 62/62/62 64/96/64 63/95/63
f 63/95/63 64/96/64 2/98/2 1/97/1
f 1/99/1 3/130/3 5/129/5 7/128/7 9/127/9 11/126/11 13/125/13 15/124/15 17/123/17 19/122/19 21/121/21 23/120/23 25/119/25 27/118/27 29/117/29 31/116/31 33/115/33 35/114/35 37/113/37 39/112/39 41/111/41 43/110/43 45/109/45 47/108/47 49/107/49 51/106/51 53/105/53 55/104/55 57/103/57 59/102/59 61/101/61 63/100/63
f 65/1/65 67/2/66 68/3/35 66/4/33
f 67/2/66 69/5/67 70/6/37 68/3/35
f 69/5/67 71/7/68 72/8/39 70/6/37
f 71/7/68 73/9/69 74/10/41 72/8/39
f 73/9/69 75/11/70 76/12/43 74/10/41
f 75/11/70 77/13/71 78/14/45 76/12/43
f 77/13/71 79/15/72 80/16/47 78/14/45
f 79/15/72 81/17/73 82/18/49 80/16/47
f 81/17/73 83/19/74 84/20/51 82/18/49
f 83/19/74 85/21/75 86/22/53 84/20/51
f 85/21/75 87/23/76 88/24/55 86/22/53
f 87/23/76 89/25/77 90/26/57 88/24/55
f 89/25/77 91/27/78 92/28/59 90/26/57
f 91/27/78 93/29/79 94/30/61 92/28/59
f 93/29/79 95/31/80 96/32/63 94/30/61
f 95/31/80 97/33/81 98/34/1 96/32/63
f 97/33/81 99/35/82 100/36/3 98/34/1
f 99/35/82 101/37/83 102/38/5 100/36/3
f 101/37/83 103/39/84 104/40/7 102/38/5
f 103/39/84 105/41/85 106/42/9 104/40/7
f 105/41/85 107/43/86 108/44/11 106/42/9
f 107/43/86 109/45/87 110/46/13 108/44/11
f 109/45/87 111/47/88 112/48/15 110/46/13
f 111/47/88 113/49/89 114/50/17 112/48/15
f 113/49/89 115/51/90 116/52/19 114/50/17
f 115/51/90 117/53/91 118/54/21 116/52/19
f 117/53/91 119/55/92 120/56/23 118/54/21
f 119/55/92 121/57/93 122/58/25 120/56/23
f 121/57/93 123/59/94 124/60/27 122/58/25
f 123/59/94 125/61/95 126/62/29 124/60/27
f 68/63/35 70/64/37 72/65/39 74/66/41 76/67/43 78/68/45 80/69/47 82/70/49 84/71/51 86/72/53 88/73/55 90/74/57 92/75/59 94/76/61 96/77/63 98/78/1 100/79/3 102/80/5 104/81/7 106/82/9 108/83/11 110/84/13 112/85/15 114/86/17 116/87/19 118/88/21 120/89/23 122/90/25 124/91/27 126/92/29 128/93/31 66/94/33
f 125/61/95 127/95/96 128/96/31 126/62/29
f 127/95/96 65/97/65 66/98/33 128/96/31
f 95/31/80 144/31/112 145/33/113 97/33/81
f 113/49/89 153/49/121 154/51/122 115/51/90
f 69/5/67 131/5/99 132/7/100 71/7/68
f 87/23/76 140/23/108 141/25/109 89/25/77
f 105/41/85 149/41/117 150/43/118 107/43/86
f 123/59/94 158/59/126 159/61/127 125/61/95
f 79/15/72 136/15/104 137/17/105 81/17/73
f 97/33/81 145/33/113 146/35/114 99/35/82
f 115/51/90 154/51/122 155/53/123 117/53/91
f 71/7/68 132/7/100 133/9/101 73/9/69
f 89/25/77 141/25/109 142/27/110 91/27/78
f 107/43/86 150/43/118 151/45/119 109/45/87
f 125/61/95 159/61/127 160/95/128 127/95/96
f 81/17/73 137/17/105 138/19/106 83/19/74
f 99/35/82 146/35/114 147/37/115 101/37/83
f 117/53/91 155/53/123 156/55/124 119/55/92
f 73/9/69 133/9/101 134/11/102 75/11/70
f 91/27/78 142/27/110 143/29/111 93/29/79
f 109/45/87 151/45/119 152/47/120 111/47/88
f 65/1/65 129/1/97 130/2/98 67/2/66
f 127/95/96 160/95/128 129/97/97 65/97/65
f 83/19/74 138/19/106 139/21/107 85/21/75
f 101/37/83 147/37/115 148/39/116 103/39/84
f 119/55/92 156/55/124 157/57/125 121/57/93
f 75/11/70 134/11/102 135/13/103 77/13/71
f 93/29/79 143/29/111 144/31/112 95/31/80
f 111/47/88 152/47/120 153/49/121 113/49/89
f 67/2/66 130/2/98 131/5/99 69/5/67
f 85/21/75 139/21/107 140/23/108 87/23/76
f 103/39/84 148/39/116 149/41/117 105/41/85
f 121/57/93 157/57/125 158/59/126 123/59/94
f 77/13/71 135/13/103 136/15/104 79/15/72
usemtl goldcap
f 144/31/112 176/31/144 177/33/145 145/33/113
f 161/99/129 192/100/160 191/101/159 190/102/158 189/103/157 188/104/156 187/105/155 186/106/154 185/107/153 184/108/152 183/109/151 182/110/150 181/111/149 180/112/148 179/113/147 178/114/146 177/115/145 176/116/144 175/117/143 174/118/142 173/119/141 172/120/140 171/121/139 170/122/138 169/123/137 168/124/136 167/125/135 166/126/134 165/127/133 164/128/132 163/129/131 162/130/130
f 131/5/99 163/5/131 164/7/132 132/7/100
f 158/59/126 190/59/158 191/61/159 159/61/127
f 145/33/113 177/33/145 178/35/146 146/35/114
f 132/7/100 164/7/132 165/9/133 133/9/101
f 159/61/127 191/61/159 192/95/160 160/95/128
f 146/35/114 178/35/146 179/37/147 147/37/115
f 133/9/101 165/9/133 166/11/134 134/11/102
f 160/95/128 192/95/160 161/97/129 129/97/97
f 147/37/115 179/37/147 180/39/148 148/39/116
f 134/11/102 166/11/134 167/13/135 135/13/103
f 148/39/116 180/39/148 181/41/149 149/41/117
f 135/13/103 167/13/135 168/15/136 136/15/104
f 149/41/117 181/41/149 182/43/150 150/43/118
f 136/15/104 168/15/136 169/17/137 137/17/105
f 150/43/118 182/43/150 183/45/151 151/45/119
f 137/17/105 169/17/137 170/19/138 138/19/106
f 151/45/119 183/45/151 184/47/152 152/47/120
f 138/19/106 170/19/138 171/21/139 139/21/107
f 152/47/120 184/47/152 185/49/153 153/49/121
f 139/21/107 171/21/139 172/23/140 140/23/108
f 153/49/121 185/49/153 186/51/154 154/51/122
f 140/23/108 172/23/140 173/25/141 141/25/109
f 154/51/122 186/51/154 187/53/155 155/53/123
f 141/25/109 173/25/141 174/27/142 142/27/110
f 155/53/123 187/53/155 188/55/156 156/55/124
f 142/27/110 174/27/142 175/29/143 143/29/111
f 129/1/97 161/1/129 162/2/130 130/2/98
f 156/55/124 188/55/156 189/57/157 157/57/125
f 143/29/111 175/29/143 176/31/144 144/31/112
f 130/2/98 162/2/130 163/5/131 131/5/99
f 157/57/125 189/57/157 190/59/158 158/59/126
o Plane
v 3.997144 1.052135 3.998980
v 3.996782 3.482433 3.999322
v 3.464228 0.987726 -4.436535
v 3.418070 3.418030 -4.474417
v 3.995932 0.993587 -4.000102
v 4.203329 0.999449 -3.748391
v 4.701559 1.005297 -3.140776
v 5.189867 1.011152 -2.227672
v 5.476711 1.017007 -1.330713
v 5.632805 1.022861 -0.219243
v 5.559059 1.028716 0.968000
v 5.254718 1.034571 2.062525
v 4.818688 1.040425 2.922098
v 4.423073 1.046291 3.480633
v 3.997112 1.273071 3.999010
v 3.997079 1.494007 3.999041
v 3.997046 1.714944 3.999072
v 3.997014 1.935880 3.999103
v 3.996981 2.156816 3.999134
v 3.996948 2.377752 3.999166
v 3.996915 2.598688 3.999196
v 3.996882 2.819624 3.999228
v 3.996849 3.040561 3.999259
v 3.996816 3.261497 3.999290
v 4.401440 3.476578 3.506993
v 4.808414 3.470723 2.941319
v 5.252206 3.464869 2.070806
v 5.559531 3.459013 0.963203
v 5.631030 3.453159 -0.237265
v 5.467798 3.447304 -1.360094
v 5.170013 3.441449 -2.264814
v 4.701144 3.435595 -3.141402
v 4.170399 3.429740 -3.788517
v 3.995497 3.423885 -4.000490
v 3.422266 3.197094 -4.470973
v 3.426462 2.976158 -4.467529
v 3.430658 2.755222 -4.464086
v 3.434854 2.534286 -4.460642
v 3.439050 2.313350 -4.457199
v 3.443246 2.092414 -4.453754
v 3.447442 1.871477 -4.450311
v 3.451638 1.650541 -4.446867
v 3.455834 1.429605 -4.443424
v 3.460030 1.208656 -4.439981
v 4.421104 1.267216 3.483031
v 4.817755 1.261361 2.923845
v 5.254490 1.255507 2.063278
v 5.559102 1.249652 0.967564
v 5.632643 1.243798 -0.220881
v 5.475900 1.237943 -1.333385
v 5.188063 1.232088 -2.231048
v 4.701521 1.226233 -3.140832
v 4.200336 1.220384 -3.752038
v 3.995893 1.214524 -4.000137
v 4.419138 1.488153 3.485427
v 4.816820 1.482297 2.925593
v 5.254261 1.476444 2.064031
v 5.559144 1.470588 0.967128
v 5.632483 1.464734 -0.222520
v 5.475090 1.458879 -1.336056
v 5.186257 1.453024 -2.234425
v 4.701484 1.447170 -3.140889
v 4.197343 1.441310 -3.755685
v 3.995853 1.435460 -4.000173
v 4.417172 1.709088 3.487823
v 4.815886 1.703234 2.927340
v 5.254033 1.697380 2.064783
v 5.559187 1.691525 0.966691
v 5.632321 1.685670 -0.224158
v 5.474280 1.679815 -1.338727
v 5.184452 1.673960 -2.237802
v 4.701447 1.668106 -3.140945
v 4.194349 1.662258 -3.759333
v 3.995814 1.656396 -4.000208
v 4.415205 1.930026 3.490219
v 4.814952 1.924170 2.929087
v 5.253805 1.918316 2.065536
v 5.559231 1.912460 0.966255
v 5.632160 1.906606 -0.225797
v 5.473470 1.900751 -1.341398
v 5.182648 1.894896 -2.241178
v 4.701410 1.889042 -3.141002
v 4.191355 1.883194 -3.762981
v 3.995775 1.877332 -4.000243
v 4.413239 2.150961 3.492615
v 4.814018 2.145106 2.930834
v 5.253576 2.139252 2.066289
v 5.559274 2.133397 0.965820
v 5.631998 2.127542 -0.227435
v 5.472660 2.121687 -1.344068
v 5.180842 2.115832 -2.244555
v 4.701372 2.109978 -3.141058
v 4.188362 2.104119 -3.766628
v 3.995735 2.098268 -4.000278
v 4.411272 2.371897 3.495011
v 4.813085 2.366043 2.932582
v 5.253348 2.360188 2.067042
v 5.559317 2.354333 0.965383
v 5.631837 2.348478 -0.229073
v 5.471849 2.342623 -1.346739
v 5.179038 2.336769 -2.247931
v 4.701334 2.330914 -3.141116
v 4.185369 2.325057 -3.770275
v 3.995695 2.319205 -4.000313
v 4.409306 2.592834 3.497408
v 4.812150 2.586979 2.934329
v 5.253119 2.581124 2.067795
v 5.559360 2.575269 0.964947
v 5.631675 2.569414 -0.230712
v 5.471039 2.563559 -1.349410
v 5.177233 2.557705 -2.251308
v 4.701297 2.551850 -3.141173
v 4.182374 2.546007 -3.773925
v 3.995656 2.540141 -4.000349
v 4.407339 2.813769 3.499805
v 4.811216 2.807915 2.936077
v 5.252892 2.802060 2.068547
v 5.559402 2.796205 0.964511
v 5.631515 2.790351 -0.232350
v 5.470229 2.784496 -1.352081
v 5.175428 2.778641 -2.254685
v 4.701259 2.772787 -3.141230
v 4.179379 2.766932 -3.777573
v 3.995617 2.761076 -4.000383
v 4.405372 3.034706 3.502201
v 4.810283 3.028850 2.937824
v 5.252664 3.022996 2.069299
v 5.559445 3.017142 0.964075
v 5.631353 3.011286 -0.233988
v 5.469419 3.005432 -1.354752
v 5.173623 2.999577 -2.258061
v 4.701221 2.993722 -3.141287
v 4.176386 2.987868 -3.781221
v 3.995577 2.982013 -4.000419
v 4.403406 3.255642 3.504597
v 4.809348 3.249787 2.939572
v 5.252435 3.243932 2.070053
v 5.559488 3.238078 0.963639
v 5.631192 3.232222 -0.235627
v 5.468608 3.226368 -1.357423
v 5.171819 3.220513 -2.261438
v 4.701182 3.214659 -3.141344
v 4.173392 3.208804 -3.784868
v 3.995537 3.202949 -4.000454
vn 0.6344 -0.0000 -0.7730
vn 0.6345 -0.0000 -0.7730
vn 0.7726 -0.0000 0.6349
vn 0.8158 -0.0001 0.5783
vn 0.8918 -0.0002 0.4525
vn 0.9635 0.0002 0.2679
vn 0.9981 0.0006 0.0619
vn 0.9903 0.0008 -0.1393
vn 0.9524 0.0015 -0.3050
vn 0.8818 -0.0000 -0.4716
vn 0.7733 -0.0000 -0.6341
vn 0.7718 -0.0000 -0.6359
vn 0.8154 -0.0001 0.5788
vn 0.8917 -0.0002 0.4526
vn 0.9635 0.0002 0.2678
vn 0.9981 0.0006 0.0616
vn 0.9902 0.0008 -0.1397
vn 0.9521 0.0015 -0.3057
vn 0.7717 -0.0000 -0.6360
vn 0.8150 -0.0001 0.5794
vn 0.8916 -0.0002 0.4528
vn 0.9981 0.0006 0.0614
vn 0.9901 0.0008 -0.1402
vn 0.9519 0.0014 -0.3065
vn 0.8147 -0.0001 0.5799
vn 0.8915 -0.0002 0.4530
vn 0.9635 0.0002 0.2677
vn 0.9981 0.0006 0.0612
vn 0.9901 0.0008 -0.1406
vn 0.9516 0.0014 -0.3072
vn 0.7716 -0.0000 -0.6360
vn 0.8143 -0.0001 0.5805
vn 0.8914 -0.0002 0.4531
vn 0.9981 0.0006 0.0609
vn 0.9900 0.0008 -0.1411
vn 0.9514 0.0014 -0.3079
vn 0.7732 -0.0000 -0.6341
vn 0.7716 -0.0000 -0.6361
vn 0.8139 -0.0001 0.5810
vn 0.8914 -0.0002 0.4533
vn 0.9635 0.0002 0.2676
vn 0.9982 0.0006 0.0607
vn 0.9899 0.0008 -0.1415
vn 0.9512 0.0014 -0.3087
vn 0.8135 -0.0001 0.5816
vn 0.8913 -0.0002 0.4535
vn 0.9982 0.0006 0.0605
vn 0.9899 0.0008 -0.1419
vn 0.9509 0.0014 -0.3094
vn 0.7715 -0.0000 -0.6362
vn 0.8131 -0.0001 0.5821
vn 0.8912 -0.0002 0.4536
vn 0.9635 0.0002 0.2675
vn 0.9982 0.0006 0.0603
vn 0.9898 0.0008 -0.1424
vn 0.9507 0.0014 -0.3101
vn 0.8127 -0.0001 0.5827
vn 0.8911 -0.0002 0.4538
vn 0.9636 0.0002 0.2675
vn 0.9982 0.0005 0.0600
vn 0.9898 0.0008 -0.1428
vn 0.9505 0.0014 -0.3108
vn 0.7714 -0.0000 -0.6363
vn 0.7726 -0.0000 0.6350
vn 0.8123 -0.0001 0.5832
vn 0.8910 -0.0002 0.4539
vn 0.9636 0.0002 0.2674
vn 0.9982 0.0005 0.0598
vn 0.9897 0.0008 -0.1432
vn 0.9502 0.0014 -0.3116
vn 0.7725 -0.0000 0.6350
vn 0.8119 -0.0001 0.5837
vn 0.8909 -0.0002 0.4541
vn 0.9982 0.0005 0.0596
vn 0.9896 0.0008 -0.1437
vn 0.9500 0.0013 -0.3123
vn 0.7732 -0.0000 -0.6342
vn 0.7714 -0.0000 -0.6364
vt 0.909091 0.909091
vt 1.000000 0.909091
vt 1.000000 1.000000
vt 0.909091 1.000000
vt 0.000000 0.909091
vt 0.090909 0.909091
vt 0.090909 1.000000
vt 0.000000 1.000000
vt 0.181818 0.909091
vt 0.181818 1.000000
vt 0.272727 0.909091
vt 0.272727 1.000000
vt 0.363636 0.909091
vt 0.363636 1.000000
vt 0.454545 0.909091
vt 0.454545 1.000000
vt 0.545455 0.909091
vt 0.545455 1.000000
vt 0.636364 0.909091
vt 0.636364 1.000000
vt 0.727273 0.909091
vt 0.727273 1.000000
vt 0.818182 0.909091
vt 0.818182 1.000000
vt 0.000000 0.000000
vt 0.090909 0.000000
vt 0.090909 0.090909
vt 0.000000 0.090909
vt 0.090909 0.181818
vt 0.000000 0.181818
vt 0.090909 0.272727
vt 0.000000 0.272727
vt 0.090909 0.363636
vt 0.000000 0.363636
vt 0.090909 0.454545
vt 0.000000 0.454545
vt 0.090909 0.545455
vt 0.000000 0.545455
vt 0.090909 0.636364
vt 0.000000 0.636364
vt 0.090909 0.727273
vt 0.000000 0.727273
vt 0.090909 0.818182
vt 0.000000 0.818182
vt 0.181818 0.000000
vt 0.181818 0.090909
vt 0.181818 0.181818
vt 0.181818 0.272727
vt 0.181818 0.363636
vt 0.181818 0.454545
vt 0.181818 0.545455
vt 0.181818 0.636364
vt 0.181818 0.727273
vt 0.181818 0.818182
vt 0.272727 0.000000
vt 0.272727 0.090909
vt 0.272727 0.181818
vt 0.272727 0.272727
vt 0.272727 0.363636
vt 0.272727 0.454545
vt 0.272727 0.545455
vt 0.272727 0.636364
vt 0.272727 0.727273
vt 0.272727 0.818182
vt 0.363636 0.000000
vt 0.363636 0.090909
vt 0.363636 0.181818
vt 0.363636 0.272727
vt 0.363636 0.363636
vt 0.363636 0.454545
vt 0.363636 0.545455
vt 0.363636 0.636364
vt 0.363636 0.727273
vt 0.363636 0.818182
vt 0.454545 0.000000
vt 0.454545 0.090909
vt 0.454545 0.181818
vt 0.454545 0.272727
vt 0.454545 0.363636
vt 0.454545 0.454545
vt 0.454545 0.545455
vt 0.454545 0.636364
vt 0.454545 0.727273
vt 0.454545 0.818182
vt 0.545455 0.000000
vt 0.545455 0.090909
vt 0.545455 0.181818
vt 0.545455 0.272727
vt 0.545455 0.363636
vt 0.545455 0.454545
vt 0.545455 0.545455
vt 0.545455 0.636364
vt 0.545455 0.727273
vt 0.545455 0.818182
vt 0.636364 0.000000
vt 0.636364 0.090909
vt 0.636364 0.181818
vt 0.636364 0.272727
vt 0.636364 0.363636
vt 0.636364 0.454545
vt 0.636364 0.545455
vt 0.636364 0.636364
vt 0.636364 0.727273
vt 0.636364 0.818182
vt 0.727273 0.000000
vt 0.727273 0.090909
vt 0.727273 0.181818
vt 0.727273 0.272727
vt 0.727273 0.363636
vt 0.727273 0.454545
vt 0.727273 0.545455
vt 0.727273 0.636364
vt 0.727273 0.727273
vt 0.727273 0.818182
vt 0.818182 0.000000
vt 0.818182 0.090909
vt 0.818182 0.181818
vt 0.818182 0.272727
vt 0.818182 0.363636
vt 0.818182 0.454545
vt 0.818182 0.545455
vt 0.818182 0.636364
vt 0.818182 0.727273
vt 0.818182 0.818182
vt 0.909091 0.000000
vt 0.909091 0.090909
vt 0.909091 0.181818
vt 0.909091 0.272727
vt 0.909091 0.363636
vt 0.909091 0.454545
vt 0.909091 0.545455
vt 0.909091 0.636364
vt 0.909091 0.727273
vt 0.909091 0.818182
vt 1.000000 0.000000
vt 1.000000 0.090909
vt 1.000000 0.181818
vt 1.000000 0.272727
vt 1.000000 0.363636
vt 1.000000 0.454545
vt 1.000000 0.545455
vt 1.000000 0.636364
vt 1.000000 0.727273
vt 1.000000 0.818182
s 0
usemtl Material.003
f 336/131/161 227/134/161 196/133/161 226/132/161
f 197/135/162 195/138/162 236/137/162 246/136/162
f 246/136/162 236/137/162 235/140/162 256/139/162
f 256/139/162 235/140/162 234/142/162 266/141/162
f 266/141/161 234/142/161 233/144/161 276/143/161
f 276/143/161 233/144/161 232/146/161 286/145/161
f 286/145/161 232/146/161 231/148/161 296/147/161
f 296/147/161 231/148/161 230/150/161 306/149/161
f 306/149/161 230/150/161 229/152/161 316/151/161
f 316/151/161 229/152/161 228/154/161 326/153/161
f 326/153/161 228/154/161 227/134/161 336/131/161
f 193/155/163 206/158/163 237/157/163 207/156/163
f 206/158/164 205/160/164 238/159/164 237/157/164
f 205/160/165 204/162/165 239/161/165 238/159/165
f 204/162/166 203/164/166 240/163/166 239/161/166
f 203/164/167 202/166/167 241/165/167 240/163/167
f 202/166/168 201/168/168 242/167/168 241/165/168
f 201/168/169 200/170/169 243/169/169 242/167/169
f 200/170/170 199/172/170 244/171/170 243/169/170
f 199/172/171 198/174/171 245/173/171 244/171/171
f 198/174/172 197/135/172 246/136/172 245/173/172
f 207/156/163 237/157/163 247/176/163 208/175/163
f 237/157/173 238/159/173 248/177/173 247/176/173
f 238/159/174 239/161/174 249/178/174 248/177/174
f 239/161/175 240/163/175 250/179/175 249/178/175
f 240/163/176 241/165/176 251/180/176 250/179/176
f 241/165/177 242/167/177 252/181/177 251/180/177
f 242/167/178 243/169/178 253/182/178 252/181/178
f 243/169/170 244/171/170 254/183/170 253/182/170
f 244/171/171 245/173/171 255/184/171 254/183/171
f 245/173/179 246/136/179 256/139/179 255/184/179
f 208/175/163 247/176/163 257/186/163 209/185/163
f 247/176/180 248/177/180 258/187/180 257/186/180
f 248/177/181 249/178/181 259/188/181 258/187/181
f 249/178/175 250/179/175 260/189/175 259/188/175
f 250/179/182 251/180/182 261/190/182 260/189/182
f 251/180/183 252/181/183 262/191/183 261/190/183
f 252/181/184 253/182/184 263/192/184 262/191/184
f 253/182/170 254/183/170 264/193/170 263/192/170
f 254/183/171 255/184/171 265/194/171 264/193/171
f 255/184/179 256/139/179 266/141/179 265/194/179
f 209/185/163 257/186/163 267/196/163 210/195/163
f 257/186/185 258/187/185 268/197/185 267/196/185
f 258/187/186 259/188/186 269/198/186 268/197/186
f 259/188/187 260/189/187 270/199/187 269/198/187
f 260/189/188 261/190/188 271/200/188 270/199/188
f 261/190/189 262/191/189 272/201/189 271/200/189
f 262/191/190 263/192/190 273/202/190 272/201/190
f 263/192/170 264/193/170 274/203/170 273/202/170
f 264/193/171 265/194/171 275/204/171 274/203/171
f 265/194/191 266/141/191 276/143/191 275/204/191
f 210/195/163 267/196/163 277/206/163 211/205/163
f 267/196/192 268/197/192 278/207/192 277/206/192
f 268/197/193 269/198/193 279/208/193 278/207/193
f 269/198/187 270/199/187 280/209/187 279/208/187
f 270/199/194 271/200/194 281/210/194 280/209/194
f 271/200/195 272/201/195 282/211/195 281/210/195
f 272/201/196 273/202/196 283/212/196 282/211/196
f 273/202/170 274/203/170 284/213/170 283/212/170
f 274/203/197 275/204/197 285/214/197 284/213/197
f 275/204/198 276/143/198 286/145/198 285/214/198
f 211/205/163 277/206/163 287/216/163 212/215/163
f 277/206/199 278/207/199 288/217/199 287/216/199
f 278/207/200 279/208/200 289/218/200 288/217/200
f 279/208/201 280/209/201 290/219/201 289/218/201
f 280/209/202 281/210/202 291/220/202 290/219/202
f 281/210/203 282/211/203 292/221/203 291/220/203
f 282/211/204 283/212/204 293/222/204 292/221/204
f 283/212/170 284/213/170 294/223/170 293/222/170
f 284/213/197 285/214/197 295/224/197 294/223/197
f 285/214/198 286/145/198 296/147/198 295/224/198
f 212/215/163 287/216/163 297/226/163 213/225/163
f 287/216/205 288/217/205 298/227/205 297/226/205
f 288/217/206 289/218/206 299/228/206 298/227/206
f 289/218/201 290/219/201 300/229/201 299/228/201
f 290/219/207 291/220/207 301/230/207 300/229/207
f 291/220/208 292/221/208 302/231/208 301/230/208
f 292/221/209 293/222/209 303/232/209 302/231/209
f 293/222/170 294/223/170 304/233/170 303/232/170
f 294/223/197 295/224/197 305/234/197 304/233/197
f 295/224/210 296/147/210 306/149/210 305/234/210
f 213/225/163 297/226/163 307/236/163 214/235/163
f 297/226/211 298/227/211 308/237/211 307/236/211
f 298/227/212 299/228/212 309/238/212 308/237/212
f 299/228/213 300/229/213 310/239/213 309/238/213
f 300/229/214 301/230/214 311/240/214 310/239/214
f 301/230/215 302/231/215 312/241/215 311/240/215
f 302/231/216 303/232/216 313/242/216 312/241/216
f 303/232/170 304/233/170 314/243/170 313/242/170
f 304/233/197 305/234/197 315/244/197 314/243/197
f 305/234/210 306/149/210 316/151/210 315/244/210
f 214/235/163 307/236/163 317/246/163 215/245/163
f 307/236/217 308/237/217 318/247/217 317/246/217
f 308/237/218 309/238/218 319/248/218 318/247/218
f 309/238/219 310/239/219 320/249/219 319/248/219
f 310/239/220 311/240/220 321/250/220 320/249/220
f 311/240/221 312/241/221 322/251/221 321/250/221
f 312/241/222 313/242/222 323/252/222 322/251/222
f 313/242/170 314/243/170 324/253/170 323/252/170
f 314/243/197 315/244/197 325/254/197 324/253/197
f 315/244/223 316/151/223 326/153/223 325/254/223
f 215/245/224 317/246/224 327/256/224 216/255/224
f 317/246/225 318/247/225 328/257/225 327/256/225
f 318/247/226 319/248/226 329/258/226 328/257/226
f 319/248/227 320/249/227 330/259/227 329/258/227
f 320/249/228 321/250/228 331/260/228 330/259/228
f 321/250/229 322/251/229 332/261/229 331/260/229
f 322/251/230 323/252/230 333/262/230 332/261/230
f 323/252/170 324/253/170 334/263/170 333/262/170
f 324/253/197 325/254/197 335/264/197 334/263/197
f 325/254/223 326/153/223 336/131/223 335/264/223
f 216/255/231 327/256/231 217/266/231 194/265/231
f 327/256/232 328/257/232 218/267/232 217/266/232
f 328/257/233 329/258/233 219/268/233 218/267/233
f 329/258/227 330/259/227 220/269/227 219/268/227
f 330/259/234 331/260/234 221/270/234 220/269/234
f 331/260/235 332/261/235 222/271/235 221/270/235
f 332/261/236 333/262/236 223/272/236 222/271/236
f 333/262/170 334/263/170 224/273/170 223/272/170
f 334/263/237 335/264/237 225/274/237 224/273/237
f 335/264/238 336/131/238 226/132/238 225/274/238
o Text
v 5.098263 2.494691 -2.464367
v 5.254719 2.495224 -2.168567
v 5.254855 2.421270 -2.168135
v 5.216810 2.421049 -2.242583
v 5.231122 1.921857 -2.215808
v 5.196960 1.921766 -2.279718
v 5.182649 2.420958 -2.306493
v 5.100383 2.420737 -2.460400
v 5.271102 2.462503 -2.114584
v 5.273855 2.468979 -2.105508
v 5.276649 2.474855 -2.096295
v 5.279484 2.480201 -2.086952
v 5.282353 2.484975 -2.077495
v 5.285255 2.489177 -2.067927
v 5.288186 2.492827 -2.058266
v 5.291142 2.495937 -2.048521
v 5.294121 2.498470 -2.038700
v 5.297120 2.500441 -2.028813
v 5.300134 2.501860 -2.018878
v 5.303161 2.502723 -2.008899
v 5.306198 2.503014 -1.998889
v 5.313306 2.501809 -1.975456
v 5.319991 2.498210 -1.953420
v 5.326218 2.492305 -1.932890
v 5.331957 2.484174 -1.913971
v 5.337174 2.473936 -1.896774
v 5.341836 2.461643 -1.881403
v 5.345912 2.447418 -1.867968
v 5.349368 2.431333 -1.856576
v 5.352170 2.413483 -1.847337
v 5.354288 2.393958 -1.840356
v 5.355688 2.372848 -1.835742
v 5.356337 2.350245 -1.833603
v 5.355390 2.313801 -1.836725
v 5.351989 2.282471 -1.847935
v 5.346624 2.255396 -1.865621
v 5.339784 2.231702 -1.888169
v 5.331955 2.210557 -1.913975
v 5.323630 2.191064 -1.941422
v 5.315296 2.172369 -1.968895
v 5.307441 2.153634 -1.994792
v 5.300555 2.133986 -2.017490
v 5.295126 2.112537 -2.035388
v 5.291644 2.088467 -2.046866
v 5.290597 2.060878 -2.050316
v 5.290861 2.052751 -2.049448
v 5.291471 2.044429 -2.047434
v 5.292433 2.036115 -2.044264
v 5.293749 2.027955 -2.039926
v 5.295423 2.020117 -2.034411
v 5.297454 2.012787 -2.027713
v 5.299850 2.006119 -2.019816
v 5.302611 2.000286 -2.010712
v 5.305741 1.995458 -2.000394
v 5.309243 1.991800 -1.988850
v 5.313118 1.989505 -1.976073
v 5.317374 1.988707 -1.962047
v 5.321264 1.989332 -1.949223
v 5.325094 1.991172 -1.936596
v 5.328856 1.994184 -1.924191
v 5.332546 1.998376 -1.912029
v 5.336154 2.003735 -1.900136
v 5.339673 2.010229 -1.888535
v 5.343097 2.017826 -1.877248
v 5.346419 2.026543 -1.866297
v 5.349630 2.036348 -1.855711
v 5.352725 2.047217 -1.845509
v 5.355696 2.059129 -1.835715
v 5.358535 2.072071 -1.826354
v 5.359710 1.967863 -1.822483
v 5.356458 1.959220 -1.833202
v 5.353159 1.951361 -1.844079
v 5.349805 1.944299 -1.855136
v 5.346385 1.938023 -1.866410
v 5.342892 1.932511 -1.877925
v 5.339315 1.927764 -1.889715
v 5.335648 1.923750 -1.901804
v 5.331881 1.920496 -1.914222
v 5.328005 1.917973 -1.926999
v 5.324011 1.916188 -1.940166
v 5.319890 1.915102 -1.953751
v 5.315634 1.914741 -1.967782
v 5.309335 1.916051 -1.988544
v 5.303332 1.919963 -2.008337
v 5.297669 1.926318 -2.027005
v 5.292388 1.934968 -2.044412
v 5.287536 1.945791 -2.060409
v 5.283154 1.958630 -2.074855
v 5.279287 1.973334 -2.087602
v 5.275978 1.989784 -2.098508
v 5.273273 2.007820 -2.107428
v 5.271213 2.027305 -2.114217
v 5.269845 2.048088 -2.118730
v 5.269209 2.070035 -2.120824
v 5.270095 2.111968 -2.117904
v 5.273450 2.147276 -2.106842
v 5.278786 2.176964 -2.089254
v 5.285610 2.202075 -2.066756
v 5.293433 2.223630 -2.040968
v 5.301765 2.242651 -2.013504
v 5.310112 2.260180 -1.985985
v 5.317986 2.277213 -1.960027
v 5.324895 2.294799 -1.937251
v 5.330349 2.313965 -1.919271
v 5.333858 2.335718 -1.907706
v 5.334929 2.361095 -1.904173
v 5.334604 2.370899 -1.905247
v 5.333867 2.380136 -1.907675
v 5.332743 2.388731 -1.911381
v 5.331254 2.396639 -1.916287
v 5.329422 2.403819 -1.922326
v 5.327271 2.410226 -1.929420
v 5.324822 2.415781 -1.937492
v 5.322099 2.420430 -1.946470
v 5.319122 2.424132 -1.956284
v 5.315915 2.426841 -1.966854
v 5.312501 2.428507 -1.978106
v 5.308903 2.429052 -1.989972
v 5.306169 2.428754 -1.998984
v 5.303350 2.427832 -2.008274
v 5.300456 2.426203 -2.017817
v 5.297493 2.423810 -2.027586
v 5.294466 2.420618 -2.037565
v 5.291386 2.416480 -2.047718
v 5.288257 2.411402 -2.058032
v 5.285088 2.405307 -2.068479
v 5.281886 2.398097 -2.079034
v 5.278657 2.389729 -2.089676
v 5.275411 2.380137 -2.100379
v 5.272153 2.369237 -2.111120
v 5.381829 2.495740 -1.749565
v 5.404751 2.495832 -1.674005
v 5.411209 1.922686 -1.652713
v 5.388288 1.922594 -1.728273
v 5.439366 2.495971 -1.559892
v 5.460649 2.496056 -1.489729
v 5.516394 2.260959 -1.305965
v 5.566601 2.496480 -1.140455
v 5.578109 2.496557 -1.088717
v 5.578970 1.923423 -1.079974
v 5.571657 1.923328 -1.123790
v 5.566628 2.369575 -1.140367
v 5.566160 2.369574 -1.141909
v 5.519543 2.147514 -1.295582
v 5.515801 2.147499 -1.307919
v 5.464184 2.369165 -1.478076
v 5.463717 2.369163 -1.479618
v 5.468745 1.922916 -1.463040
v 5.445824 1.922824 -1.538601
v 5.613225 2.496965 -0.732172
v 5.620809 2.497051 -0.655171
v 5.621476 2.053325 -0.648402
v 5.658893 2.497483 -0.268495
v 5.665323 2.497556 -0.203212
v 5.666184 1.924410 -0.194468
v 5.658601 1.924324 -0.271469
v 5.657938 2.365529 -0.278200
v 5.621012 1.923897 -0.653123
v 5.614087 1.923819 -0.723428
v 5.673714 2.501273 0.118022
v 5.668006 2.501337 0.175977
v 5.644262 1.925104 0.417053
v 5.652534 1.925010 0.333062
v 5.659504 2.093850 0.262299
v 5.683494 2.093576 0.018723
v 5.680528 1.924573 -0.048837
v 5.672285 1.924480 -0.132533
v 5.670845 2.375247 0.147161
v 5.680121 2.167570 0.052963
v 5.662583 2.167764 0.231026
v 5.640626 2.498286 0.453961
v 5.608612 2.498648 0.779010
v 5.609104 1.925501 0.774019
v 5.641862 1.925131 0.441411
v 5.641800 1.999086 0.442055
v 5.617147 1.999364 0.692352
v 5.616994 2.177527 0.693903
v 5.640075 2.177266 0.459565
v 5.640011 2.251220 0.460209
v 5.616931 2.251481 0.694547
v 5.616783 2.424602 0.696054
v 5.640690 2.424331 0.453317
v 5.598140 2.459268 0.885336
v 5.596247 2.467101 0.904557
v 5.594424 2.474177 0.923064
v 5.592666 2.480511 0.940916
v 5.590966 2.486117 0.958176
v 5.589319 2.491012 0.974904
v 5.587717 2.495208 0.991163
v 5.586156 2.498720 1.007013
v 5.584629 2.501565 1.022517
v 5.583131 2.503755 1.037735
v 5.581654 2.505307 1.052728
v 5.580193 2.506233 1.067558
v 5.578743 2.506549 1.082287
v 5.574396 2.503984 1.114599
v 5.563370 2.496374 1.151106
v 5.552390 2.484004 1.187301
v 5.542283 2.467134 1.220623
v 5.533124 2.446078 1.250813
v 5.524993 2.421085 1.277620
v 5.517963 2.392444 1.300791
v 5.512115 2.360452 1.320072
v 5.507523 2.325349 1.335209
v 5.504266 2.287447 1.345946
v 5.502420 2.247036 1.352030
v 5.502063 2.204363 1.353208
v 5.502910 2.173489 1.350415
v 5.504898 2.141456 1.343864
v 5.508046 2.108994 1.333486
v 5.512373 2.076832 1.319220
v 5.517899 2.045703 1.301006
v 5.524642 2.016343 1.278774
v 5.532623 1.989483 1.252463
v 5.541862 1.965853 1.222008
v 5.552376 1.946177 1.187349
v 5.564186 1.931214 1.148417
v 5.574865 1.921666 1.112768
v 5.578750 1.918282 1.082204
v 5.580905 1.918688 1.060321
v 5.582951 1.919927 1.039554
v 5.584895 1.921955 1.019820
v 5.586745 1.924727 1.001038
v 5.588509 1.928202 0.983125
v 5.590196 1.932334 0.965999
v 5.591812 1.937079 0.949579
v 5.593369 1.942394 0.933781
v 5.594872 1.948235 0.918525
v 5.596329 1.954558 0.903728
v 5.597749 1.961319 0.889308
v 5.599140 1.968474 0.875183
v 5.599063 2.058396 0.875966
v 5.597468 2.048313 0.892162
v 5.595852 2.039049 0.908570
v 5.594220 2.030612 0.925148
v 5.592574 2.023018 0.941855
v 5.590919 2.016274 0.958652
v 5.589260 2.010395 0.975498
v 5.587600 2.005391 0.992350
v 5.585944 2.001274 1.009170
v 5.584294 1.998055 1.025916
v 5.582656 1.995747 1.042547
v 5.581034 1.994361 1.059023
v 5.579430 1.993908 1.075304
v 5.576556 1.995773 1.103863
v 5.574064 2.001175 1.115802
v 5.566478 2.009933 1.140860
v 5.558767 2.021907 1.166276
v 5.551739 2.036880 1.189449
v 5.545441 2.054708 1.210208
v 5.539927 2.075219 1.228388
v 5.535245 2.098216 1.243821
v 5.531448 2.123549 1.256337
v 5.528586 2.151052 1.265771
v 5.526711 2.180530 1.271955
v 5.525872 2.211832 1.274719
v 5.526143 2.242620 1.273827
v 5.527509 2.271838 1.269326
v 5.529909 2.299262 1.261412
v 5.533285 2.324692 1.250284
v 5.537573 2.347893 1.236146
v 5.542716 2.368700 1.219193
v 5.548652 2.386867 1.199623
v 5.555321 2.402187 1.177639
v 5.562662 2.414457 1.153440
v 5.570616 2.423493 1.127220
v 5.575932 2.429043 1.107776
v 5.578724 2.430915 1.082469
v 5.580348 2.430509 1.065990
v 5.581952 2.429318 1.049694
v 5.583545 2.427329 1.033526
v 5.585130 2.424524 1.017429
v 5.586714 2.420892 1.001348
v 5.588302 2.416415 0.985228
v 5.589899 2.411081 0.969012
v 5.591511 2.404874 0.952647
v 5.593143 2.397780 0.936075
v 5.594801 2.389784 0.919241
v 5.596489 2.380872 0.902091
v 5.598216 2.371027 0.884568
v 5.306681 2.213537 1.997295
v 5.307730 2.175086 1.993837
v 5.310109 2.137754 1.985994
v 5.313766 2.101963 1.973939
v 5.318648 2.068138 1.957845
v 5.324703 2.036700 1.937885
v 5.331879 2.008074 1.914231
v 5.340121 1.982682 1.887058
v 5.349380 1.960948 1.856536
v 5.359602 1.943296 1.822839
v 5.370735 1.930148 1.786141
v 5.382725 1.921928 1.746614
v 5.395521 1.919059 1.704430
v 5.408684 1.921841 1.661035
v 5.420844 1.930007 1.620950
v 5.431967 1.943127 1.584283
v 5.442020 1.960768 1.551142
v 5.450972 1.982498 1.521635
v 5.458786 2.007886 1.495871
v 5.465434 2.036500 1.473959
v 5.470879 2.067909 1.456006
v 5.475091 2.101677 1.442121
v 5.478036 2.137389 1.432414
v 5.479681 2.174580 1.426990
v 5.479994 2.212851 1.425958
v 5.478932 2.252180 1.429461
v 5.476532 2.290091 1.437371
v 5.472848 2.326195 1.449517
v 5.467930 2.360116 1.465727
v 5.461833 2.391474 1.485831
v 5.454605 2.419889 1.509657
v 5.446301 2.444982 1.537032
v 5.436971 2.466373 1.567787
v 5.426669 2.483683 1.601748
v 5.415446 2.496532 1.638746
v 5.403354 2.504541 1.678608
v 5.390445 2.507330 1.721163
v 5.377791 2.504627 1.762877
v 5.365993 2.496669 1.801772
v 5.355102 2.483848 1.837674
v 5.345171 2.466550 1.870410
v 5.336256 2.445162 1.899802
v 5.328406 2.420074 1.925678
v 5.321676 2.391671 1.947862
v 5.316120 2.360343 1.966180
v 5.311789 2.326478 1.980457
v 5.308737 2.290464 1.990518
v 5.307017 2.252687 1.996189
v 5.330562 2.213442 1.918571
v 5.330818 2.244220 1.917727
v 5.332141 2.273389 1.913363
v 5.334475 2.300745 1.905673
v 5.337757 2.326083 1.894851
v 5.341931 2.349202 1.881092
v 5.346937 2.369894 1.864589
v 5.352717 2.387957 1.845537
v 5.359210 2.403187 1.824128
v 5.366362 2.415380 1.800557
v 5.374108 2.424331 1.775018
v 5.382393 2.429838 1.747705
v 5.391158 2.431695 1.718811
v 5.400013 2.429768 1.689620
v 5.408448 2.424196 1.661813
v 5.416402 2.415182 1.635594
v 5.423812 2.402931 1.611165
v 5.430618 2.387648 1.588731
v 5.436756 2.369538 1.568496
v 5.442165 2.348804 1.550664
v 5.446784 2.325652 1.535439
v 5.450550 2.300285 1.523024
v 5.453401 2.272908 1.513624
v 5.455276 2.243727 1.507443
v 5.456113 2.212945 1.504683
v 5.455855 2.182343 1.505534
v 5.454530 2.153289 1.509904
v 5.452194 2.125996 1.517605
v 5.448906 2.100677 1.528443
v 5.444724 2.077543 1.542229
v 5.439705 2.056808 1.558772
v 5.433909 2.038685 1.577880
v 5.427392 2.023386 1.599363
v 5.420214 2.011125 1.623030
v 5.412430 2.002114 1.648689
v 5.404099 1.996565 1.676150
v 5.395281 1.994692 1.705223
v 5.386480 1.996635 1.734235
v 5.378089 2.002249 1.761894
v 5.370172 2.011323 1.787993
v 5.362791 2.023642 1.812326
v 5.356009 2.038994 1.834686
v 5.349887 2.057163 1.854866
v 5.344489 2.077939 1.872658
v 5.339880 2.101108 1.887856
v 5.336119 2.126456 1.900253
v 5.333270 2.153769 1.909643
v 5.331397 2.182836 1.915818
vn 0.8905 -0.0010 -0.4551
vn 0.8819 -0.0000 -0.4714
vn 0.8817 0.0197 -0.4713
vn 0.8839 0.0105 -0.4675
vn 0.9569 -0.0000 -0.2903
vn 0.9570 -0.0000 -0.2902
vn 0.9569 -0.0001 -0.2903
vn 0.9771 -0.0018 -0.2128
vn 0.9761 0.0001 -0.2171
vn 0.9570 -0.0000 -0.2901
vn 0.9863 0.0050 -0.1646
vn 0.9952 -0.0000 -0.0980
vn 0.9952 -0.0000 0.0980
vn 0.9949 0.0217 -0.0980
vn 0.9558 0.1582 -0.2477
vn 0.9953 0.0367 -0.0901
vn 0.9569 -0.0000 0.2903
vn 0.9571 -0.0001 0.2898
vn 0.9919 -0.0074 0.1269
vn 0.9940 -0.0000 0.1097
vn 0.9910 0.0081 0.1340
vn 0.9578 -0.0013 0.2873
vn 0.9791 0.0021 0.2034
vn 0.9649 -0.0041 0.2626
vn 0.9573 0.0004 0.2892
vn 0.9950 0.0002 0.1001
vt 0.142857 0.000000
vt 0.285714 0.000000
vt 0.428571 0.000000
vt 1.000000 0.000000
vt 0.000000 0.000000
vt 0.857143 0.000000
vt 0.571429 0.000000
vt 0.714286 0.000000
vt 0.471074 0.000000
vt 0.479339 0.000000
vt 0.504132 0.000000
vt 0.487603 0.000000
vt 0.495868 0.000000
vt 0.528926 0.000000
vt 0.537190 0.000000
vt 0.446281 0.000000
vt 0.520661 0.000000
vt 0.454545 0.000000
vt 0.512397 0.000000
vt 0.462810 0.000000
vt 0.206612 0.000000
vt 0.214876 0.000000
vt 0.793388 0.000000
vt 0.198347 0.000000
vt 0.801653 0.000000
vt 0.190083 0.000000
vt 0.809917 0.000000
vt 0.181818 0.000000
vt 0.818182 0.000000
vt 0.173554 0.000000
vt 0.570248 0.000000
vt 0.421488 0.000000
vt 0.561983 0.000000
vt 0.586777 0.000000
vt 0.404959 0.000000
vt 0.578512 0.000000
vt 0.413223 0.000000
vt 0.603306 0.000000
vt 0.396694 0.000000
vt 0.595041 0.000000
vt 0.107438 0.000000
vt 0.884298 0.000000
vt 0.892562 0.000000
vt 0.115702 0.000000
vt 0.876033 0.000000
vt 0.247934 0.000000
vt 0.768595 0.000000
vt 0.239669 0.000000
vt 0.776860 0.000000
vt 0.132231 0.000000
vt 0.859504 0.000000
vt 0.867769 0.000000
vt 0.123967 0.000000
vt 0.553719 0.000000
vt 0.429752 0.000000
vt 0.545455 0.000000
vt 0.438017 0.000000
vt 0.231405 0.000000
vt 0.223140 0.000000
vt 0.785124 0.000000
vt 0.826446 0.000000
vt 0.165289 0.000000
vt 0.834711 0.000000
vt 0.157025 0.000000
vt 0.842975 0.000000
vt 0.148760 0.000000
vt 0.851240 0.000000
vt 0.140496 0.000000
vt 0.909091 0.000000
vt 0.099174 0.000000
vt 0.900826 0.000000
vt 0.917355 0.000000
vt 0.082645 0.000000
vt 0.090909 0.000000
vt 0.925620 0.000000
vt 0.074380 0.000000
vt 0.380165 0.000000
vt 0.388430 0.000000
vt 0.611570 0.000000
vt 0.066116 0.000000
vt 0.933884 0.000000
vt 0.057851 0.000000
vt 0.619835 0.000000
vt 0.371901 0.000000
vt 0.628099 0.000000
vt 0.363636 0.000000
vt 0.752066 0.000000
vt 0.264463 0.000000
vt 0.743802 0.000000
vt 0.991736 0.000000
vt 0.983471 0.000000
vt 0.669421 0.000000
vt 0.677686 0.000000
vt 0.322314 0.000000
vt 0.314050 0.000000
vt 0.685950 0.000000
vt 0.305785 0.000000
vt 0.694215 0.000000
vt 0.297521 0.000000
vt 0.702479 0.000000
vt 0.289256 0.000000
vt 0.710744 0.000000
vt 0.719008 0.000000
vt 0.975207 0.000000
vt 0.966942 0.000000
vt 0.008264 0.000000
vt 0.016529 0.000000
vt 0.958678 0.000000
vt 0.024793 0.000000
vt 0.636364 0.000000
vt 0.355372 0.000000
vt 0.644628 0.000000
vt 0.347107 0.000000
vt 0.652893 0.000000
vt 0.338843 0.000000
vt 0.661157 0.000000
vt 0.330579 0.000000
vt 0.280992 0.000000
vt 0.727273 0.000000
vt 0.272727 0.000000
vt 0.735537 0.000000
vt 0.950413 0.000000
vt 0.033058 0.000000
vt 0.041322 0.000000
vt 0.942149 0.000000
vt 0.049587 0.000000
vt 0.256198 0.000000
vt 0.760331 0.000000
vt 0.333333 0.000000
vt 0.666667 0.000000
vt 0.357143 0.000000
vt 0.500000 0.000000
vt 0.214286 0.000000
vt 0.785714 0.000000
vt 0.071429 0.000000
vt 0.642857 0.000000
vt 0.928571 0.000000
vt 0.777778 0.000000
vt 0.555556 0.000000
vt 0.444444 0.000000
vt 0.888889 0.000000
vt 0.222222 0.000000
vt 0.111111 0.000000
vt 0.200000 0.000000
vt 0.300000 0.000000
vt 0.400000 0.000000
vt 0.100000 0.000000
vt 0.800000 0.000000
vt 0.900000 0.000000
vt 0.600000 0.000000
vt 0.700000 0.000000
vt 0.288660 0.000000
vt 0.298969 0.000000
vt 0.711340 0.000000
vt 0.721649 0.000000
vt 0.278351 0.000000
vt 0.731959 0.000000
vt 0.268041 0.000000
vt 0.742268 0.000000
vt 0.257732 0.000000
vt 0.247423 0.000000
vt 0.752577 0.000000
vt 0.237113 0.000000
vt 0.762887 0.000000
vt 0.226804 0.000000
vt 0.773196 0.000000
vt 0.216495 0.000000
vt 0.783505 0.000000
vt 0.206186 0.000000
vt 0.793814 0.000000
vt 0.195876 0.000000
vt 0.340206 0.000000
vt 0.670103 0.000000
vt 0.329897 0.000000
vt 0.680412 0.000000
vt 0.824742 0.000000
vt 0.835052 0.000000
vt 0.164948 0.000000
vt 0.154639 0.000000
vt 0.659794 0.000000
vt 0.350515 0.000000
vt 0.649485 0.000000
vt 0.855670 0.000000
vt 0.144330 0.000000
vt 0.845361 0.000000
vt 0.371134 0.000000
vt 0.639175 0.000000
vt 0.360825 0.000000
vt 0.876289 0.000000
vt 0.123711 0.000000
vt 0.865979 0.000000
vt 0.134021 0.000000
vt 0.319588 0.000000
vt 0.690722 0.000000
vt 0.309278 0.000000
vt 0.701031 0.000000
vt 0.804124 0.000000
vt 0.185567 0.000000
vt 0.814433 0.000000
vt 0.175258 0.000000
vt 0.381443 0.000000
vt 0.618557 0.000000
vt 0.628866 0.000000
vt 0.113402 0.000000
vt 0.886598 0.000000
vt 0.103093 0.000000
vt 0.907216 0.000000
vt 0.092784 0.000000
vt 0.896907 0.000000
vt 0.391753 0.000000
vt 0.608247 0.000000
vt 0.587629 0.000000
vt 0.412371 0.000000
vt 0.422680 0.000000
vt 0.577320 0.000000
vt 0.927835 0.000000
vt 0.061856 0.000000
vt 0.917526 0.000000
vt 0.072165 0.000000
vt 0.402062 0.000000
vt 0.597938 0.000000
vt 0.082474 0.000000
vt 0.958763 0.000000
vt 0.030928 0.000000
vt 0.948454 0.000000
vt 0.041237 0.000000
vt 0.494845 0.000000
vt 0.505155 0.000000
vt 0.515464 0.000000
vt 0.989691 0.000000
vt 0.525773 0.000000
vt 0.979381 0.000000
vt 0.010309 0.000000
vt 0.556701 0.000000
vt 0.453608 0.000000
vt 0.463918 0.000000
vt 0.546392 0.000000
vt 0.474227 0.000000
vt 0.536082 0.000000
vt 0.484536 0.000000
vt 0.969072 0.000000
vt 0.020619 0.000000
vt 0.432990 0.000000
vt 0.567010 0.000000
vt 0.443299 0.000000
vt 0.938144 0.000000
vt 0.051546 0.000000
vt 0.042105 0.000000
vt 0.052632 0.000000
vt 0.968421 0.000000
vt 0.978947 0.000000
vt 0.031579 0.000000
vt 0.989474 0.000000
vt 0.021053 0.000000
vt 0.010526 0.000000
vt 0.505263 0.000000
vt 0.494737 0.000000
vt 0.515789 0.000000
vt 0.484211 0.000000
vt 0.526316 0.000000
vt 0.473684 0.000000
vt 0.536842 0.000000
vt 0.463158 0.000000
vt 0.547368 0.000000
vt 0.452632 0.000000
vt 0.094737 0.000000
vt 0.926316 0.000000
vt 0.084211 0.000000
vt 0.936842 0.000000
vt 0.578947 0.000000
vt 0.589474 0.000000
vt 0.421053 0.000000
vt 0.410526 0.000000
vt 0.915789 0.000000
vt 0.105263 0.000000
vt 0.905263 0.000000
vt 0.610526 0.000000
vt 0.894737 0.000000
vt 0.126316 0.000000
vt 0.884211 0.000000
vt 0.115789 0.000000
vt 0.621053 0.000000
vt 0.389474 0.000000
vt 0.073684 0.000000
vt 0.947368 0.000000
vt 0.063158 0.000000
vt 0.957895 0.000000
vt 0.557895 0.000000
vt 0.442105 0.000000
vt 0.568421 0.000000
vt 0.431579 0.000000
vt 0.378947 0.000000
vt 0.631579 0.000000
vt 0.642105 0.000000
vt 0.368421 0.000000
vt 0.147368 0.000000
vt 0.852632 0.000000
vt 0.863158 0.000000
vt 0.357895 0.000000
vt 0.652632 0.000000
vt 0.663158 0.000000
vt 0.136842 0.000000
vt 0.873684 0.000000
vt 0.842105 0.000000
vt 0.157895 0.000000
vt 0.168421 0.000000
vt 0.831579 0.000000
vt 0.673684 0.000000
vt 0.684211 0.000000
vt 0.336842 0.000000
vt 0.347368 0.000000
vt 0.210526 0.000000
vt 0.789474 0.000000
vt 0.221053 0.000000
vt 0.778947 0.000000
vt 0.231579 0.000000
vt 0.768421 0.000000
vt 0.242105 0.000000
vt 0.757895 0.000000
vt 0.252632 0.000000
vt 0.263158 0.000000
vt 0.747368 0.000000
vt 0.273684 0.000000
vt 0.736842 0.000000
vt 0.284211 0.000000
vt 0.726316 0.000000
vt 0.294737 0.000000
vt 0.715789 0.000000
vt 0.305263 0.000000
vt 0.178947 0.000000
vt 0.821053 0.000000
vt 0.189474 0.000000
vt 0.810526 0.000000
vt 0.705263 0.000000
vt 0.315789 0.000000
vt 0.694737 0.000000
vt 0.326316 0.000000
s 0
usemtl Material.002
f 338/275/239 339/276/239 340/277/239
f 344/278/240 337/279/240 343/280/240
f 340/277/240 341/281/240 342/282/240
f 342/282/240 343/280/240 340/277/240
f 338/275/241 340/277/241 343/280/241
f 343/280/242 337/279/242 338/275/242
f 402/283/243 403/284/243 406/285/243
f 403/284/243 404/286/243 406/285/243
f 405/287/243 406/285/243 404/286/243
f 409/288/243 410/289/243 399/290/243
f 409/288/243 399/290/243 408/291/243
f 399/290/243 400/292/243 408/291/243
f 407/293/244 408/291/244 400/292/244
f 400/292/243 401/294/243 407/293/243
f 406/285/243 407/293/243 401/294/243
f 402/283/243 406/285/243 401/294/243
f 370/295/243 371/296/243 441/297/243
f 369/298/243 370/295/243 441/297/243
f 441/297/243 442/299/243 369/298/243
f 368/300/243 369/298/243 442/299/243
f 442/299/243 443/301/243 368/300/243
f 367/302/243 368/300/243 443/301/243
f 443/301/243 444/303/243 367/302/243
f 366/304/243 367/302/243 444/303/243
f 414/305/243 396/306/243 413/307/243
f 416/308/243 394/309/243 415/310/243
f 394/309/243 395/311/243 415/310/243
f 418/312/243 393/313/243 417/314/243
f 358/315/243 452/316/243 453/317/243
f 394/309/243 416/308/243 417/314/243
f 417/314/243 393/313/243 394/309/243
f 359/318/243 451/319/243 452/316/243
f 452/316/243 358/315/243 359/318/243
f 415/310/243 395/311/243 414/305/243
f 396/306/243 414/305/243 395/311/243
f 375/320/243 438/321/243 374/322/243
f 439/323/243 374/322/243 438/321/243
f 361/324/243 449/325/243 450/326/243
f 360/327/243 361/324/243 450/326/243
f 450/326/243 451/319/243 360/327/243
f 451/319/243 359/318/243 360/327/243
f 413/307/243 396/306/243 412/328/243
f 396/306/243 397/329/243 412/328/243
f 411/330/243 412/328/243 397/329/243
f 397/329/243 398/331/243 411/330/243
f 410/289/243 411/330/243 398/331/243
f 399/290/243 410/289/243 398/331/243
f 374/322/243 439/323/243 373/332/243
f 372/333/243 373/332/243 439/323/243
f 439/323/243 440/334/243 372/333/243
f 371/296/243 372/333/243 440/334/243
f 441/297/243 371/296/243 440/334/243
f 366/304/243 444/303/243 445/335/243
f 365/336/243 366/304/243 445/335/243
f 445/335/243 446/337/243 365/336/243
f 364/338/243 365/336/243 446/337/243
f 446/337/243 447/339/243 364/338/243
f 363/340/243 364/338/243 447/339/243
f 447/339/244 448/341/244 363/340/244
f 362/342/243 363/340/243 448/341/243
f 448/341/243 449/325/243 362/342/243
f 449/325/243 361/324/243 362/342/243
f 455/343/243 357/344/243 454/345/243
f 456/346/243 355/347/243 356/348/243
f 457/349/244 354/350/244 456/346/244
f 355/347/243 456/346/243 354/350/243
f 391/351/243 392/352/243 419/353/243
f 456/346/243 356/348/243 455/343/243
f 357/344/243 455/343/243 356/348/243
f 353/354/243 458/355/243 352/356/243
f 391/351/244 419/353/244 420/357/244
f 390/358/243 391/351/243 420/357/243
f 420/357/243 421/359/243 390/358/243
f 421/359/243 389/360/243 390/358/243
f 436/361/243 377/362/243 435/363/243
f 458/355/243 353/354/243 457/349/243
f 354/350/243 457/349/243 353/354/243
f 465/364/243 466/278/243 345/279/243
f 464/365/243 465/364/243 345/279/243
f 426/366/243 427/367/243 384/368/243
f 383/369/243 384/368/243 427/367/243
f 427/367/243 428/370/243 383/369/243
f 382/371/245 383/369/245 428/370/245
f 428/370/243 429/372/243 382/371/243
f 381/373/243 382/371/243 429/372/243
f 429/372/243 430/374/243 381/373/243
f 380/375/243 381/373/243 430/374/243
f 430/374/243 431/376/243 380/375/243
f 431/376/243 432/377/243 380/375/243
f 464/365/243 345/279/243 463/378/243
f 462/379/243 463/378/243 345/279/243
f 345/279/243 346/380/243 462/379/243
f 346/380/243 347/381/243 462/379/243
f 461/382/243 462/379/243 347/381/243
f 348/383/243 461/382/243 347/381/243
f 389/360/243 421/359/243 422/384/243
f 388/385/244 389/360/244 422/384/244
f 422/384/243 423/386/243 388/385/243
f 387/387/243 388/385/243 423/386/243
f 423/386/243 424/388/243 387/387/243
f 386/389/243 387/387/243 424/388/243
f 424/388/243 425/390/243 386/389/243
f 385/391/243 386/389/243 425/390/243
f 425/390/243 426/366/243 385/391/243
f 426/366/243 384/368/243 385/391/243
f 380/375/243 432/377/243 379/392/243
f 432/377/243 433/393/243 379/392/243
f 378/394/243 379/392/243 433/393/243
f 433/393/243 434/395/243 378/394/243
f 377/362/243 378/394/243 434/395/243
f 435/363/243 377/362/243 434/395/243
f 461/382/243 348/383/243 460/396/243
f 348/383/243 349/397/243 460/396/243
f 349/397/243 350/398/243 460/396/243
f 459/399/243 460/396/243 350/398/243
f 350/398/243 351/400/243 459/399/243
f 458/355/243 459/399/243 351/400/243
f 352/356/243 458/355/243 351/400/243
f 419/353/243 392/352/243 418/312/243
f 393/313/243 418/312/243 392/352/243
f 377/362/243 436/361/243 376/401/243
f 436/361/243 437/402/243 376/401/243
f 375/320/243 376/401/243 437/402/243
f 438/321/243 375/320/243 437/402/243
f 358/315/243 453/317/243 454/345/243
f 454/345/243 357/344/243 358/315/243
f 468/403/243 469/404/243 470/278/243
f 470/278/243 467/279/243 468/403/243
f 475/276/246 476/405/246 478/406/246
f 474/407/247 475/276/247 478/406/247
f 478/406/244 479/281/244 474/407/244
f 473/275/243 481/282/243 482/408/243
f 485/278/243 471/279/243 483/280/243
f 472/409/243 483/280/243 471/279/243
f 483/280/248 472/409/248 482/408/248
f 473/275/243 482/408/243 472/409/243
f 481/282/243 473/275/243 480/410/243
f 479/281/243 480/410/243 473/275/243
f 474/407/243 479/281/243 473/275/243
f 476/405/249 477/277/249 478/406/249
f 485/278/243 483/280/243 484/411/243
f 492/404/250 493/412/250 491/413/250
f 490/414/250 491/413/250 493/412/250
f 493/412/250 489/403/250 490/414/250
f 494/415/250 495/278/250 488/416/250
f 495/278/250 486/279/250 488/416/250
f 487/417/250 488/416/250 486/279/250
f 489/403/250 493/412/250 488/416/250
f 494/415/250 488/416/250 493/412/250
f 498/418/251 499/419/251 500/420/251
f 500/420/251 506/278/251 498/418/251
f 506/278/251 497/421/251 498/418/251
f 496/279/251 504/422/251 505/423/251
f 501/406/252 502/424/252 503/425/252
f 501/406/253 503/425/253 505/423/253
f 496/279/254 505/423/254 503/425/254
f 501/406/251 505/423/251 500/420/251
f 506/278/251 500/420/251 505/423/251
f 497/421/251 506/278/251 504/422/251
f 504/422/251 496/279/251 497/421/251
f 509/302/251 512/292/251 513/330/251
f 508/348/251 509/302/251 513/330/251
f 513/330/251 516/303/251 508/348/251
f 516/303/251 517/343/251 508/348/251
f 512/292/251 509/302/251 510/394/251
f 510/394/251 511/360/251 512/292/251
f 516/303/251 513/330/251 514/384/251
f 514/384/251 515/393/251 516/303/251
f 518/278/251 507/279/251 517/343/251
f 508/348/251 517/343/251 507/279/251
f 547/426/255 548/427/255 588/428/255
f 588/428/255 589/429/255 547/426/255
f 546/430/255 547/426/255 589/429/255
f 589/429/255 590/431/255 546/430/255
f 545/432/255 546/430/255 590/431/255
f 590/431/255 591/433/255 545/432/255
f 544/434/255 545/432/255 591/433/255
f 543/435/255 544/434/255 591/433/255
f 591/433/255 592/436/255 543/435/255
f 542/437/255 543/435/255 592/436/255
f 592/436/255 593/438/255 542/437/255
f 541/439/255 542/437/255 593/438/255
f 593/438/255 594/440/255 541/439/255
f 540/441/255 541/439/255 594/440/255
f 594/440/255 595/442/255 540/441/255
f 539/443/255 540/441/255 595/442/255
f 595/442/255 596/444/255 539/443/255
f 538/445/255 539/443/255 596/444/255
f 552/446/255 584/447/255 551/448/255
f 584/447/255 585/449/255 551/448/255
f 599/450/255 600/451/255 535/452/255
f 600/451/255 534/453/255 535/452/255
f 583/454/256 553/455/256 582/456/256
f 602/457/255 533/458/255 601/459/255
f 555/460/257 581/461/257 554/462/257
f 604/463/258 531/464/258 603/465/258
f 532/466/259 603/465/259 531/464/259
f 582/456/260 553/455/260 554/462/260
f 554/462/261 581/461/261 582/456/261
f 603/465/262 532/466/262 602/457/262
f 533/458/263 602/457/263 532/466/263
f 553/455/255 583/454/255 552/446/255
f 584/447/255 552/446/255 583/454/255
f 534/453/255 600/451/255 601/459/255
f 601/459/255 533/458/255 534/453/255
f 551/448/255 585/449/255 550/467/255
f 585/449/255 586/468/255 550/467/255
f 549/469/255 550/467/255 586/468/255
f 586/468/255 587/470/255 549/469/255
f 548/427/255 549/469/255 587/470/255
f 588/428/255 548/427/255 587/470/255
f 538/445/255 596/444/255 597/471/255
f 537/472/255 538/445/255 597/471/255
f 597/471/255 598/473/255 537/472/255
f 536/474/255 537/472/255 598/473/255
f 598/473/255 599/450/255 536/474/255
f 599/450/255 535/452/255 536/474/255
f 556/475/251 579/476/251 580/477/251
f 530/478/251 605/479/251 529/480/251
f 607/481/251 528/482/251 606/483/251
f 579/476/251 556/475/251 557/484/251
f 557/484/251 578/485/251 579/476/251
f 529/480/251 605/479/251 606/483/251
f 606/483/251 528/482/251 529/480/251
f 576/486/251 559/487/251 560/488/251
f 560/488/251 575/489/251 576/486/251
f 609/490/251 525/491/251 608/492/251
f 526/493/251 608/492/251 525/491/251
f 578/485/251 557/484/251 558/494/251
f 577/495/251 578/485/251 558/494/251
f 558/494/251 559/487/251 577/495/251
f 559/487/251 576/486/251 577/495/251
f 608/492/251 526/493/251 607/481/251
f 526/493/251 527/496/251 607/481/251
f 528/482/251 607/481/251 527/496/251
f 612/497/251 522/498/251 611/499/251
f 523/500/251 611/499/251 522/498/251
f 567/501/251 568/502/251 569/503/251
f 616/278/251 519/279/251 615/504/251
f 567/501/251 569/503/251 570/505/251
f 615/504/251 519/279/251 614/506/251
f 520/507/251 614/506/251 519/279/251
f 573/508/251 563/509/251 564/510/251
f 572/511/251 573/508/251 564/510/251
f 564/510/251 565/512/251 572/511/251
f 571/513/251 572/511/251 565/512/251
f 565/512/251 566/514/251 571/513/251
f 566/514/251 567/501/251 571/513/251
f 567/501/251 570/505/251 571/513/251
f 614/506/251 520/507/251 613/515/251
f 520/507/251 521/516/251 613/515/251
f 612/497/251 613/515/251 521/516/251
f 522/498/251 612/497/251 521/516/251
f 575/489/251 560/488/251 561/517/251
f 574/518/251 575/489/251 561/517/251
f 561/517/251 562/519/251 574/518/251
f 562/519/251 563/509/251 574/518/251
f 563/509/251 573/508/251 574/518/251
f 611/499/251 523/500/251 610/520/251
f 523/500/251 524/521/251 610/520/251
f 609/490/251 610/520/251 524/521/251
f 525/491/251 609/490/251 524/521/251
f 556/475/251 580/477/251 555/460/251
f 581/461/264 555/460/264 580/477/264
f 605/479/251 530/478/251 604/463/251
f 531/464/251 604/463/251 530/478/251
f 621/522/255 622/523/255 709/524/255
f 709/524/255 710/525/255 621/522/255
f 620/526/255 621/522/255 710/525/255
f 710/525/255 711/527/255 620/526/255
f 619/528/255 620/526/255 711/527/255
f 711/527/255 712/278/255 619/528/255
f 618/529/255 619/528/255 712/278/255
f 712/278/255 665/530/255 618/529/255
f 617/279/255 618/529/255 665/530/255
f 664/531/255 617/279/255 665/530/255
f 665/530/255 666/532/255 664/531/255
f 663/533/255 664/531/255 666/532/255
f 666/532/255 667/534/255 663/533/255
f 662/535/255 663/533/255 667/534/255
f 667/534/255 668/536/255 662/535/255
f 661/537/255 662/535/255 668/536/255
f 668/536/255 669/538/255 661/537/255
f 660/539/255 661/537/255 669/538/255
f 626/540/255 705/541/255 625/542/255
f 705/541/255 706/543/255 625/542/255
f 672/544/255 673/545/255 657/546/255
f 673/545/255 656/547/255 657/546/255
f 704/548/255 627/549/255 703/550/255
f 675/551/255 655/420/255 674/424/255
f 702/552/255 629/553/255 701/554/255
f 629/553/255 702/552/255 628/555/255
f 703/550/255 627/549/255 628/555/255
f 628/555/255 702/552/255 703/550/255
f 676/556/255 654/557/255 675/551/255
f 655/420/255 675/551/255 654/557/255
f 627/549/255 704/548/255 626/540/255
f 705/541/255 626/540/255 704/548/255
f 656/547/255 673/545/255 674/424/255
f 674/424/255 655/420/255 656/547/255
f 625/542/255 706/543/255 624/558/255
f 706/543/255 707/559/255 624/558/255
f 623/560/255 624/558/255 707/559/255
f 707/559/255 708/561/255 623/560/255
f 622/523/255 623/560/255 708/561/255
f 709/524/255 622/523/255 708/561/255
f 660/539/255 669/538/255 670/562/255
f 659/563/255 660/539/255 670/562/255
f 670/562/255 671/564/255 659/563/255
f 658/565/255 659/563/255 671/564/255
f 671/564/255 672/544/255 658/565/255
f 672/544/255 657/546/255 658/565/255
f 653/566/255 677/567/255 678/568/255
f 653/566/255 678/568/255 652/569/255
f 631/570/255 698/571/255 699/572/255
f 651/573/255 679/574/255 680/575/255
f 631/570/255 699/572/255 630/576/255
f 700/577/255 630/576/255 699/572/255
f 652/569/255 678/568/255 679/574/255
f 679/574/255 651/573/255 652/569/255
f 697/578/255 632/579/255 633/580/255
f 696/581/255 697/578/255 633/580/255
f 681/582/255 682/583/255 649/584/255
f 650/585/255 681/582/255 649/584/255
f 698/571/255 631/570/255 632/579/255
f 632/579/255 697/578/255 698/571/255
f 681/582/255 650/585/255 680/575/255
f 651/573/255 680/575/255 650/585/255
f 636/418/255 637/586/255 693/422/255
f 692/587/255 693/422/255 637/586/255
f 637/586/255 638/588/255 692/587/255
f 691/589/255 692/587/255 638/588/255
f 638/588/255 639/590/255 691/589/255
f 690/591/255 691/589/255 639/590/255
f 639/590/255 640/592/255 690/591/255
f 689/593/255 690/591/255 640/592/255
f 640/592/255 641/594/255 689/593/255
f 641/594/255 642/595/255 689/593/255
f 688/596/255 689/593/255 642/595/255
f 642/595/255 643/597/255 688/596/255
f 687/598/255 688/596/255 643/597/255
f 643/597/255 644/599/255 687/598/255
f 686/600/255 687/598/255 644/599/255
f 644/599/255 645/601/255 686/600/255
f 685/602/255 686/600/255 645/601/255
f 645/601/255 646/603/255 685/602/255
f 696/581/255 633/580/255 634/604/255
f 695/605/255 696/581/255 634/604/255
f 634/604/255 635/606/255 695/605/255
f 694/607/255 695/605/255 635/606/255
f 635/606/255 636/418/255 694/607/255
f 636/418/255 693/422/255 694/607/255
f 685/602/255 646/603/255 684/608/255
f 646/603/255 647/609/255 684/608/255
f 683/610/255 684/608/255 647/609/255
f 647/609/255 648/611/255 683/610/255
f 682/583/255 683/610/255 648/611/255
f 649/584/255 682/583/255 648/611/255
f 630/576/255 700/577/255 629/553/255
f 701/554/255 629/553/255 700/577/255
f 677/567/255 653/566/255 676/556/255
f 654/557/255 676/556/255 653/566/255
