# Blender 5.1.1
# www.blender.org
mtllib rose-bloom.mtl
o Cylinder
v 0.000000 5.598146 5.598146
v 0.000000 -5.598146 5.598146
v -1.092144 5.598146 5.490580
v -1.092144 -5.598146 5.490580
v -2.142318 5.598146 5.172013
v -2.142318 -5.598146 5.172013
v -3.110164 5.598146 4.654688
v -3.110164 -5.598146 4.654688
v -3.958487 5.598146 3.958487
v -3.958487 -5.598146 3.958487
v -4.654688 5.598146 3.110164
v -4.654688 -5.598146 3.110164
v -5.172013 5.598146 2.142318
v -5.172013 -5.598146 2.142318
v -5.490580 5.598146 1.092144
v -5.490580 -5.598146 1.092144
v -5.598146 5.598146 0.000000
v -5.598146 -5.598146 0.000000
v -5.490580 5.598146 -1.092144
v -5.490580 -5.598146 -1.092144
v -5.172013 5.598146 -2.142318
v -5.172013 -5.598146 -2.142318
v -4.654688 5.598146 -3.110164
v -4.654688 -5.598146 -3.110164
v -3.958487 5.598146 -3.958487
v -3.958487 -5.598146 -3.958487
v -3.110164 5.598146 -4.654688
v -3.110164 -5.598146 -4.654688
v -2.142318 5.598146 -5.172013
v -2.142318 -5.598146 -5.172013
v -1.092144 5.598146 -5.490580
v -1.092144 -5.598146 -5.490580
v 0.000000 5.598146 -5.598146
v 0.000000 -5.598146 -5.598146
v 1.092144 5.598146 -5.490580
v 1.092144 -5.598146 -5.490580
v 2.142318 5.598146 -5.172013
v 2.142318 -5.598146 -5.172013
v 3.110164 5.598146 -4.654688
v 3.110164 -5.598146 -4.654688
v 3.958487 5.598146 -3.958487
v 3.958487 -5.598146 -3.958487
v 4.654688 5.598146 -3.110164
v 4.654688 -5.598146 -3.110164
v 5.172013 5.598146 -2.142318
v 5.172013 -5.598146 -2.142318
v 5.490580 5.598146 -1.092144
v 5.490580 -5.598146 -1.092144
v 5.598146 5.598146 0.000000
v 5.598146 -5.598146 0.000000
v 5.490580 5.598146 1.092144
v 5.490580 -5.598146 1.092144
v 5.172013 5.598146 2.142318
v 5.172013 -5.598146 2.142318
v 4.654688 5.598146 3.110164
v 4.654688 -5.598146 3.110164
v 3.958487 5.598146 3.958487
v 3.958487 -5.598146 3.958487
v 3.110164 5.598146 4.654688
v 3.110164 -5.598146 4.654688
v 2.142318 5.598146 5.172013
v 2.142318 -5.598146 5.172013
v 1.092144 5.598146 5.490580
v 1.092144 -5.598146 5.490580
v -0.001788 5.597826 5.598146
v -0.001788 -5.598467 5.598146
v -1.093933 5.597826 5.490580
v -1.093933 -5.598467 5.490580
v -2.144106 5.597826 5.172013
v -2.144106 -5.598467 5.172013
v -3.111952 5.597826 4.654688
v -3.111952 -5.598467 4.654688
v -3.960275 5.597826 3.958487
v -3.960275 -5.598467 3.958487
v -4.656476 5.597826 3.110164
v -4.656476 -5.598467 3.110164
v -5.173801 5.597826 2.142318
v -5.173801 -5.598467 2.142318
v -5.492368 5.597826 1.092144
v -5.492368 -5.598467 1.092144
v -5.599935 5.597826 0.000000
v -5.599935 -5.598467 0.000000
v -5.492368 5.597826 -1.092144
v -5.492368 -5.598467 -1.092144
v -5.173801 5.597826 -2.142318
v -5.173801 -5.598467 -2.142318
v -4.656476 5.597826 -3.110164
v -4.656476 -5.598467 -3.110164
v -3.960275 5.597826 -3.958487
v -3.960275 -5.598467 -3.958487
v -3.111952 5.597826 -4.654688
v -3.111952 -5.598467 -4.654688
v -2.144106 5.597826 -5.172013
v -2.144106 -5.598467 -5.172013
v -1.093933 5.597826 -5.490580
v -1.093933 -5.598467 -5.490580
v -0.001788 5.597826 -5.598146
v -0.001788 -5.598467 -5.598146
v 1.090356 5.597826 -5.490580
v 1.090356 -5.598467 -5.490580
v 2.140530 5.597826 -5.172013
v 2.140530 -5.598467 -5.172013
v 3.108375 5.597826 -4.654688
v 3.108375 -5.598467 -4.654688
v 3.956699 5.597826 -3.958487
v 3.956699 -5.598467 -3.958487
v 4.652900 5.597826 -3.110164
v 4.652900 -5.598467 -3.110164
v 5.170225 5.597826 -2.142318
v 5.170225 -5.598467 -2.142318
v 5.488791 5.597826 -1.092144
v 5.488791 -5.598467 -1.092144
v 5.596358 5.597826 0.000000
v 5.596358 -5.598467 0.000000
v 5.488791 5.597826 1.092144
v 5.488791 -5.598467 1.092144
v 5.170225 5.597826 2.142318
v 5.170225 -5.598467 2.142318
v 4.652900 5.597826 3.110164
v 4.652900 -5.598467 3.110164
v 3.956699 5.597826 3.958487
v 3.956699 -5.598467 3.958487
v 3.108375 5.597826 4.654688
v 3.108375 -5.598467 4.654688
v 2.140530 5.597826 5.172013
v 2.140530 -5.598467 5.172013
v 1.090356 5.597826 5.490580
v 1.090356 -5.598467 5.490580
v -0.001788 10.416218 1.777304
v -0.348523 10.416218 1.743154
v -0.681933 10.416218 1.642015
v -0.989206 10.416218 1.477775
v -1.258532 10.416218 1.256744
v -1.479563 10.416218 0.987418
v -1.643803 10.416218 0.680145
v -1.744942 10.416218 0.346735
v -1.779092 10.416218 0.000000
v -1.744942 10.416218 -0.346735
v -1.643803 10.416218 -0.680145
v -1.479563 10.416218 -0.987417
v -1.258532 10.416218 -1.256743
v -0.989206 10.416218 -1.477774
v -0.681933 10.416218 -1.642015
v -0.348523 10.416218 -1.743153
v -0.001788 10.416218 -1.777304
v 0.344947 10.416218 -1.743153
v 0.678357 10.416218 -1.642015
v 0.985629 10.416218 -1.477774
v 1.254955 10.416218 -1.256743
v 1.475986 10.416218 -0.987417
v 1.640226 10.416218 -0.680145
v 1.741365 10.416218 -0.346735
v 1.775516 10.416218 0.000000
v 1.741365 10.416218 0.346735
v 1.640226 10.416218 0.680145
v 1.475986 10.416218 0.987418
v 1.254955 10.416218 1.256744
v 0.985629 10.416218 1.477775
v 0.678357 10.416218 1.642015
v 0.344947 10.416218 1.743154
v -0.001786 16.177183 5.684729
v -1.110822 16.177183 5.575498
v -2.177238 16.177183 5.252005
v -3.160053 16.177183 4.726679
v -4.021496 16.177183 4.019710
v -4.728466 16.177183 3.158267
v -5.253792 16.177183 2.175452
v -5.577285 16.177183 1.109035
v -5.686515 16.177183 0.000000
v -5.577285 16.177183 -1.109036
v -5.253792 16.177183 -2.175452
v -4.728466 16.177183 -3.158266
v -4.021496 16.177183 -4.019710
v -3.160053 16.177183 -4.726679
v -2.177238 16.177183 -5.252004
v -1.110822 16.177183 -5.575499
v -0.001786 16.177183 -5.684729
v 1.107249 16.177183 -5.575499
v 2.173666 16.177183 -5.252004
v 3.156480 16.177183 -4.726679
v 4.017923 16.177183 -4.019710
v 4.724892 16.177183 -3.158266
v 5.250217 16.177183 -2.175452
v 5.573711 16.177183 -1.109036
v 5.682942 16.177183 0.000000
v 5.573711 16.177183 1.109035
v 5.250217 16.177183 2.175452
v 4.724892 16.177183 3.158267
v 4.017923 16.177183 4.019710
v 3.156480 16.177183 4.726679
v 2.173666 16.177183 5.252005
v 1.107249 16.177183 5.575498
vn -0.0000 -0.6857 -0.7279
vn -0.0000 0.6857 -0.7279
vn 0.1420 -0.6857 -0.7139
vn 0.1420 0.6857 -0.7139
vn 0.2785 -0.6857 -0.6725
vn 0.2785 0.6857 -0.6725
vn 0.4044 -0.6857 -0.6052
vn 0.4044 0.6857 -0.6052
vn 0.5147 -0.6857 -0.5147
vn 0.5147 0.6857 -0.5147
vn 0.6052 -0.6857 -0.4044
vn 0.6052 0.6857 -0.4044
vn 0.6725 -0.6857 -0.2785
vn 0.6725 0.6857 -0.2785
vn 0.7139 -0.6857 -0.1420
vn 0.7139 0.6857 -0.1420
vn 0.7279 -0.6857 -0.0000
vn 0.7279 0.6857 -0.0000
vn 0.7139 -0.6857 0.1420
vn 0.7139 0.6857 0.1420
vn 0.6725 -0.6857 0.2785
vn 0.6725 0.6857 0.2785
vn 0.6052 -0.6857 0.4044
vn 0.6052 0.6857 0.4044
vn 0.5147 -0.6857 0.5147
vn 0.5147 0.6857 0.5147
vn 0.4044 -0.6857 0.6052
vn 0.4044 0.6857 0.6052
vn 0.2785 -0.6857 0.6725
vn 0.2785 0.6857 0.6725
vn 0.1420 -0.6857 0.7139
vn 0.1420 0.6857 0.7139
vn -0.0000 -0.6857 0.7279
vn -0.0000 0.6857 0.7279
vn -0.1420 -0.6857 0.7139
vn -0.1420 0.6857 0.7139
vn -0.2785 -0.6857 0.6725
vn -0.2785 0.6857 0.6725
vn -0.4044 -0.6857 0.6052
vn -0.4044 0.6857 0.6052
vn -0.5147 -0.6857 0.5147
vn -0.5147 0.6857 0.5147
vn -0.6052 -0.6857 0.4044
vn -0.6052 0.6857 0.4044
vn -0.6725 -0.6857 0.2785
vn -0.6725 0.6857 0.2785
vn -0.7139 -0.6857 0.1420
vn -0.7139 0.6857 0.1420
vn -0.7279 -0.6857 -0.0000
vn -0.7279 0.6857 -0.0000
vn -0.7139 -0.6857 -0.1420
vn -0.7139 0.6857 -0.1420
vn -0.6725 -0.6857 -0.2785
vn -0.6725 0.6857 -0.2785
vn -0.6052 -0.6857 -0.4044
vn -0.6052 0.6857 -0.4044
vn -0.5147 -0.6857 -0.5147
vn -0.5147 0.6857 -0.5147
vn -0.4044 -0.6857 -0.6052
vn -0.4044 0.6857 -0.6052
vn -0.2785 -0.6857 -0.6725
vn -0.2785 0.6857 -0.6725
vn -0.1420 -0.6857 -0.7139
vn -0.1420 0.6857 -0.7139
vn -0.0000 0.3228 0.9465
vn -0.1846 0.3228 0.9283
vn -0.3622 0.3228 0.8744
vn -0.5258 0.3228 0.7870
vn -0.6693 0.3228 0.6693
vn -0.7870 0.3228 0.5258
vn -0.8744 0.3228 0.3622
vn -0.9283 0.3228 0.1846
vn -0.9465 0.3228 -0.0000
vn -0.9283 0.3228 -0.1846
vn -0.8744 0.3228 -0.3622
vn -0.7870 0.3228 -0.5258
vn -0.6693 0.3228 -0.6693
vn -0.5258 0.3228 -0.7870
vn -0.3622 0.3228 -0.8744
vn -0.1846 0.3228 -0.9283
vn -0.0000 0.3228 -0.9465
vn 0.1846 0.3228 -0.9283
vn 0.3622 0.3228 -0.8744
vn 0.5258 0.3228 -0.7870
vn 0.6693 0.3228 -0.6693
vn 0.7870 0.3228 -0.5258
vn 0.8744 0.3228 -0.3622
vn 0.9283 0.3228 -0.1846
vn 0.9465 0.3228 -0.0000
vn 0.9283 0.3228 0.1846
vn 0.8744 0.3228 0.3622
vn 0.7870 0.3228 0.5258
vn 0.6693 0.3228 0.6693
vn 0.5258 0.3228 0.7870
vn 0.3622 0.3228 0.8744
vn 0.1846 0.3228 0.9283
vn -0.0000 0.0387 0.9993
vn -0.1949 0.0387 0.9801
vn -0.3824 0.0387 0.9232
vn -0.5552 0.0387 0.8308
vn -0.7066 0.0387 0.7066
vn -0.8308 0.0387 0.5552
vn -0.9232 0.0387 0.3824
vn -0.9801 0.0387 0.1949
vn -0.9993 0.0387 -0.0000
vn -0.9801 0.0387 -0.1949
vn -0.9232 0.0387 -0.3824
vn -0.8308 0.0387 -0.5552
vn -0.7066 0.0387 -0.7066
vn -0.5552 0.0387 -0.8308
vn -0.3824 0.0387 -0.9232
vn -0.1949 0.0387 -0.9801
vn -0.0000 0.0387 -0.9993
vn 0.1949 0.0387 -0.9801
vn 0.3824 0.0387 -0.9232
vn 0.5552 0.0387 -0.8308
vn 0.7066 0.0387 -0.7066
vn 0.8308 0.0387 -0.5552
vn 0.9232 0.0387 -0.3824
vn 0.9801 0.0387 -0.1949
vn 0.9993 0.0387 -0.0000
vn 0.9801 0.0387 0.1949
vn 0.9232 0.0387 0.3824
vn 0.8308 0.0387 0.5552
vn 0.7066 0.0387 0.7066
vn 0.5552 0.0387 0.8308
vn 0.3824 0.0387 0.9232
vn 0.1949 0.0387 0.9801
vn -0.0000 0.4469 0.8946
vn -0.1745 0.4469 0.8774
vn -0.3423 0.4469 0.8265
vn -0.4970 0.4469 0.7438
vn -0.6326 0.4469 0.6326
vn -0.7438 0.4469 0.4970
vn -0.8265 0.4469 0.3423
vn -0.8774 0.4469 0.1745
vn -0.8946 0.4469 -0.0000
vn -0.8774 0.4469 -0.1745
vn -0.8265 0.4469 -0.3423
vn -0.7438 0.4469 -0.4970
vn -0.6326 0.4469 -0.6326
vn -0.4970 0.4469 -0.7438
vn -0.3423 0.4469 -0.8265
vn -0.1745 0.4469 -0.8774
vn -0.0000 0.4469 -0.8946
vn 0.1745 0.4469 -0.8774
vn 0.3423 0.4469 -0.8265
vn 0.4970 0.4469 -0.7438
vn 0.6326 0.4469 -0.6326
vn 0.7438 0.4469 -0.4970
vn 0.8265 0.4469 -0.3423
vn 0.8774 0.4469 -0.1745
vn 0.8946 0.4469 -0.0000
vn 0.8774 0.4469 0.1745
vn 0.8265 0.4469 0.3423
vn 0.7438 0.4469 0.4970
vn 0.6326 0.4469 0.6326
vn 0.4970 0.4469 0.7438
vn 0.3423 0.4469 0.8265
vn 0.1745 0.4469 0.8774
vt 1.000000 0.500000
vt 0.968750 0.500000
vt 0.968750 1.000000
vt 1.000000 1.000000
vt 0.937500 0.500000
vt 0.937500 1.000000
vt 0.906250 0.500000
vt 0.906250 1.000000
vt 0.875000 0.500000
vt 0.875000 1.000000
vt 0.843750 0.500000
vt 0.843750 1.000000
vt 0.812500 0.500000
vt 0.812500 1.000000
vt 0.781250 0.500000
vt 0.781250 1.000000
vt 0.750000 0.500000
vt 0.750000 1.000000
vt 0.718750 0.500000
vt 0.718750 1.000000
vt 0.687500 0.500000
vt 0.687500 1.000000
vt 0.656250 0.500000
vt 0.656250 1.000000
vt 0.625000 0.500000
vt 0.625000 1.000000
vt 0.593750 0.500000
vt 0.593750 1.000000
vt 0.562500 0.500000
vt 0.562500 1.000000
vt 0.531250 0.500000
vt 0.531250 1.000000
vt 0.500000 0.500000
vt 0.500000 1.000000
vt 0.468750 0.500000
vt 0.468750 1.000000
vt 0.437500 0.500000
vt 0.437500 1.000000
vt 0.406250 0.500000
vt 0.406250 1.000000
vt 0.375000 0.500000
vt 0.375000 1.000000
vt 0.343750 0.500000
vt 0.343750 1.000000
vt 0.312500 0.500000
vt 0.312500 1.000000
vt 0.281250 0.500000
vt 0.281250 1.000000
vt 0.250000 0.500000
vt 0.250000 1.000000
vt 0.218750 0.500000
vt 0.218750 1.000000
vt 0.187500 0.500000
vt 0.187500 1.000000
vt 0.156250 0.500000
vt 0.156250 1.000000
vt 0.125000 0.500000
vt 0.125000 1.000000
vt 0.093750 0.500000
vt 0.093750 1.000000
vt 0.062500 0.500000
vt 0.062500 1.000000
vt 0.296822 0.485388
vt 0.341844 0.471731
vt 0.383337 0.449553
vt 0.419706 0.419706
vt 0.449553 0.383337
vt 0.471731 0.341844
vt 0.485388 0.296822
vt 0.490000 0.250000
vt 0.485388 0.203178
vt 0.471731 0.158156
vt 0.449553 0.116663
vt 0.419706 0.080294
vt 0.383337 0.050447
vt 0.341844 0.028269
vt 0.296822 0.014612
vt 0.250000 0.010000
vt 0.203178 0.014612
vt 0.158156 0.028269
vt 0.116663 0.050447
vt 0.080294 0.080294
vt 0.050447 0.116663
vt 0.028269 0.158156
vt 0.014612 0.203178
vt 0.010000 0.250000
vt 0.014612 0.296822
vt 0.028269 0.341844
vt 0.050447 0.383337
vt 0.080294 0.419706
vt 0.116663 0.449553
vt 0.158156 0.471731
vt 0.203178 0.485388
vt 0.250000 0.490000
vt 0.031250 0.500000
vt 0.031250 1.000000
vt 0.000000 0.500000
vt 0.000000 1.000000
vt 0.750000 0.490000
vt 0.703178 0.485388
vt 0.658156 0.471731
vt 0.616663 0.449553
vt 0.580294 0.419706
vt 0.550447 0.383337
vt 0.528269 0.341844
vt 0.514612 0.296822
vt 0.510000 0.250000
vt 0.514612 0.203178
vt 0.528269 0.158156
vt 0.550447 0.116663
vt 0.580294 0.080294
vt 0.616663 0.050447
vt 0.658156 0.028269
vt 0.703178 0.014612
vt 0.750000 0.010000
vt 0.796822 0.014612
vt 0.841844 0.028269
vt 0.883337 0.050447
vt 0.919706 0.080294
vt 0.949553 0.116663
vt 0.971731 0.158156
vt 0.985388 0.203178
vt 0.990000 0.250000
vt 0.985388 0.296822
vt 0.971731 0.341844
vt 0.949553 0.383337
vt 0.919706 0.419706
vt 0.883337 0.449553
vt 0.841844 0.471731
vt 0.796822 0.485388
s 1
usemtl Material.001
f 1/1/1 2/4/2 4/3/4 3/2/3
f 3/2/3 4/3/4 6/6/6 5/5/5
f 5/5/5 6/6/6 8/8/8 7/7/7
f 7/7/7 8/8/8 10/10/10 9/9/9
f 9/9/9 10/10/10 12/12/12 11/11/11
f 11/11/11 12/12/12 14/14/14 13/13/13
f 13/13/13 14/14/14 16/16/16 15/15/15
f 15/15/15 16/16/16 18/18/18 17/17/17
f 17/17/17 18/18/18 20/20/20 19/19/19
f 19/19/19 20/20/20 22/22/22 21/21/21
f 21/21/21 22/22/22 24/24/24 23/23/23
f 23/23/23 24/24/24 26/26/26 25/25/25
f 25/25/25 26/26/26 28/28/28 27/27/27
f 27/27/27 28/28/28 30/30/30 29/29/29
f 29/29/29 30/30/30 32/32/32 31/31/31
f 31/31/31 32/32/32 34/34/34 33/33/33
f 33/33/33 34/34/34 36/36/36 35/35/35
f 35/35/35 36/36/36 38/38/38 37/37/37
f 37/37/37 38/38/38 40/40/40 39/39/39
f 39/39/39 40/40/40 42/42/42 41/41/41
f 41/41/41 42/42/42 44/44/44 43/43/43
f 43/43/43 44/44/44 46/46/46 45/45/45
f 45/45/45 46/46/46 48/48/48 47/47/47
f 47/47/47 48/48/48 50/50/50 49/49/49
f 49/49/49 50/50/50 52/52/52 51/51/51
f 51/51/51 52/52/52 54/54/54 53/53/53
f 53/53/53 54/54/54 56/56/56 55/55/55
f 55/55/55 56/56/56 58/58/58 57/57/57
f 57/57/57 58/58/58 60/60/60 59/59/59
f 59/59/59 60/60/60 62/62/62 61/61/61
f 4/63/4 2/94/2 64/93/64 62/92/62 60/91/60 58/90/58 56/89/56 54/88/54 52/87/52 50/86/50 48/85/48 46/84/46 44/83/44 42/82/42 40/81/40 38/80/38 36/79/36 34/78/34 32/77/32 30/76/30 28/75/28 26/74/26 24/73/24 22/72/22 20/71/20 18/70/18 16/69/16 14/68/14 12/67/12 10/66/10 8/65/8 6/64/6
f 61/61/61 62/62/62 64/96/64 63/95/63
f 63/95/63 64/96/64 2/98/2 1/97/1
f 1/99/1 3/130/3 5/129/5 7/128/7 9/127/9 11/126/11 13/125/13 15/124/15 17/123/17 19/122/19 21/121/21 23/120/23 25/119/25 27/118/27 29/117/29 31/116/31 33/115/33 35/114/35 37/113/37 39/112/39 41/111/41 43/110/43 45/109/45 47/108/47 49/107/49 51/106/51 53/105/53 55/104/55 57/103/57 59/102/59 61/101/61 63/100/63
f 65/1/65 67/2/66 68/3/35 66/4/33
f 67/2/66 69/5/67 70/6/37 68/3/35
f 69/5/67 71/7/68 72/8/39 70/6/37
f 71/7/68 73/9/69 74/10/41 72/8/39
f 73/9/69 75/11/70 76/12/43 74/10/41
f 75/11/70 77/13/71 78/14/45 76/12/43
f 77/13/71 79/15/72 80/16/47 78/14/45
f 79/15/72 81/17/73 82/18/49 80/16/47
f 81/17/73 83/19/74 84/20/51 82/18/49
f 83/19/74 85/21/75 86/22/53 84/20/51
f 85/21/75 87/23/76 88/24/55 86/22/53
f 87/23/76 89/25/77 90/26/57 88/24/55
f 89/25/77 91/27/78 92/28/59 90/26/57
f 91/27/78 93/29/79 94/30/61 92/28/59
f 93/29/79 95/31/80 96/32/63 94/30/61
f 95/31/80 97/33/81 98/34/1 96/32/63
f 97/33/81 99/35/82 100/36/3 98/34/1
f 99/35/82 101/37/83 102/38/5 100/36/3
f 101/37/83 103/39/84 104/40/7 102/38/5
f 103/39/84 105/41/85 106/42/9 104/40/7
f 105/41/85 107/43/86 108/44/11 106/42/9
f 107/43/86 109/45/87 110/46/13 108/44/11
f 109/45/87 111/47/88 112/48/15 110/46/13
f 111/47/88 113/49/89 114/50/17 112/48/15
f 113/49/89 115/51/90 116/52/19 114/50/17
f 115/51/90 117/53/91 118/54/21 116/52/19
f 117/53/91 119/55/92 120/56/23 118/54/21
f 119/55/92 121/57/93 122/58/25 120/56/23
f 121/57/93 123/59/94 124/60/27 122/58/25
f 123/59/94 125/61/95 126/62/29 124/60/27
f 68/63/35 70/64/37 72/65/39 74/66/41 76/67/43 78/68/45 80/69/47 82/70/49 84/71/51 86/72/53 88/73/55 90/74/57 92/75/59 94/76/61 96/77/63 98/78/1 100/79/3 102/80/5 104/81/7 106/82/9 108/83/11 110/84/13 112/85/15 114/86/17 116/87/19 118/88/21 120/89/23 122/90/25 124/91/27 126/92/29 128/93/31 66/94/33
f 125/61/95 127/95/96 128/96/31 126/62/29
f 127/95/96 65/97/65 66/98/33 128/96/31
f 95/31/80 144/31/112 145/33/113 97/33/81
f 113/49/89 153/49/121 154/51/122 115/51/90
f 69/5/67 131/5/99 132/7/100 71/7/68
f 87/23/76 140/23/108 141/25/109 89/25/77
f 105/41/85 149/41/117 150/43/118 107/43/86
f 123/59/94 158/59/126 159/61/127 125/61/95
f 79/15/72 136/15/104 137/17/105 81/17/73
f 97/33/81 145/33/113 146/35/114 99/35/82
f 115/51/90 154/51/122 155/53/123 117/53/91
f 71/7/68 132/7/100 133/9/101 73/9/69
f 89/25/77 141/25/109 142/27/110 91/27/78
f 107/43/86 150/43/118 151/45/119 109/45/87
f 125/61/95 159/61/127 160/95/128 127/95/96
f 81/17/73 137/17/105 138/19/106 83/19/74
f 99/35/82 146/35/114 147/37/115 101/37/83
f 117/53/91 155/53/123 156/55/124 119/55/92
f 73/9/69 133/9/101 134/11/102 75/11/70
f 91/27/78 142/27/110 143/29/111 93/29/79
f 109/45/87 151/45/119 152/47/120 111/47/88
f 65/1/65 129/1/97 130/2/98 67/2/66
f 127/95/96 160/95/128 129/97/97 65/97/65
f 83/19/74 138/19/106 139/21/107 85/21/75
f 101/37/83 147/37/115 148/39/116 103/39/84
f 119/55/92 156/55/124 157/57/125 121/57/93
f 75/11/70 134/11/102 135/13/103 77/13/71
f 93/29/79 143/29/111 144/31/112 95/31/80
f 111/47/88 152/47/120 153/49/121 113/49/89
f 67/2/66 130/2/98 131/5/99 69/5/67
f 85/21/75 139/21/107 140/23/108 87/23/76
f 103/39/84 148/39/116 149/41/117 105/41/85
f 121/57/93 157/57/125 158/59/126 123/59/94
f 77/13/71 135/13/103 136/15/104 79/15/72
usemtl goldcap
f 144/31/112 176/31/144 177/33/145 145/33/113
f 161/99/129 192/100/160 191/101/159 190/102/158 189/103/157 188/104/156 187/105/155 186/106/154 185/107/153 184/108/152 183/109/151 182/110/150 181/111/149 180/112/148 179/113/147 178/114/146 177/115/145 176/116/144 175/117/143 174/118/142 173/119/141 172/120/140 171/121/139 170/122/138 169/123/137 168/124/136 167/125/135 166/126/134 165/127/133 164/128/132 163/129/131 162/130/130
f 131/5/99 163/5/131 164/7/132 132/7/100
f 158/59/126 190/59/158 191/61/159 159/61/127
f 145/33/113 177/33/145 178/35/146 146/35/114
f 132/7/100 164/7/132 165/9/133 133/9/101
f 159/61/127 191/61/159 192/95/160 160/95/128
f 146/35/114 178/35/146 179/37/147 147/37/115
f 133/9/101 165/9/133 166/11/134 134/11/102
f 160/95/128 192/95/160 161/97/129 129/97/97
f 147/37/115 179/37/147 180/39/148 148/39/116
f 134/11/102 166/11/134 167/13/135 135/13/103
f 148/39/116 180/39/148 181/41/149 149/41/117
f 135/13/103 167/13/135 168/15/136 136/15/104
f 149/41/117 181/41/149 182/43/150 150/43/118
f 136/15/104 168/15/136 169/17/137 137/17/105
f 150/43/118 182/43/150 183/45/151 151/45/119
f 137/17/105 169/17/137 170/19/138 138/19/106
f 151/45/119 183/45/151 184/47/152 152/47/120
f 138/19/106 170/19/138 171/21/139 139/21/107
f 152/47/120 184/47/152 185/49/153 153/49/121
f 139/21/107 171/21/139 172/23/140 140/23/108
f 153/49/121 185/49/153 186/51/154 154/51/122
f 140/23/108 172/23/140 173/25/141 141/25/109
f 154/51/122 186/51/154 187/53/155 155/53/123
f 141/25/109 173/25/141 174/27/142 142/27/110
f 155/53/123 187/53/155 188/55/156 156/55/124
f 142/27/110 174/27/142 175/29/143 143/29/111
f 129/1/97 161/1/129 162/2/130 130/2/98
f 156/55/124 188/55/156 189/57/157 157/57/125
f 143/29/111 175/29/143 176/31/144 144/31/112
f 130/2/98 162/2/130 163/5/131 131/5/99
f 157/57/125 189/57/157 190/59/158 158/59/126
o Plane
v 3.997144 1.052135 3.998980
v 3.996782 3.482433 3.999322
v 3.464228 0.987726 -4.436535
v 3.418070 3.418030 -4.474417
v 3.995932 0.993587 -4.000102
v 4.203329 0.999449 -3.748391
v 4.701559 1.005297 -3.140776
v 5.189867 1.011152 -2.227672
v 5.476711 1.017007 -1.330713
v 5.632805 1.022861 -0.219243
v 5.559059 1.028716 0.968000
v 5.254718 1.034571 2.062525
v 4.818688 1.040425 2.922098
v 4.423073 1.046291 3.480633
v 3.997112 1.273071 3.999010
v 3.997079 1.494007 3.999041
v 3.997046 1.714944 3.999072
v 3.997014 1.935880 3.999103
v 3.996981 2.156816 3.999134
v 3.996948 2.377752 3.999166
v 3.996915 2.598688 3.999196
v 3.996882 2.819624 3.999228
v 3.996849 3.040561 3.999259
v 3.996816 3.261497 3.999290
v 4.401440 3.476578 3.506993
v 4.808414 3.470723 2.941319
v 5.252206 3.464869 2.070806
v 5.559531 3.459013 0.963203
v 5.631030 3.453159 -0.237265
v 5.467798 3.447304 -1.360094
v 5.170013 3.441449 -2.264814
v 4.701144 3.435595 -3.141402
v 4.170399 3.429740 -3.788517
v 3.995497 3.423885 -4.000490
v 3.422266 3.197094 -4.470973
v 3.426462 2.976158 -4.467529
v 3.430658 2.755222 -4.464086
v 3.434854 2.534286 -4.460642
v 3.439050 2.313350 -4.457199
v 3.443246 2.092414 -4.453754
v 3.447442 1.871477 -4.450311
v 3.451638 1.650541 -4.446867
v 3.455834 1.429605 -4.443424
v 3.460030 1.208656 -4.439981
v 4.421104 1.267216 3.483031
v 4.817755 1.261361 2.923845
v 5.254490 1.255507 2.063278
v 5.559102 1.249652 0.967564
v 5.632643 1.243798 -0.220881
v 5.475900 1.237943 -1.333385
v 5.188063 1.232088 -2.231048
v 4.701521 1.226233 -3.140832
v 4.200336 1.220384 -3.752038
v 3.995893 1.214524 -4.000137
v 4.419138 1.488153 3.485427
v 4.816820 1.482297 2.925593
v 5.254261 1.476444 2.064031
v 5.559144 1.470588 0.967128
v 5.632483 1.464734 -0.222520
v 5.475090 1.458879 -1.336056
v 5.186257 1.453024 -2.234425
v 4.701484 1.447170 -3.140889
v 4.197343 1.441310 -3.755685
v 3.995853 1.435460 -4.000173
v 4.417172 1.709088 3.487823
v 4.815886 1.703234 2.927340
v 5.254033 1.697380 2.064783
v 5.559187 1.691525 0.966691
v 5.632321 1.685670 -0.224158
v 5.474280 1.679815 -1.338727
v 5.184452 1.673960 -2.237802
v 4.701447 1.668106 -3.140945
v 4.194349 1.662258 -3.759333
v 3.995814 1.656396 -4.000208
v 4.415205 1.930026 3.490219
v 4.814952 1.924170 2.929087
v 5.253805 1.918316 2.065536
v 5.559231 1.912460 0.966255
v 5.632160 1.906606 -0.225797
v 5.473470 1.900751 -1.341398
v 5.182648 1.894896 -2.241178
v 4.701410 1.889042 -3.141002
v 4.191355 1.883194 -3.762981
v 3.995775 1.877332 -4.000243
v 4.413239 2.150961 3.492615
v 4.814018 2.145106 2.930834
v 5.253576 2.139252 2.066289
v 5.559274 2.133397 0.965820
v 5.631998 2.127542 -0.227435
v 5.472660 2.121687 -1.344068
v 5.180842 2.115832 -2.244555
v 4.701372 2.109978 -3.141058
v 4.188362 2.104119 -3.766628
v 3.995735 2.098268 -4.000278
v 4.411272 2.371897 3.495011
v 4.813085 2.366043 2.932582
v 5.253348 2.360188 2.067042
v 5.559317 2.354333 0.965383
v 5.631837 2.348478 -0.229073
v 5.471849 2.342623 -1.346739
v 5.179038 2.336769 -2.247931
v 4.701334 2.330914 -3.141116
v 4.185369 2.325057 -3.770275
v 3.995695 2.319205 -4.000313
v 4.409306 2.592834 3.497408
v 4.812150 2.586979 2.934329
v 5.253119 2.581124 2.067795
v 5.559360 2.575269 0.964947
v 5.631675 2.569414 -0.230712
v 5.471039 2.563559 -1.349410
v 5.177233 2.557705 -2.251308
v 4.701297 2.551850 -3.141173
v 4.182374 2.546007 -3.773925
v 3.995656 2.540141 -4.000349
v 4.407339 2.813769 3.499805
v 4.811216 2.807915 2.936077
v 5.252892 2.802060 2.068547
v 5.559402 2.796205 0.964511
v 5.631515 2.790351 -0.232350
v 5.470229 2.784496 -1.352081
v 5.175428 2.778641 -2.254685
v 4.701259 2.772787 -3.141230
v 4.179379 2.766932 -3.777573
v 3.995617 2.761076 -4.000383
v 4.405372 3.034706 3.502201
v 4.810283 3.028850 2.937824
v 5.252664 3.022996 2.069299
v 5.559445 3.017142 0.964075
v 5.631353 3.011286 -0.233988
v 5.469419 3.005432 -1.354752
v 5.173623 2.999577 -2.258061
v 4.701221 2.993722 -3.141287
v 4.176386 2.987868 -3.781221
v 3.995577 2.982013 -4.000419
v 4.403406 3.255642 3.504597
v 4.809348 3.249787 2.939572
v 5.252435 3.243932 2.070053
v 5.559488 3.238078 0.963639
v 5.631192 3.232222 -0.235627
v 5.468608 3.226368 -1.357423
v 5.171819 3.220513 -2.261438
v 4.701182 3.214659 -3.141344
v 4.173392 3.208804 -3.784868
v 3.995537 3.202949 -4.000454
vn 0.6344 -0.0000 -0.7730
vn 0.6345 -0.0000 -0.7730
vn 0.7726 -0.0000 0.6349
vn 0.8158 -0.0001 0.5783
vn 0.8918 -0.0002 0.4525
vn 0.9635 0.0002 0.2679
vn 0.9981 0.0006 0.0619
vn 0.9903 0.0008 -0.1393
vn 0.9524 0.0015 -0.3050
vn 0.8818 -0.0000 -0.4716
vn 0.7733 -0.0000 -0.6341
vn 0.7718 -0.0000 -0.6359
vn 0.8154 -0.0001 0.5788
vn 0.8917 -0.0002 0.4526
vn 0.9635 0.0002 0.2678
vn 0.9981 0.0006 0.0616
vn 0.9902 0.0008 -0.1397
vn 0.9521 0.0015 -0.3057
vn 0.7717 -0.0000 -0.6360
vn 0.8150 -0.0001 0.5794
vn 0.8916 -0.0002 0.4528
vn 0.9981 0.0006 0.0614
vn 0.9901 0.0008 -0.1402
vn 0.9519 0.0014 -0.3065
vn 0.8147 -0.0001 0.5799
vn 0.8915 -0.0002 0.4530
vn 0.9635 0.0002 0.2677
vn 0.9981 0.0006 0.0612
vn 0.9901 0.0008 -0.1406
vn 0.9516 0.0014 -0.3072
vn 0.7716 -0.0000 -0.6360
vn 0.8143 -0.0001 0.5805
vn 0.8914 -0.0002 0.4531
vn 0.9981 0.0006 0.0609
vn 0.9900 0.0008 -0.1411
vn 0.9514 0.0014 -0.3079
vn 0.7732 -0.0000 -0.6341
vn 0.7716 -0.0000 -0.6361
vn 0.8139 -0.0001 0.5810
vn 0.8914 -0.0002 0.4533
vn 0.9635 0.0002 0.2676
vn 0.9982 0.0006 0.0607
vn 0.9899 0.0008 -0.1415
vn 0.9512 0.0014 -0.3087
vn 0.8135 -0.0001 0.5816
vn 0.8913 -0.0002 0.4535
vn 0.9982 0.0006 0.0605
vn 0.9899 0.0008 -0.1419
vn 0.9509 0.0014 -0.3094
vn 0.7715 -0.0000 -0.6362
vn 0.8131 -0.0001 0.5821
vn 0.8912 -0.0002 0.4536
vn 0.9635 0.0002 0.2675
vn 0.9982 0.0006 0.0603
vn 0.9898 0.0008 -0.1424
vn 0.9507 0.0014 -0.3101
vn 0.8127 -0.0001 0.5827
vn 0.8911 -0.0002 0.4538
vn 0.9636 0.0002 0.2675
vn 0.9982 0.0005 0.0600
vn 0.9898 0.0008 -0.1428
vn 0.9505 0.0014 -0.3108
vn 0.7714 -0.0000 -0.6363
vn 0.7726 -0.0000 0.6350
vn 0.8123 -0.0001 0.5832
vn 0.8910 -0.0002 0.4539
vn 0.9636 0.0002 0.2674
vn 0.9982 0.0005 0.0598
vn 0.9897 0.0008 -0.1432
vn 0.9502 0.0014 -0.3116
vn 0.7725 -0.0000 0.6350
vn 0.8119 -0.0001 0.5837
vn 0.8909 -0.0002 0.4541
vn 0.9982 0.0005 0.0596
vn 0.9896 0.0008 -0.1437
vn 0.9500 0.0013 -0.3123
vn 0.7732 -0.0000 -0.6342
vn 0.7714 -0.0000 -0.6364
vt 0.909091 0.909091
vt 1.000000 0.909091
vt 1.000000 1.000000
vt 0.909091 1.000000
vt 0.000000 0.909091
vt 0.090909 0.909091
vt 0.090909 1.000000
vt 0.000000 1.000000
vt 0.181818 0.909091
vt 0.181818 1.000000
vt 0.272727 0.909091
vt 0.272727 1.000000
vt 0.363636 0.909091
vt 0.363636 1.000000
vt 0.454545 0.909091
vt 0.454545 1.000000
vt 0.545455 0.909091
vt 0.545455 1.000000
vt 0.636364 0.909091
vt 0.636364 1.000000
vt 0.727273 0.909091
vt 0.727273 1.000000
vt 0.818182 0.909091
vt 0.818182 1.000000
vt 0.000000 0.000000
vt 0.090909 0.000000
vt 0.090909 0.090909
vt 0.000000 0.090909
vt 0.090909 0.181818
vt 0.000000 0.181818
vt 0.090909 0.272727
vt 0.000000 0.272727
vt 0.090909 0.363636
vt 0.000000 0.363636
vt 0.090909 0.454545
vt 0.000000 0.454545
vt 0.090909 0.545455
vt 0.000000 0.545455
vt 0.090909 0.636364
vt 0.000000 0.636364
vt 0.090909 0.727273
vt 0.000000 0.727273
vt 0.090909 0.818182
vt 0.000000 0.818182
vt 0.181818 0.000000
vt 0.181818 0.090909
vt 0.181818 0.181818
vt 0.181818 0.272727
vt 0.181818 0.363636
vt 0.181818 0.454545
vt 0.181818 0.545455
vt 0.181818 0.636364
vt 0.181818 0.727273
vt 0.181818 0.818182
vt 0.272727 0.000000
vt 0.272727 0.090909
vt 0.272727 0.181818
vt 0.272727 0.272727
vt 0.272727 0.363636
vt 0.272727 0.454545
vt 0.272727 0.545455
vt 0.272727 0.636364
vt 0.272727 0.727273
vt 0.272727 0.818182
vt 0.363636 0.000000
vt 0.363636 0.090909
vt 0.363636 0.181818
vt 0.363636 0.272727
vt 0.363636 0.363636
vt 0.363636 0.454545
vt 0.363636 0.545455
vt 0.363636 0.636364
vt 0.363636 0.727273
vt 0.363636 0.818182
vt 0.454545 0.000000
vt 0.454545 0.090909
vt 0.454545 0.181818
vt 0.454545 0.272727
vt 0.454545 0.363636
vt 0.454545 0.454545
vt 0.454545 0.545455
vt 0.454545 0.636364
vt 0.454545 0.727273
vt 0.454545 0.818182
vt 0.545455 0.000000
vt 0.545455 0.090909
vt 0.545455 0.181818
vt 0.545455 0.272727
vt 0.545455 0.363636
vt 0.545455 0.454545
vt 0.545455 0.545455
vt 0.545455 0.636364
vt 0.545455 0.727273
vt 0.545455 0.818182
vt 0.636364 0.000000
vt 0.636364 0.090909
vt 0.636364 0.181818
vt 0.636364 0.272727
vt 0.636364 0.363636
vt 0.636364 0.454545
vt 0.636364 0.545455
vt 0.636364 0.636364
vt 0.636364 0.727273
vt 0.636364 0.818182
vt 0.727273 0.000000
vt 0.727273 0.090909
vt 0.727273 0.181818
vt 0.727273 0.272727
vt 0.727273 0.363636
vt 0.727273 0.454545
vt 0.727273 0.545455
vt 0.727273 0.636364
vt 0.727273 0.727273
vt 0.727273 0.818182
vt 0.818182 0.000000
vt 0.818182 0.090909
vt 0.818182 0.181818
vt 0.818182 0.272727
vt 0.818182 0.363636
vt 0.818182 0.454545
vt 0.818182 0.545455
vt 0.818182 0.636364
vt 0.818182 0.727273
vt 0.818182 0.818182
vt 0.909091 0.000000
vt 0.909091 0.090909
vt 0.909091 0.181818
vt 0.909091 0.272727
vt 0.909091 0.363636
vt 0.909091 0.454545
vt 0.909091 0.545455
vt 0.909091 0.636364
vt 0.909091 0.727273
vt 0.909091 0.818182
vt 1.000000 0.000000
vt 1.000000 0.090909
vt 1.000000 0.181818
vt 1.000000 0.272727
vt 1.000000 0.363636
vt 1.000000 0.454545
vt 1.000000 0.545455
vt 1.000000 0.636364
vt 1.000000 0.727273
vt 1.000000 0.818182
s 0
usemtl Material.003
f 336/131/161 227/134/161 196/133/161 226/132/161
f 197/135/162 195/138/162 236/137/162 246/136/162
f 246/136/162 236/137/162 235/140/162 256/139/162
f 256/139/162 235/140/162 234/142/162 266/141/162
f 266/141/161 234/142/161 233/144/161 276/143/161
f 276/143/161 233/144/161 232/146/161 286/145/161
f 286/145/161 232/146/161 231/148/161 296/147/161
f 296/147/161 231/148/161 230/150/161 306/149/161
f 306/149/161 230/150/161 229/152/161 316/151/161
f 316/151/161 229/152/161 228/154/161 326/153/161
f 326/153/161 228/154/161 227/134/161 336/131/161
f 193/155/163 206/158/163 237/157/163 207/156/163
f 206/158/164 205/160/164 238/159/164 237/157/164
f 205/160/165 204/162/165 239/161/165 238/159/165
f 204/162/166 203/164/166 240/163/166 239/161/166
f 203/164/167 202/166/167 241/165/167 240/163/167
f 202/166/168 201/168/168 242/167/168 241/165/168
f 201/168/169 200/170/169 243/169/169 242/167/169
f 200/170/170 199/172/170 244/171/170 243/169/170
f 199/172/171 198/174/171 245/173/171 244/171/171
f 198/174/172 197/135/172 246/136/172 245/173/172
f 207/156/163 237/157/163 247/176/163 208/175/163
f 237/157/173 238/159/173 248/177/173 247/176/173
f 238/159/174 239/161/174 249/178/174 248/177/174
f 239/161/175 240/163/175 250/179/175 249/178/175
f 240/163/176 241/165/176 251/180/176 250/179/176
f 241/165/177 242/167/177 252/181/177 251/180/177
f 242/167/178 243/169/178 253/182/178 252/181/178
f 243/169/170 244/171/170 254/183/170 253/182/170
f 244/171/171 245/173/171 255/184/171 254/183/171
f 245/173/179 246/136/179 256/139/179 255/184/179
f 208/175/163 247/176/163 257/186/163 209/185/163
f 247/176/180 248/177/180 258/187/180 257/186/180
f 248/177/181 249/178/181 259/188/181 258/187/181
f 249/178/175 250/179/175 260/189/175 259/188/175
f 250/179/182 251/180/182 261/190/182 260/189/182
f 251/180/183 252/181/183 262/191/183 261/190/183
f 252/181/184 253/182/184 263/192/184 262/191/184
f 253/182/170 254/183/170 264/193/170 263/192/170
f 254/183/171 255/184/171 265/194/171 264/193/171
f 255/184/179 256/139/179 266/141/179 265/194/179
f 209/185/163 257/186/163 267/196/163 210/195/163
f 257/186/185 258/187/185 268/197/185 267/196/185
f 258/187/186 259/188/186 269/198/186 268/197/186
f 259/188/187 260/189/187 270/199/187 269/198/187
f 260/189/188 261/190/188 271/200/188 270/199/188
f 261/190/189 262/191/189 272/201/189 271/200/189
f 262/191/190 263/192/190 273/202/190 272/201/190
f 263/192/170 264/193/170 274/203/170 273/202/170
f 264/193/171 265/194/171 275/204/171 274/203/171
f 265/194/191 266/141/191 276/143/191 275/204/191
f 210/195/163 267/196/163 277/206/163 211/205/163
f 267/196/192 268/197/192 278/207/192 277/206/192
f 268/197/193 269/198/193 279/208/193 278/207/193
f 269/198/187 270/199/187 280/209/187 279/208/187
f 270/199/194 271/200/194 281/210/194 280/209/194
f 271/200/195 272/201/195 282/211/195 281/210/195
f 272/201/196 273/202/196 283/212/196 282/211/196
f 273/202/170 274/203/170 284/213/170 283/212/170
f 274/203/197 275/204/197 285/214/197 284/213/197
f 275/204/198 276/143/198 286/145/198 285/214/198
f 211/205/163 277/206/163 287/216/163 212/215/163
f 277/206/199 278/207/199 288/217/199 287/216/199
f 278/207/200 279/208/200 289/218/200 288/217/200
f 279/208/201 280/209/201 290/219/201 289/218/201
f 280/209/202 281/210/202 291/220/202 290/219/202
f 281/210/203 282/211/203 292/221/203 291/220/203
f 282/211/204 283/212/204 293/222/204 292/221/204
f 283/212/170 284/213/170 294/223/170 293/222/170
f 284/213/197 285/214/197 295/224/197 294/223/197
f 285/214/198 286/145/198 296/147/198 295/224/198
f 212/215/163 287/216/163 297/226/163 213/225/163
f 287/216/205 288/217/205 298/227/205 297/226/205
f 288/217/206 289/218/206 299/228/206 298/227/206
f 289/218/201 290/219/201 300/229/201 299/228/201
f 290/219/207 291/220/207 301/230/207 300/229/207
f 291/220/208 292/221/208 302/231/208 301/230/208
f 292/221/209 293/222/209 303/232/209 302/231/209
f 293/222/170 294/223/170 304/233/170 303/232/170
f 294/223/197 295/224/197 305/234/197 304/233/197
f 295/224/210 296/147/210 306/149/210 305/234/210
f 213/225/163 297/226/163 307/236/163 214/235/163
f 297/226/211 298/227/211 308/237/211 307/236/211
f 298/227/212 299/228/212 309/238/212 308/237/212
f 299/228/213 300/229/213 310/239/213 309/238/213
f 300/229/214 301/230/214 311/240/214 310/239/214
f 301/230/215 302/231/215 312/241/215 311/240/215
f 302/231/216 303/232/216 313/242/216 312/241/216
f 303/232/170 304/233/170 314/243/170 313/242/170
f 304/233/197 305/234/197 315/244/197 314/243/197
f 305/234/210 306/149/210 316/151/210 315/244/210
f 214/235/163 307/236/163 317/246/163 215/245/163
f 307/236/217 308/237/217 318/247/217 317/246/217
f 308/237/218 309/238/218 319/248/218 318/247/218
f 309/238/219 310/239/219 320/249/219 319/248/219
f 310/239/220 311/240/220 321/250/220 320/249/220
f 311/240/221 312/241/221 322/251/221 321/250/221
f 312/241/222 313/242/222 323/252/222 322/251/222
f 313/242/170 314/243/170 324/253/170 323/252/170
f 314/243/197 315/244/197 325/254/197 324/253/197
f 315/244/223 316/151/223 326/153/223 325/254/223
f 215/245/224 317/246/224 327/256/224 216/255/224
f 317/246/225 318/247/225 328/257/225 327/256/225
f 318/247/226 319/248/226 329/258/226 328/257/226
f 319/248/227 320/249/227 330/259/227 329/258/227
f 320/249/228 321/250/228 331/260/228 330/259/228
f 321/250/229 322/251/229 332/261/229 331/260/229
f 322/251/230 323/252/230 333/262/230 332/261/230
f 323/252/170 324/253/170 334/263/170 333/262/170
f 324/253/197 325/254/197 335/264/197 334/263/197
f 325/254/223 326/153/223 336/131/223 335/264/223
f 216/255/231 327/256/231 217/266/231 194/265/231
f 327/256/232 328/257/232 218/267/232 217/266/232
f 328/257/233 329/258/233 219/268/233 218/267/233
f 329/258/227 330/259/227 220/269/227 219/268/227
f 330/259/234 331/260/234 221/270/234 220/269/234
f 331/260/235 332/261/235 222/271/235 221/270/235
f 332/261/236 333/262/236 223/272/236 222/271/236
f 333/262/170 334/263/170 224/273/170 223/272/170
f 334/263/237 335/264/237 225/274/237 224/273/237
f 335/264/238 336/131/238 226/132/238 225/274/238
o Text
v 5.015301 2.494469 -2.619579
v 5.047022 2.494553 -2.560233
v 5.132896 2.259457 -2.399574
v 5.204929 2.494978 -2.264809
v 5.236999 2.495063 -2.204812
v 5.249149 1.921917 -2.182058
v 5.219270 1.921826 -2.237981
v 5.206476 2.368073 -2.261916
v 5.205779 2.368071 -2.263220
v 5.138937 2.146012 -2.388271
v 5.133360 2.145997 -2.398706
v 5.053798 2.367663 -2.547558
v 5.053100 2.367661 -2.548862
v 5.065893 1.921414 -2.524926
v 5.031733 1.921322 -2.588837
v 5.414996 2.209287 -1.640228
v 5.414751 2.170837 -1.641038
v 5.413166 2.133505 -1.646263
v 5.410285 2.097715 -1.655758
v 5.406153 2.063889 -1.669382
v 5.400810 2.032451 -1.686993
v 5.394302 2.003825 -1.708448
v 5.386670 1.978433 -1.733607
v 5.377959 1.956699 -1.762325
v 5.368210 1.939047 -1.794461
v 5.357468 1.925892 -1.829874
v 5.345776 1.917682 -1.868420
v 5.333176 1.914801 -1.909955
v 5.320096 1.917600 -1.953074
v 5.307898 1.925763 -1.993283
v 5.296624 1.938889 -2.030450
v 5.286315 1.956513 -2.064432
v 5.277013 1.978253 -2.095097
v 5.268758 2.003641 -2.122310
v 5.261593 2.032249 -2.145929
v 5.255559 2.063668 -2.165823
v 5.254412 2.097430 -2.169517
v 5.253839 2.133132 -2.171192
v 5.253440 2.170333 -2.172298
v 5.253243 2.208601 -2.172830
v 5.253267 2.247934 -2.172765
v 5.253521 2.285842 -2.172079
v 5.253991 2.321946 -2.170759
v 5.254652 2.355867 -2.168778
v 5.257843 2.387217 -2.158289
v 5.264409 2.415644 -2.136649
v 5.272107 2.440733 -2.111272
v 5.280896 2.462111 -2.082298
v 5.290730 2.479436 -2.049878
v 5.301569 2.492287 -2.014151
v 5.313366 2.500289 -1.975258
v 5.326078 2.503095 -1.933352
v 5.338652 2.500377 -1.891901
v 5.350489 2.492420 -1.852882
v 5.361526 2.479599 -1.816493
v 5.371706 2.462301 -1.782935
v 5.380968 2.440913 -1.752405
v 5.389250 2.415825 -1.725103
v 5.396492 2.387423 -1.701229
v 5.402634 2.356095 -1.680979
v 5.407617 2.322230 -1.664556
v 5.411377 2.286214 -1.652156
v 5.413858 2.248438 -1.643981
v 5.391374 2.209193 -1.718102
v 5.390486 2.239971 -1.721028
v 5.388576 2.269140 -1.727325
v 5.385705 2.296496 -1.736790
v 5.381935 2.321834 -1.749216
v 5.377330 2.344953 -1.764397
v 5.371952 2.365644 -1.782128
v 5.365861 2.383708 -1.802203
v 5.359124 2.398938 -1.824417
v 5.351799 2.411131 -1.848563
v 5.343950 2.420089 -1.874437
v 5.335640 2.425581 -1.901831
v 5.326931 2.427446 -1.930540
v 5.318211 2.425521 -1.959289
v 5.309980 2.419935 -1.986418
v 5.302298 2.410934 -2.011744
v 5.295219 2.398688 -2.035079
v 5.288802 2.383406 -2.056235
v 5.283103 2.365286 -2.075023
v 5.278179 2.344543 -2.091257
v 5.274087 2.321390 -2.104744
v 5.270884 2.296023 -2.115305
v 5.268626 2.268663 -2.122746
v 5.267373 2.239468 -2.126876
v 5.267179 2.208695 -2.127515
v 5.268064 2.178096 -2.124596
v 5.269975 2.149038 -2.118299
v 5.272848 2.121760 -2.108829
v 5.276622 2.096423 -2.096387
v 5.281235 2.073290 -2.081178
v 5.286627 2.052565 -2.063405
v 5.292734 2.034427 -2.043271
v 5.299496 2.019133 -2.020980
v 5.306851 2.006872 -1.996736
v 5.314737 1.997874 -1.970739
v 5.323092 1.992319 -1.943196
v 5.331855 1.990444 -1.914307
v 5.340521 1.992378 -1.885738
v 5.348706 1.998003 -1.858758
v 5.356352 2.007080 -1.833552
v 5.363400 2.019392 -1.810318
v 5.369793 2.034745 -1.789241
v 5.375475 2.052914 -1.770512
v 5.380386 2.073690 -1.754321
v 5.384470 2.096859 -1.740859
v 5.387668 2.122207 -1.730316
v 5.389924 2.149520 -1.722883
v 5.391178 2.178587 -1.718747
v 5.584228 2.210052 -1.026597
v 5.584045 2.171604 -1.028440
v 5.583395 2.134269 -1.035046
v 5.582292 2.098490 -1.046249
v 5.580751 2.064663 -1.061886
v 5.578791 2.033221 -1.081792
v 5.576746 2.004595 -1.102374
v 5.575203 1.979203 -1.111331
v 5.570448 1.957470 -1.127771
v 5.560700 1.939817 -1.159907
v 5.549958 1.926669 -1.195320
v 5.538266 1.918449 -1.233865
v 5.525665 1.915580 -1.275401
v 5.512586 1.918362 -1.318519
v 5.500388 1.926529 -1.358729
v 5.489114 1.939649 -1.395894
v 5.478806 1.957290 -1.429877
v 5.469503 1.979020 -1.460543
v 5.461248 2.004408 -1.487755
v 5.454083 2.033022 -1.511375
v 5.448049 2.064430 -1.531268
v 5.443186 2.098201 -1.547297
v 5.439538 2.133903 -1.559326
v 5.437144 2.171103 -1.567218
v 5.436046 2.209371 -1.570836
v 5.436286 2.248704 -1.570043
v 5.437880 2.286613 -1.564791
v 5.440781 2.322717 -1.555228
v 5.444947 2.356638 -1.541495
v 5.450334 2.387995 -1.523736
v 5.456898 2.416410 -1.502096
v 5.464597 2.441503 -1.476718
v 5.473385 2.462894 -1.447746
v 5.483220 2.480205 -1.415324
v 5.494059 2.493054 -1.379596
v 5.505856 2.501062 -1.340705
v 5.518569 2.503851 -1.298796
v 5.531142 2.501148 -1.257346
v 5.542978 2.493191 -1.218328
v 5.554016 2.480369 -1.181939
v 5.564197 2.463071 -1.148381
v 5.573457 2.441684 -1.117851
v 5.576240 2.416595 -1.105987
v 5.578146 2.388201 -1.088345
v 5.580233 2.356855 -1.067150
v 5.581905 2.322997 -1.050172
v 5.583142 2.286981 -1.037615
v 5.583922 2.249205 -1.029687
v 5.576464 2.209963 -1.104524
v 5.576320 2.240741 -1.105480
v 5.575921 2.269910 -1.107837
v 5.575165 2.297266 -1.111502
v 5.573917 2.322605 -1.116312
v 5.569819 2.345723 -1.129843
v 5.564441 2.366415 -1.147574
v 5.558352 2.384478 -1.167650
v 5.551613 2.399709 -1.189863
v 5.544289 2.411901 -1.214009
v 5.536440 2.420853 -1.239882
v 5.528130 2.426359 -1.267277
v 5.519421 2.428216 -1.295986
v 5.510701 2.426290 -1.324733
v 5.502470 2.420717 -1.351863
v 5.494788 2.411704 -1.377190
v 5.487709 2.399452 -1.400525
v 5.481292 2.384170 -1.421680
v 5.475592 2.366059 -1.440468
v 5.470668 2.345325 -1.456701
v 5.466577 2.322173 -1.470191
v 5.463374 2.296807 -1.480749
v 5.461116 2.269430 -1.488189
v 5.459863 2.240248 -1.492323
v 5.459669 2.209466 -1.492962
v 5.460554 2.178864 -1.490043
v 5.462464 2.149811 -1.483746
v 5.465337 2.122517 -1.474275
v 5.469112 2.097198 -1.461833
v 5.473725 2.074064 -1.446625
v 5.479117 2.053329 -1.428851
v 5.485225 2.035206 -1.408717
v 5.491986 2.019907 -1.386426
v 5.499341 2.007646 -1.362180
v 5.507227 1.998635 -1.336183
v 5.515583 1.993086 -1.308640
v 5.524345 1.991213 -1.279752
v 5.533011 1.993156 -1.251184
v 5.541196 1.998771 -1.224203
v 5.548842 2.007845 -1.198999
v 5.555890 2.020163 -1.175764
v 5.562284 2.035515 -1.154686
v 5.567965 2.053685 -1.135957
v 5.572876 2.074461 -1.119766
v 5.574673 2.097629 -1.113538
v 5.575562 2.122977 -1.109676
v 5.576111 2.150291 -1.106764
v 5.576395 2.179357 -1.104991
v 5.613720 2.496970 -0.727150
v 5.621799 2.497062 -0.645128
v 5.622659 1.923916 -0.636384
v 5.589192 1.923539 -0.976190
v 5.589081 1.997485 -0.977319
v 5.614470 1.997779 -0.719535
v 5.668987 1.924442 -0.166012
v 5.649698 1.924223 -0.361861
v 5.646354 1.925846 -0.395805
v 5.643365 1.930578 -0.426161
v 5.640716 1.938093 -0.453054
v 5.638396 1.948062 -0.476612
v 5.636393 1.960159 -0.496958
v 5.634692 1.974057 -0.514219
v 5.633283 1.989429 -0.528520
v 5.632154 2.005948 -0.539989
v 5.631291 2.023287 -0.548749
v 5.630682 2.041119 -0.554928
v 5.630316 2.059117 -0.558651
v 5.630178 2.076955 -0.560043
v 5.630255 2.095836 -0.559261
v 5.630541 2.113777 -0.556366
v 5.631027 2.130712 -0.551421
v 5.631711 2.146570 -0.544490
v 5.632583 2.161288 -0.535635
v 5.633638 2.174796 -0.524918
v 5.634871 2.187029 -0.512404
v 5.636274 2.197918 -0.498154
v 5.637843 2.207397 -0.482232
v 5.639569 2.215398 -0.464702
v 5.641448 2.221854 -0.445624
v 5.643473 2.226698 -0.425063
v 5.643470 2.228379 -0.425089
v 5.642063 2.234757 -0.439383
v 5.640782 2.241756 -0.452375
v 5.639630 2.249398 -0.464081
v 5.638602 2.257706 -0.474515
v 5.637698 2.266706 -0.483693
v 5.636917 2.276417 -0.491629
v 5.636256 2.286866 -0.498339
v 5.635714 2.298075 -0.503836
v 5.635291 2.310068 -0.508137
v 5.634984 2.322867 -0.511255
v 5.634791 2.336496 -0.513206
v 5.634713 2.350978 -0.514005
v 5.634795 2.369039 -0.513172
v 5.635099 2.386910 -0.510077
v 5.635634 2.404328 -0.504657
v 5.636403 2.421031 -0.496846
v 5.637415 2.436757 -0.486579
v 5.638674 2.451241 -0.473790
v 5.640188 2.464224 -0.458415
v 5.641963 2.475441 -0.440390
v 5.644006 2.484629 -0.419647
v 5.646323 2.491528 -0.396124
v 5.648921 2.495873 -0.369755
v 5.651804 2.497403 -0.340474
v 5.668126 2.497588 -0.174755
v 5.660159 2.423542 -0.255649
v 5.652740 2.423458 -0.330976
v 5.650990 2.422686 -0.348748
v 5.649442 2.420483 -0.364464
v 5.648088 2.416958 -0.378218
v 5.646916 2.412217 -0.390105
v 5.645920 2.406371 -0.400221
v 5.645089 2.399525 -0.408659
v 5.644413 2.391788 -0.415513
v 5.643885 2.383267 -0.420880
v 5.643494 2.374071 -0.424853
v 5.643230 2.364308 -0.427527
v 5.643086 2.354084 -0.428997
v 5.643050 2.343509 -0.429356
v 5.643153 2.328821 -0.428311
v 5.643416 2.315426 -0.425638
v 5.643841 2.303324 -0.421328
v 5.644427 2.292510 -0.415373
v 5.645177 2.282981 -0.407763
v 5.646090 2.274736 -0.398490
v 5.647168 2.267771 -0.387545
v 5.648412 2.262082 -0.374919
v 5.649822 2.257668 -0.360605
v 5.651398 2.254525 -0.344592
v 5.653144 2.252651 -0.326872
v 5.655058 2.252042 -0.307436
v 5.660416 2.252103 -0.253034
v 5.660528 2.178148 -0.251906
v 5.650800 2.178038 -0.350667
v 5.648773 2.177257 -0.371252
v 5.646935 2.175014 -0.389916
v 5.645283 2.171383 -0.406682
v 5.643817 2.166442 -0.421571
v 5.642533 2.160265 -0.434604
v 5.641430 2.152929 -0.445804
v 5.640506 2.144510 -0.455191
v 5.639757 2.135083 -0.462786
v 5.639184 2.124724 -0.468613
v 5.638783 2.113509 -0.472691
v 5.638551 2.101514 -0.475043
v 5.638487 2.088815 -0.475690
v 5.638559 2.078026 -0.474959
v 5.638752 2.067213 -0.472992
v 5.639082 2.056558 -0.469640
v 5.639564 2.046247 -0.464748
v 5.640212 2.036463 -0.458168
v 5.641042 2.027390 -0.449748
v 5.642067 2.019212 -0.439336
v 5.643304 2.012113 -0.426780
v 5.644766 2.006277 -0.411932
v 5.646469 2.001889 -0.394638
v 5.648428 1.999132 -0.374747
v 5.650659 1.998190 -0.352108
v 5.660798 1.998305 -0.249162
v 5.669911 2.497954 0.156629
v 5.637897 2.498317 0.481678
v 5.638388 1.925171 0.476688
v 5.671147 1.924801 0.144080
v 5.671084 1.998755 0.144724
v 5.646432 1.999033 0.395020
v 5.646279 2.177196 0.396571
v 5.669359 2.176936 0.162233
v 5.669296 2.250887 0.162877
v 5.646216 2.251150 0.397215
v 5.646068 2.424271 0.398722
v 5.669975 2.424000 0.155986
v 5.626840 2.465667 0.593942
v 5.625835 2.472121 0.604146
v 5.624818 2.478015 0.614472
v 5.623790 2.483350 0.624911
v 5.622752 2.488123 0.635449
v 5.621705 2.492337 0.646076
v 5.620651 2.495991 0.656780
v 5.619591 2.499084 0.667549
v 5.618525 2.501617 0.678371
v 5.617454 2.503590 0.689235
v 5.616381 2.505003 0.700130
v 5.615306 2.505856 0.711042
v 5.614231 2.506148 0.721962
v 5.611723 2.504948 0.747427
v 5.609376 2.501351 0.771253
v 5.607202 2.495447 0.793327
v 5.605212 2.487326 0.813535
v 5.603416 2.477078 0.831765
v 5.601827 2.464794 0.847903
v 5.600454 2.450565 0.861838
v 5.599310 2.434480 0.873455
v 5.598405 2.416629 0.882642
v 5.597751 2.397104 0.889286
v 5.597358 2.375994 0.893274
v 5.597238 2.353390 0.894493
v 5.597750 2.316947 0.889301
v 5.599104 2.285617 0.875549
v 5.601132 2.258541 0.854952
v 5.603667 2.234855 0.829223
v 5.606538 2.213698 0.800075
v 5.609577 2.194209 0.769220
v 5.612615 2.175524 0.738372
v 5.615483 2.156784 0.709245
v 5.618014 2.137125 0.683550
v 5.620038 2.115686 0.663003
v 5.621386 2.091605 0.649315
v 5.621890 2.064020 0.644199
v 5.621836 2.055890 0.644744
v 5.621661 2.047581 0.646529
v 5.621360 2.039261 0.649575
v 5.620935 2.031101 0.653898
v 5.620381 2.023268 0.659520
v 5.619698 2.015933 0.666458
v 5.618883 2.009265 0.674732
v 5.617935 2.003433 0.684361
v 5.616851 1.998606 0.695363
v 5.615630 1.994954 0.707758
v 5.614270 1.992646 0.721564
v 5.612770 1.991850 0.736801
v 5.611391 1.992476 0.750801
v 5.610027 1.994309 0.764645
v 5.608681 1.997333 0.778306
v 5.607356 2.001530 0.791759
v 5.606055 2.006881 0.804978
v 5.604779 2.013371 0.817935
v 5.603530 2.020980 0.830605
v 5.602314 2.029692 0.842960
v 5.601130 2.039490 0.854974
v 5.599983 2.050355 0.866622
v 5.598875 2.062270 0.877877
v 5.597808 2.075218 0.888711
v 5.597897 1.971009 0.887804
v 5.599089 1.962363 0.875702
v 5.600293 1.954513 0.863470
v 5.601515 1.947451 0.851076
v 5.602755 1.941167 0.838487
v 5.604017 1.935654 0.825671
v 5.605305 1.930902 0.812597
v 5.606620 1.926903 0.799232
v 5.607968 1.923647 0.785544
v 5.609352 1.921127 0.771501
v 5.610773 1.919332 0.757070
v 5.612236 1.918254 0.742220
v 5.613743 1.917886 0.726918
v 5.615964 1.919202 0.704365
v 5.618068 1.923109 0.683000
v 5.620041 1.929462 0.662976
v 5.621866 1.938119 0.644441
v 5.623530 1.948937 0.627546
v 5.625017 1.961773 0.612442
v 5.626314 1.976485 0.599280
v 5.627405 1.992930 0.588208
v 5.628274 2.010965 0.579379
v 5.628908 2.030446 0.572942
v 5.629292 2.051232 0.569048
v 5.629410 2.073179 0.567847
v 5.628894 2.115113 0.573088
v 5.627536 2.150414 0.586873
v 5.625505 2.180110 0.607493
v 5.622970 2.205223 0.633235
v 5.620099 2.226781 0.662387
v 5.617061 2.245807 0.693238
v 5.614022 2.263329 0.724075
v 5.611156 2.280369 0.753188
v 5.608626 2.297954 0.778864
v 5.606605 2.317109 0.799392
v 5.605258 2.338860 0.813060
v 5.604756 2.364231 0.818156
v 5.604825 2.374043 0.817467
v 5.605041 2.383276 0.815277
v 5.605396 2.391877 0.811664
v 5.605884 2.399794 0.806707
v 5.606497 2.406974 0.800483
v 5.607227 2.413365 0.793071
v 5.608067 2.418914 0.784550
v 5.609007 2.423570 0.774997
v 5.610043 2.427278 0.764491
v 5.611164 2.429988 0.753110
v 5.612362 2.431646 0.740933
v 5.613632 2.432201 0.728037
v 5.614602 2.431899 0.718204
v 5.615602 2.430969 0.708039
v 5.616634 2.429344 0.697565
v 5.617694 2.426957 0.686804
v 5.618780 2.423741 0.675780
v 5.619889 2.419630 0.664514
v 5.621020 2.414554 0.653030
v 5.622170 2.408449 0.641350
v 5.623338 2.401247 0.629498
v 5.624521 2.392879 0.617495
v 5.625715 2.383281 0.605365
v 5.626920 2.372384 0.593130
v 5.449492 2.212971 1.526508
v 5.450542 2.174521 1.523049
v 5.452921 2.137189 1.515206
v 5.456578 2.101398 1.503151
v 5.461460 2.067572 1.487057
v 5.467515 2.036135 1.467097
v 5.474690 2.007509 1.443444
v 5.482933 1.982119 1.416270
v 5.492192 1.960388 1.385748
v 5.502414 1.942734 1.352051
v 5.513546 1.929583 1.315353
v 5.525537 1.921364 1.275825
v 5.538333 1.918493 1.233642
v 5.551497 1.921281 1.190248
v 5.563656 1.929444 1.150163
v 5.574036 1.942562 1.115900
v 5.576714 1.960203 1.102643
v 5.579610 1.981933 1.073471
v 5.582407 2.007321 1.045078
v 5.584803 2.035935 1.020756
v 5.586784 2.067343 1.000631
v 5.588340 2.101114 0.984831
v 5.589458 2.136816 0.973483
v 5.590126 2.174017 0.966716
v 5.590328 2.212284 0.964657
v 5.590052 2.251617 0.967456
v 5.589305 2.289526 0.975039
v 5.588104 2.325630 0.987232
v 5.586467 2.359551 1.003860
v 5.584409 2.390908 1.024746
v 5.581950 2.419323 1.049716
v 5.579106 2.444417 1.078594
v 5.576195 2.465807 1.106265
v 5.569481 2.483118 1.130960
v 5.558258 2.495968 1.167958
v 5.546165 2.503969 1.207820
v 5.533257 2.506755 1.250376
v 5.520603 2.504063 1.292090
v 5.508804 2.496106 1.330984
v 5.497913 2.483274 1.366888
v 5.487984 2.465998 1.399622
v 5.479067 2.444597 1.429015
v 5.471218 2.419508 1.454890
v 5.464489 2.391106 1.477075
v 5.458931 2.359778 1.495393
v 5.454600 2.325913 1.509670
v 5.451549 2.289898 1.519731
v 5.449828 2.252122 1.525402
v 5.473374 2.212876 1.447783
v 5.473630 2.243654 1.446939
v 5.474954 2.272823 1.442575
v 5.477286 2.300179 1.434885
v 5.480569 2.325520 1.424065
v 5.484743 2.348629 1.410306
v 5.489749 2.369327 1.393801
v 5.495528 2.387383 1.374751
v 5.502023 2.402631 1.353340
v 5.509173 2.414821 1.329768
v 5.516920 2.423770 1.304231
v 5.525206 2.429272 1.276916
v 5.533970 2.431133 1.248023
v 5.542825 2.429203 1.218832
v 5.551260 2.423632 1.191027
v 5.559214 2.414612 1.164806
v 5.566625 2.402372 1.140377
v 5.573430 2.387090 1.117944
v 5.575994 2.368972 1.107427
v 5.577424 2.348239 1.095669
v 5.578983 2.325086 1.079836
v 5.580240 2.299720 1.067087
v 5.581170 2.272343 1.057636
v 5.581755 2.243161 1.051699
v 5.581973 2.212379 1.049489
v 5.581808 2.181778 1.051164
v 5.581273 2.152724 1.056595
v 5.580389 2.125431 1.065570
v 5.579176 2.100111 1.077877
v 5.577657 2.076977 1.093307
v 5.576376 2.056242 1.105117
v 5.574747 2.038119 1.113247
v 5.570204 2.022824 1.128575
v 5.563025 2.010556 1.152242
v 5.555241 2.001547 1.177902
v 5.546911 1.996001 1.205363
v 5.538092 1.994134 1.234435
v 5.529292 1.996070 1.263446
v 5.520901 2.001686 1.291106
v 5.512984 2.010761 1.317207
v 5.505603 2.023079 1.341539
v 5.498819 2.038430 1.363899
v 5.492699 2.056604 1.384077
v 5.487301 2.077376 1.401870
v 5.482691 2.100542 1.417068
v 5.478930 2.125895 1.429467
v 5.476082 2.153206 1.438855
v 5.474209 2.182270 1.445030
v 5.311544 2.500079 1.981264
v 5.316951 1.926933 1.963442
v 5.340122 1.926841 1.887056
v 5.337776 2.175597 1.894791
v 5.347469 2.175559 1.862834
v 5.350392 2.175215 1.853200
v 5.353281 2.173995 1.843675
v 5.356189 2.171585 1.834091
v 5.359164 2.167669 1.824281
v 5.362259 2.161932 1.814079
v 5.365523 2.154058 1.803319
v 5.369007 2.143733 1.791832
v 5.372763 2.130639 1.779454
v 5.376839 2.114464 1.766015
v 5.381288 2.094890 1.751351
v 5.386158 2.071604 1.735293
v 5.391503 2.044288 1.717677
v 5.413892 1.926549 1.643868
v 5.441556 1.926440 1.552672
v 5.438797 1.939403 1.561765
v 5.436313 1.951087 1.569958
v 5.434064 1.961686 1.577370
v 5.432016 1.971390 1.584121
v 5.430132 1.980393 1.590330
v 5.428377 1.988889 1.596118
v 5.426713 1.997069 1.601604
v 5.425104 2.005125 1.606907
v 5.423514 2.013252 1.612148
v 5.421907 2.021642 1.617445
v 5.420247 2.030487 1.622919
v 5.418497 2.039980 1.628689
v 5.415322 2.057465 1.639155
v 5.412261 2.074179 1.649245
v 5.409284 2.090122 1.659062
v 5.406357 2.105295 1.668709
v 5.403450 2.119698 1.678289
v 5.400533 2.133330 1.687905
v 5.397574 2.146193 1.697659
v 5.394543 2.158285 1.707654
v 5.391407 2.169607 1.717993
v 5.388135 2.180159 1.728779
v 5.384696 2.189942 1.740115
v 5.381060 2.198956 1.752104
v 5.385153 2.205552 1.738608
v 5.388915 2.213172 1.726208
v 5.392336 2.221785 1.714927
v 5.395412 2.231361 1.704787
v 5.398134 2.241874 1.695814
v 5.400496 2.253292 1.688030
v 5.402489 2.265587 1.681458
v 5.404108 2.278729 1.676123
v 5.405344 2.292691 1.672047
v 5.406191 2.307441 1.669254
v 5.406642 2.322952 1.667767
v 5.406690 2.339194 1.667610
v 5.406044 2.363186 1.669738
v 5.404596 2.385523 1.674514
v 5.402371 2.406124 1.681846
v 5.399401 2.424908 1.691638
v 5.395713 2.441792 1.703795
v 5.391336 2.456695 1.718224
v 5.386299 2.469534 1.734830
v 5.380630 2.480229 1.753517
v 5.374359 2.488696 1.774193
v 5.367513 2.494854 1.796761
v 5.360121 2.498623 1.821128
v 5.352212 2.499918 1.847198
v 5.335382 2.429395 1.902682
v 5.350278 2.429336 1.853577
v 5.355621 2.428639 1.835961
v 5.360432 2.426619 1.820100
v 5.364727 2.423317 1.805943
v 5.368522 2.418775 1.793436
v 5.371831 2.413032 1.782526
v 5.374671 2.406129 1.773160
v 5.377060 2.398108 1.765286
v 5.379013 2.389009 1.758851
v 5.380544 2.378873 1.753801
v 5.381672 2.367741 1.750085
v 5.382411 2.355653 1.747649
v 5.382777 2.342650 1.746440
v 5.382790 2.330752 1.746398
v 5.382459 2.319110 1.747490
v 5.381746 2.307871 1.749840
v 5.380614 2.297186 1.753571
v 5.379026 2.287202 1.758806
v 5.376944 2.278071 1.765671
v 5.374330 2.269938 1.774287
v 5.371147 2.262955 1.784780
v 5.367357 2.257271 1.797272
v 5.362924 2.253032 1.811888
v 5.357808 2.250390 1.828751
v 5.351974 2.249493 1.847985
v 5.337078 2.249551 1.897091
vn 0.8819 -0.0000 -0.4714
vn 0.8817 -0.0000 -0.4717
vn 0.8820 -0.0000 -0.4712
vn 0.9569 -0.0000 -0.2903
vn 0.9567 0.0007 -0.2909
vn 0.9568 -0.0001 -0.2906
vn 0.9563 0.0016 -0.2922
vn 0.9565 -0.0003 -0.2917
vn 0.9560 0.0015 -0.2933
vn 0.9561 -0.0003 -0.2931
vn 0.9558 0.0008 -0.2940
vn 0.9558 -0.0001 -0.2940
vn 0.9559 0.0001 -0.2938
vn 0.9558 -0.0011 -0.2940
vn 0.9562 0.0004 -0.2927
vn 0.9560 -0.0017 -0.2933
vn 0.9566 0.0003 -0.2913
vn 0.9564 -0.0016 -0.2921
vn 0.9569 -0.0000 -0.2904
vn 0.9569 -0.0002 -0.2905
vn 0.9937 0.0086 -0.1114
vn 0.9918 -0.0155 -0.1266
vn 0.9945 0.0030 -0.1044
vn 0.9940 -0.0084 -0.1087
vn 0.9949 0.0009 -0.1008
vn 0.9948 -0.0035 -0.1018
vn 0.9950 0.0003 -0.0994
vn 0.9950 -0.0007 -0.0995
vn 0.9951 -0.0000 -0.0991
vn 0.9951 -0.0001 -0.0991
vn 0.9950 0.0015 -0.1000
vn 0.9950 -0.0004 -0.0998
vn 0.9946 0.0053 -0.1036
vn 0.9948 -0.0014 -0.1020
vn 0.9934 0.0121 -0.1143
vn 0.9942 -0.0047 -0.1073
vn 0.9896 0.0217 -0.1422
vn 0.9929 -0.0137 -0.1180
vn 0.9595 0.0032 -0.2818
vn 0.9575 -0.0022 -0.2883
vn 0.9741 0.0202 -0.2251
vn 0.9619 -0.0147 -0.2730
vn 0.9913 0.0226 -0.1299
vn 0.9828 -0.0271 -0.1825
vn 0.9720 0.0364 -0.2322
vn 0.9861 -0.0347 -0.1623
vn 0.9594 0.0079 -0.2818
vn 0.9663 -0.0143 -0.2569
vn 0.9952 -0.0000 -0.0980
vn 0.9952 0.0001 -0.0981
vn 0.9952 -0.0001 -0.0980
vn 0.9952 0.0001 -0.0980
vn 0.9952 -0.0001 -0.0981
vn 0.9952 -0.0000 -0.0981
vn 0.9952 -0.0000 0.0980
vn 0.9952 -0.0000 0.0981
vn 0.9952 0.0001 0.0980
vn 0.9952 -0.0001 0.0981
vn 0.9952 -0.0001 0.0980
vn 0.9952 -0.0000 0.0979
vn 0.9569 -0.0000 0.2903
vn 0.9767 0.0128 0.2143
vn 0.9621 -0.0128 0.2724
vn 0.9585 0.0086 0.2849
vn 0.9644 -0.0033 0.2645
vn 0.9570 -0.0000 0.2899
vn 0.9570 -0.0001 0.2902
vn 0.9942 0.0106 0.1066
vn 0.9883 -0.0212 0.1508
vn 0.9951 0.0011 0.0990
vn 0.9947 -0.0031 0.1025
vn 0.9941 0.0069 0.1086
vn 0.9950 -0.0027 0.1003
vn 0.9820 0.0308 0.1865
vn 0.9929 -0.0174 0.1179
vn 0.9570 -0.0000 0.2902
vn 0.9569 -0.0000 0.2904
vn 0.9570 -0.0000 0.2903
vt 0.285714 0.000000
vt 0.357143 0.000000
vt 0.500000 0.000000
vt 0.214286 0.000000
vt 0.571429 0.000000
vt 0.142857 0.000000
vt 0.714286 0.000000
vt 0.785714 0.000000
vt 1.000000 0.000000
vt 0.000000 0.000000
vt 0.857143 0.000000
vt 0.071429 0.000000
vt 0.642857 0.000000
vt 0.428571 0.000000
vt 0.928571 0.000000
vt 0.042105 0.000000
vt 0.052632 0.000000
vt 0.968421 0.000000
vt 0.978947 0.000000
vt 0.031579 0.000000
vt 0.989474 0.000000
vt 0.021053 0.000000
vt 0.010526 0.000000
vt 0.505263 0.000000
vt 0.494737 0.000000
vt 0.515789 0.000000
vt 0.484211 0.000000
vt 0.526316 0.000000
vt 0.473684 0.000000
vt 0.536842 0.000000
vt 0.463158 0.000000
vt 0.547368 0.000000
vt 0.452632 0.000000
vt 0.094737 0.000000
vt 0.926316 0.000000
vt 0.084211 0.000000
vt 0.936842 0.000000
vt 0.578947 0.000000
vt 0.589474 0.000000
vt 0.421053 0.000000
vt 0.410526 0.000000
vt 0.915789 0.000000
vt 0.105263 0.000000
vt 0.905263 0.000000
vt 0.610526 0.000000
vt 0.400000 0.000000
vt 0.600000 0.000000
vt 0.894737 0.000000
vt 0.126316 0.000000
vt 0.884211 0.000000
vt 0.115789 0.000000
vt 0.621053 0.000000
vt 0.389474 0.000000
vt 0.073684 0.000000
vt 0.947368 0.000000
vt 0.063158 0.000000
vt 0.957895 0.000000
vt 0.557895 0.000000
vt 0.442105 0.000000
vt 0.568421 0.000000
vt 0.431579 0.000000
vt 0.378947 0.000000
vt 0.631579 0.000000
vt 0.642105 0.000000
vt 0.368421 0.000000
vt 0.147368 0.000000
vt 0.852632 0.000000
vt 0.863158 0.000000
vt 0.357895 0.000000
vt 0.652632 0.000000
vt 0.663158 0.000000
vt 0.136842 0.000000
vt 0.873684 0.000000
vt 0.842105 0.000000
vt 0.157895 0.000000
vt 0.168421 0.000000
vt 0.831579 0.000000
vt 0.673684 0.000000
vt 0.684211 0.000000
vt 0.336842 0.000000
vt 0.347368 0.000000
vt 0.200000 0.000000
vt 0.210526 0.000000
vt 0.800000 0.000000
vt 0.789474 0.000000
vt 0.221053 0.000000
vt 0.778947 0.000000
vt 0.231579 0.000000
vt 0.768421 0.000000
vt 0.242105 0.000000
vt 0.757895 0.000000
vt 0.252632 0.000000
vt 0.263158 0.000000
vt 0.747368 0.000000
vt 0.273684 0.000000
vt 0.736842 0.000000
vt 0.284211 0.000000
vt 0.726316 0.000000
vt 0.294737 0.000000
vt 0.715789 0.000000
vt 0.305263 0.000000
vt 0.178947 0.000000
vt 0.821053 0.000000
vt 0.189474 0.000000
vt 0.810526 0.000000
vt 0.705263 0.000000
vt 0.315789 0.000000
vt 0.694737 0.000000
vt 0.326316 0.000000
vt 0.752381 0.000000
vt 0.485714 0.000000
vt 0.742857 0.000000
vt 0.495238 0.000000
vt 0.723810 0.000000
vt 0.733333 0.000000
vt 0.761905 0.000000
vt 0.514286 0.000000
vt 0.476190 0.000000
vt 0.504762 0.000000
vt 0.990476 0.000000
vt 0.009524 0.000000
vt 0.980952 0.000000
vt 0.704762 0.000000
vt 0.771429 0.000000
vt 0.695238 0.000000
vt 0.533333 0.000000
vt 0.457143 0.000000
vt 0.523810 0.000000
vt 0.466667 0.000000
vt 0.971429 0.000000
vt 0.019048 0.000000
vt 0.028571 0.000000
vt 0.961905 0.000000
vt 0.238095 0.000000
vt 0.790476 0.000000
vt 0.247619 0.000000
vt 0.257143 0.000000
vt 0.676190 0.000000
vt 0.666667 0.000000
vt 0.780952 0.000000
vt 0.685714 0.000000
vt 0.552381 0.000000
vt 0.438095 0.000000
vt 0.542857 0.000000
vt 0.447619 0.000000
vt 0.219048 0.000000
vt 0.819048 0.000000
vt 0.209524 0.000000
vt 0.942857 0.000000
vt 0.047619 0.000000
vt 0.057143 0.000000
vt 0.933333 0.000000
vt 0.066667 0.000000
vt 0.923810 0.000000
vt 0.076190 0.000000
vt 0.914286 0.000000
vt 0.085714 0.000000
vt 0.904762 0.000000
vt 0.095238 0.000000
vt 0.104762 0.000000
vt 0.895238 0.000000
vt 0.114286 0.000000
vt 0.885714 0.000000
vt 0.123810 0.000000
vt 0.876190 0.000000
vt 0.133333 0.000000
vt 0.866667 0.000000
vt 0.152381 0.000000
vt 0.161905 0.000000
vt 0.847619 0.000000
vt 0.171429 0.000000
vt 0.180952 0.000000
vt 0.838095 0.000000
vt 0.190476 0.000000
vt 0.828571 0.000000
vt 0.038095 0.000000
vt 0.952381 0.000000
vt 0.809524 0.000000
vt 0.228571 0.000000
vt 0.266667 0.000000
vt 0.657143 0.000000
vt 0.276190 0.000000
vt 0.647619 0.000000
vt 0.295238 0.000000
vt 0.304762 0.000000
vt 0.638095 0.000000
vt 0.314286 0.000000
vt 0.323810 0.000000
vt 0.628571 0.000000
vt 0.333333 0.000000
vt 0.342857 0.000000
vt 0.619048 0.000000
vt 0.352381 0.000000
vt 0.361905 0.000000
vt 0.609524 0.000000
vt 0.371429 0.000000
vt 0.380952 0.000000
vt 0.590476 0.000000
vt 0.390476 0.000000
vt 0.580952 0.000000
vt 0.409524 0.000000
vt 0.419048 0.000000
vt 0.561905 0.000000
vt 0.181818 0.000000
vt 0.454545 0.000000
vt 0.545455 0.000000
vt 0.090909 0.000000
vt 0.818182 0.000000
vt 0.909091 0.000000
vt 0.272727 0.000000
vt 0.363636 0.000000
vt 0.636364 0.000000
vt 0.727273 0.000000
vt 0.471074 0.000000
vt 0.479339 0.000000
vt 0.504132 0.000000
vt 0.487603 0.000000
vt 0.495868 0.000000
vt 0.528926 0.000000
vt 0.537190 0.000000
vt 0.446281 0.000000
vt 0.520661 0.000000
vt 0.512397 0.000000
vt 0.462810 0.000000
vt 0.206612 0.000000
vt 0.214876 0.000000
vt 0.793388 0.000000
vt 0.198347 0.000000
vt 0.801653 0.000000
vt 0.190083 0.000000
vt 0.809917 0.000000
vt 0.173554 0.000000
vt 0.570248 0.000000
vt 0.421488 0.000000
vt 0.561983 0.000000
vt 0.586777 0.000000
vt 0.404959 0.000000
vt 0.578512 0.000000
vt 0.413223 0.000000
vt 0.603306 0.000000
vt 0.396694 0.000000
vt 0.595041 0.000000
vt 0.107438 0.000000
vt 0.884298 0.000000
vt 0.892562 0.000000
vt 0.115702 0.000000
vt 0.876033 0.000000
vt 0.247934 0.000000
vt 0.768595 0.000000
vt 0.239669 0.000000
vt 0.776860 0.000000
vt 0.132231 0.000000
vt 0.859504 0.000000
vt 0.867769 0.000000
vt 0.123967 0.000000
vt 0.553719 0.000000
vt 0.429752 0.000000
vt 0.438017 0.000000
vt 0.231405 0.000000
vt 0.223140 0.000000
vt 0.785124 0.000000
vt 0.826446 0.000000
vt 0.165289 0.000000
vt 0.834711 0.000000
vt 0.157025 0.000000
vt 0.842975 0.000000
vt 0.148760 0.000000
vt 0.851240 0.000000
vt 0.140496 0.000000
vt 0.099174 0.000000
vt 0.900826 0.000000
vt 0.917355 0.000000
vt 0.082645 0.000000
vt 0.925620 0.000000
vt 0.074380 0.000000
vt 0.380165 0.000000
vt 0.388430 0.000000
vt 0.611570 0.000000
vt 0.066116 0.000000
vt 0.933884 0.000000
vt 0.057851 0.000000
vt 0.619835 0.000000
vt 0.371901 0.000000
vt 0.628099 0.000000
vt 0.752066 0.000000
vt 0.264463 0.000000
vt 0.743802 0.000000
vt 0.991736 0.000000
vt 0.983471 0.000000
vt 0.669421 0.000000
vt 0.677686 0.000000
vt 0.322314 0.000000
vt 0.314050 0.000000
vt 0.685950 0.000000
vt 0.305785 0.000000
vt 0.694215 0.000000
vt 0.297521 0.000000
vt 0.702479 0.000000
vt 0.289256 0.000000
vt 0.710744 0.000000
vt 0.719008 0.000000
vt 0.975207 0.000000
vt 0.966942 0.000000
vt 0.008264 0.000000
vt 0.016529 0.000000
vt 0.958678 0.000000
vt 0.024793 0.000000
vt 0.355372 0.000000
vt 0.644628 0.000000
vt 0.347107 0.000000
vt 0.652893 0.000000
vt 0.338843 0.000000
vt 0.661157 0.000000
vt 0.330579 0.000000
vt 0.280992 0.000000
vt 0.735537 0.000000
vt 0.950413 0.000000
vt 0.033058 0.000000
vt 0.041322 0.000000
vt 0.942149 0.000000
vt 0.049587 0.000000
vt 0.256198 0.000000
vt 0.760331 0.000000
vt 0.021505 0.000000
vt 0.032258 0.000000
vt 0.010753 0.000000
vt 0.064516 0.000000
vt 0.989247 0.000000
vt 0.053763 0.000000
vt 0.043011 0.000000
vt 0.720430 0.000000
vt 0.086022 0.000000
vt 0.978495 0.000000
vt 0.075269 0.000000
vt 0.096774 0.000000
vt 0.967742 0.000000
vt 0.752688 0.000000
vt 0.698925 0.000000
vt 0.741935 0.000000
vt 0.709677 0.000000
vt 0.731183 0.000000
vt 0.935484 0.000000
vt 0.946237 0.000000
vt 0.451613 0.000000
vt 0.774194 0.000000
vt 0.784946 0.000000
vt 0.677419 0.000000
vt 0.118280 0.000000
vt 0.107527 0.000000
vt 0.956989 0.000000
vt 0.763441 0.000000
vt 0.688172 0.000000
vt 0.376344 0.000000
vt 0.387097 0.000000
vt 0.161290 0.000000
vt 0.193548 0.000000
vt 0.204301 0.000000
vt 0.182796 0.000000
vt 0.215054 0.000000
vt 0.225806 0.000000
vt 0.236559 0.000000
vt 0.247312 0.000000
vt 0.258065 0.000000
vt 0.268817 0.000000
vt 0.279570 0.000000
vt 0.290323 0.000000
vt 0.301075 0.000000
vt 0.311828 0.000000
vt 0.172043 0.000000
vt 0.322581 0.000000
vt 0.344086 0.000000
vt 0.354839 0.000000
vt 0.365591 0.000000
vt 0.580645 0.000000
vt 0.591398 0.000000
vt 0.860215 0.000000
vt 0.150538 0.000000
vt 0.397849 0.000000
vt 0.408602 0.000000
vt 0.139785 0.000000
vt 0.419355 0.000000
vt 0.430108 0.000000
vt 0.129032 0.000000
vt 0.440860 0.000000
vt 0.462366 0.000000
vt 0.473118 0.000000
vt 0.924731 0.000000
vt 0.483871 0.000000
vt 0.494624 0.000000
vt 0.913979 0.000000
vt 0.505376 0.000000
vt 0.903226 0.000000
vt 0.516129 0.000000
vt 0.526882 0.000000
vt 0.892473 0.000000
vt 0.537634 0.000000
vt 0.548387 0.000000
vt 0.881720 0.000000
vt 0.559140 0.000000
vt 0.870968 0.000000
vt 0.569892 0.000000
vt 0.849462 0.000000
vt 0.602151 0.000000
vt 0.838710 0.000000
vt 0.612903 0.000000
vt 0.827957 0.000000
vt 0.623656 0.000000
vt 0.817204 0.000000
vt 0.634409 0.000000
vt 0.806452 0.000000
vt 0.645161 0.000000
vt 0.795699 0.000000
vt 0.655914 0.000000
s 0
usemtl Material.002
f 341/275/239 342/276/239 344/277/239
f 340/278/239 341/275/239 344/277/239
f 344/277/239 345/279/239 340/278/239
f 339/280/239 347/281/239 348/282/239
f 351/283/239 337/284/239 349/285/239
f 338/286/239 349/285/239 337/284/239
f 349/285/240 338/286/240 348/282/240
f 339/280/239 348/282/239 338/286/239
f 347/281/239 339/280/239 346/287/239
f 345/279/239 346/287/239 339/280/239
f 340/278/239 345/279/239 339/280/239
f 342/276/241 343/288/241 344/277/241
f 351/283/239 349/285/239 350/289/239
f 356/290/242 357/291/242 444/292/242
f 444/292/242 445/293/242 356/290/242
f 355/294/242 356/290/242 445/293/242
f 445/293/242 446/295/242 355/294/242
f 354/296/242 355/294/242 446/295/242
f 446/295/242 447/283/242 354/296/242
f 353/297/242 354/296/242 447/283/242
f 447/283/242 400/298/242 353/297/242
f 352/284/242 353/297/242 400/298/242
f 399/299/242 352/284/242 400/298/242
f 400/298/242 401/300/242 399/299/242
f 398/301/242 399/299/242 401/300/242
f 401/300/242 402/302/242 398/301/242
f 397/303/242 398/301/242 402/302/242
f 402/302/242 403/304/242 397/303/242
f 396/305/242 397/303/242 403/304/242
f 403/304/242 404/306/242 396/305/242
f 395/307/242 396/305/242 404/306/242
f 361/308/242 440/309/242 360/310/242
f 440/309/242 441/311/242 360/310/242
f 407/312/242 408/313/242 392/314/242
f 408/313/242 391/315/242 392/314/242
f 439/316/242 362/317/242 438/318/242
f 410/319/242 390/320/242 409/321/242
f 437/322/242 364/323/242 436/324/242
f 364/323/242 437/322/242 363/325/242
f 438/318/242 362/317/242 363/325/242
f 363/325/242 437/322/242 438/318/242
f 411/326/242 389/327/242 410/319/242
f 390/320/242 410/319/242 389/327/242
f 362/317/242 439/316/242 361/308/242
f 440/309/242 361/308/242 439/316/242
f 391/315/242 408/313/242 409/321/242
f 409/321/242 390/320/242 391/315/242
f 360/310/242 441/311/242 359/328/242
f 441/311/242 442/329/242 359/328/242
f 358/330/242 359/328/242 442/329/242
f 442/329/242 443/331/242 358/330/242
f 357/291/242 358/330/242 443/331/242
f 444/292/242 357/291/242 443/331/242
f 395/307/242 404/306/242 405/332/242
f 394/333/242 395/307/242 405/332/242
f 405/332/242 406/334/242 394/333/242
f 393/335/242 394/333/242 406/334/242
f 406/334/242 407/312/242 393/335/242
f 407/312/242 392/314/242 393/335/242
f 388/336/242 412/337/242 413/338/242
f 413/338/242 387/339/242 388/336/242
f 366/340/242 433/341/242 434/342/242
f 386/343/242 414/344/242 415/345/242
f 366/340/242 434/342/242 365/346/242
f 435/347/242 365/346/242 434/342/242
f 387/339/242 413/338/242 414/344/242
f 414/344/242 386/343/242 387/339/242
f 432/348/242 367/349/242 368/350/242
f 431/351/242 432/348/242 368/350/242
f 416/352/242 417/353/242 384/354/242
f 385/355/242 416/352/242 384/354/242
f 433/341/242 366/340/242 367/349/242
f 367/349/242 432/348/242 433/341/242
f 416/352/242 385/355/242 415/345/242
f 386/343/242 415/345/242 385/355/242
f 371/356/242 372/357/242 428/358/242
f 427/359/242 428/358/242 372/357/242
f 372/357/243 373/360/243 427/359/243
f 426/361/244 427/359/244 373/360/244
f 373/360/245 374/362/245 426/361/245
f 425/363/246 426/361/246 374/362/246
f 374/362/247 375/364/247 425/363/247
f 424/365/248 425/363/248 375/364/248
f 375/364/249 376/366/249 424/365/249
f 376/366/250 377/367/250 424/365/250
f 423/368/251 424/365/251 377/367/251
f 377/367/252 378/369/252 423/368/252
f 422/370/253 423/368/253 378/369/253
f 378/369/254 379/371/254 422/370/254
f 421/372/255 422/370/255 379/371/255
f 379/371/256 380/373/256 421/372/256
f 420/374/257 421/372/257 380/373/257
f 380/373/258 381/375/258 420/374/258
f 431/351/242 368/350/242 369/376/242
f 430/377/242 431/351/242 369/376/242
f 369/376/242 370/378/242 430/377/242
f 429/379/242 430/377/242 370/378/242
f 370/378/242 371/356/242 429/379/242
f 371/356/242 428/358/242 429/379/242
f 420/374/242 381/375/242 419/380/242
f 381/375/242 382/381/242 419/380/242
f 418/382/242 419/380/242 382/381/242
f 382/381/242 383/383/242 418/382/242
f 417/353/242 418/382/242 383/383/242
f 384/354/242 417/353/242 383/383/242
f 365/346/242 435/347/242 364/323/242
f 436/324/242 364/323/242 435/347/242
f 412/337/242 388/336/242 411/326/242
f 389/327/242 411/326/242 388/336/242
f 452/290/259 453/291/259 540/292/259
f 540/292/260 541/293/260 452/290/260
f 451/294/261 452/290/261 541/293/261
f 541/293/262 542/295/262 451/294/262
f 450/296/263 451/294/263 542/295/263
f 542/295/264 543/283/264 450/296/264
f 449/297/265 450/296/265 543/283/265
f 543/283/266 496/298/266 449/297/266
f 448/284/267 449/297/267 496/298/267
f 495/299/268 448/284/268 496/298/268
f 496/298/269 497/300/269 495/299/269
f 494/301/270 495/299/270 497/300/270
f 497/300/271 498/302/271 494/301/271
f 493/303/272 494/301/272 498/302/272
f 498/302/273 499/304/273 493/303/273
f 492/305/274 493/303/274 499/304/274
f 499/304/275 500/306/275 492/305/275
f 491/307/276 492/305/276 500/306/276
f 457/308/242 536/309/242 456/310/242
f 536/309/242 537/311/242 456/310/242
f 503/312/242 504/313/242 488/314/242
f 504/313/242 487/315/242 488/314/242
f 535/316/242 458/317/242 534/318/242
f 506/319/242 486/320/242 505/321/242
f 533/322/242 459/325/242 460/323/242
f 460/323/242 532/324/242 533/322/242
f 534/318/242 458/317/242 459/325/242
f 459/325/242 533/322/242 534/318/242
f 507/326/242 485/327/242 506/319/242
f 486/320/242 506/319/242 485/327/242
f 458/317/242 535/316/242 457/308/242
f 536/309/242 457/308/242 535/316/242
f 487/315/242 504/313/242 505/321/242
f 505/321/242 486/320/242 487/315/242
f 456/310/277 537/311/277 455/328/277
f 537/311/278 538/329/278 455/328/278
f 454/330/279 455/328/279 538/329/279
f 538/329/280 539/331/280 454/330/280
f 453/291/281 454/330/281 539/331/281
f 540/292/282 453/291/282 539/331/282
f 491/307/283 500/306/283 501/332/283
f 490/333/284 491/307/284 501/332/284
f 501/332/285 502/334/285 490/333/285
f 489/335/286 490/333/286 502/334/286
f 502/334/242 503/312/242 489/335/242
f 503/312/242 488/314/242 489/335/242
f 484/336/242 508/337/242 509/338/242
f 484/336/242 509/338/242 483/339/242
f 462/340/242 529/341/242 530/342/242
f 482/343/242 510/344/242 511/345/242
f 462/340/242 530/342/242 461/346/242
f 531/347/242 461/346/242 530/342/242
f 483/339/242 509/338/242 510/344/242
f 510/344/242 482/343/242 483/339/242
f 528/348/242 463/349/242 464/350/242
f 527/351/242 528/348/242 464/350/242
f 512/352/242 513/353/242 480/354/242
f 481/355/242 512/352/242 480/354/242
f 529/341/242 462/340/242 463/349/242
f 463/349/242 528/348/242 529/341/242
f 512/352/242 481/355/242 511/345/242
f 482/343/242 511/345/242 481/355/242
f 467/356/242 468/357/242 524/358/242
f 523/359/242 524/358/242 468/357/242
f 468/357/242 469/360/242 523/359/242
f 522/361/242 523/359/242 469/360/242
f 469/360/242 470/362/242 522/361/242
f 521/363/242 522/361/242 470/362/242
f 470/362/242 471/364/242 521/363/242
f 520/365/242 521/363/242 471/364/242
f 471/364/242 472/366/242 520/365/242
f 472/366/242 473/367/242 520/365/242
f 519/368/242 520/365/242 473/367/242
f 473/367/242 474/369/242 519/368/242
f 518/370/242 519/368/242 474/369/242
f 474/369/242 475/371/242 518/370/242
f 517/372/242 518/370/242 475/371/242
f 475/371/242 476/373/242 517/372/242
f 516/374/242 517/372/242 476/373/242
f 476/373/242 477/375/242 516/374/242
f 527/351/242 464/350/242 465/376/242
f 526/377/242 527/351/242 465/376/242
f 465/376/242 466/378/242 526/377/242
f 525/379/242 526/377/242 466/378/242
f 466/378/242 467/356/242 525/379/242
f 467/356/242 524/358/242 525/379/242
f 516/374/242 477/375/242 515/380/242
f 477/375/242 478/381/242 515/380/242
f 514/382/242 515/380/242 478/381/242
f 478/381/242 479/383/242 514/382/242
f 513/353/242 514/382/242 479/383/242
f 480/354/242 513/353/242 479/383/242
f 461/346/242 531/347/242 460/323/242
f 532/324/242 460/323/242 531/347/242
f 508/337/242 484/336/242 507/326/242
f 485/327/242 507/326/242 484/336/242
f 545/356/287 546/320/287 549/283/287
f 549/283/287 546/320/287 547/321/287
f 547/321/287 548/358/287 549/283/287
f 545/356/287 549/283/287 544/284/287
f 550/284/287 655/283/287 629/384/287
f 601/385/287 550/284/287 629/384/287
f 629/384/287 628/386/287 601/385/287
f 628/386/287 602/387/287 601/385/287
f 626/388/287 627/389/287 630/390/287
f 630/390/287 625/281/287 626/388/287
f 604/391/287 600/392/287 603/393/287
f 630/390/287 627/389/287 629/384/287
f 628/386/287 629/384/287 627/389/287
f 603/393/287 600/392/287 602/387/287
f 601/385/287 602/387/287 600/392/287
f 654/394/287 551/395/287 653/396/287
f 624/397/287 631/398/287 623/399/287
f 606/400/287 598/401/287 605/402/287
f 599/403/287 605/402/287 598/401/287
f 655/283/287 550/284/287 551/395/287
f 551/395/287 654/394/287 655/283/287
f 631/398/287 624/397/287 630/390/287
f 625/281/287 630/390/287 624/397/287
f 605/402/287 599/403/287 604/391/287
f 600/392/287 604/391/287 599/403/287
f 652/404/287 552/405/287 553/406/287
f 651/407/287 652/404/287 553/406/287
f 634/358/287 575/408/287 633/409/287
f 576/410/287 577/411/287 621/412/287
f 620/413/287 621/412/287 577/411/287
f 653/396/287 551/395/287 552/405/287
f 552/405/287 652/404/287 653/396/287
f 633/409/287 575/408/287 632/414/287
f 631/398/287 632/414/287 575/408/287
f 623/399/287 631/398/287 575/408/287
f 575/408/288 576/410/288 623/399/288
f 622/415/287 623/399/287 576/410/287
f 576/410/287 621/412/287 622/415/287
f 608/416/287 596/417/287 607/418/287
f 596/417/287 597/419/287 607/418/287
f 606/400/287 607/418/287 597/419/287
f 598/401/287 606/400/287 597/419/287
f 573/420/287 636/421/287 572/422/287
f 649/423/287 555/424/287 556/425/287
f 648/426/287 649/423/287 556/425/287
f 556/425/287 557/427/287 648/426/287
f 647/428/287 648/426/287 557/427/287
f 557/427/287 558/429/287 647/428/287
f 646/430/287 647/428/287 558/429/287
f 558/429/287 559/431/287 646/430/287
f 645/432/287 646/430/287 559/431/287
f 559/431/287 560/433/287 645/432/287
f 560/433/287 561/434/287 645/432/287
f 644/435/287 645/432/287 561/434/287
f 561/434/287 562/436/287 644/435/287
f 643/437/287 644/435/287 562/436/287
f 562/436/287 563/438/287 643/437/287
f 642/439/289 643/437/289 563/438/289
f 563/438/287 564/440/287 642/439/287
f 564/440/287 565/280/287 642/439/287
f 641/441/290 642/439/290 565/280/290
f 565/280/287 566/442/287 641/441/287
f 640/285/287 641/441/287 566/442/287
f 566/442/287 567/443/287 640/285/287
f 639/444/287 640/285/287 567/443/287
f 567/443/287 568/445/287 639/444/287
f 568/445/287 569/446/287 639/444/287
f 638/447/290 639/444/290 569/446/290
f 569/446/287 570/448/287 638/447/287
f 637/449/291 638/447/291 570/448/291
f 570/448/287 571/356/287 637/449/287
f 636/421/287 637/449/287 571/356/287
f 572/422/287 636/421/287 571/356/287
f 651/407/287 553/406/287 554/450/287
f 650/451/287 651/407/287 554/450/287
f 554/450/287 555/424/287 650/451/287
f 555/424/287 649/423/287 650/451/287
f 636/421/292 573/420/292 635/452/292
f 573/420/287 574/453/287 635/452/287
f 634/358/287 635/452/287 574/453/287
f 575/408/287 634/358/287 574/453/287
f 620/413/287 577/411/287 578/454/287
f 619/455/287 620/413/287 578/454/287
f 578/454/287 579/456/287 619/455/287
f 579/456/287 580/275/287 619/455/287
f 618/457/287 619/455/287 580/275/287
f 580/275/287 581/458/287 618/457/287
f 581/458/287 582/459/287 618/457/287
f 617/460/287 618/457/287 582/459/287
f 582/459/287 583/461/287 617/460/287
f 583/461/287 584/462/287 617/460/287
f 616/463/287 617/460/287 584/462/287
f 584/462/287 585/464/287 616/463/287
f 585/464/289 586/465/289 616/463/289
f 615/466/287 616/463/287 586/465/287
f 586/465/290 587/467/290 615/466/290
f 587/467/287 588/468/287 615/466/287
f 614/469/289 615/466/289 588/468/289
f 588/468/287 589/470/287 614/469/287
f 613/321/287 614/469/287 589/470/287
f 589/470/287 590/471/287 613/321/287
f 612/472/287 613/321/287 590/471/287
f 590/471/287 591/473/287 612/472/287
f 591/473/287 592/320/287 612/472/287
f 611/474/287 612/472/287 592/320/287
f 592/320/287 593/475/287 611/474/287
f 610/279/287 611/474/287 593/475/287
f 593/475/287 594/476/287 610/279/287
f 609/477/287 610/279/287 594/476/287
f 594/476/287 595/288/287 609/477/287
f 608/416/287 609/477/287 595/288/287
f 596/417/287 608/416/287 595/288/287
f 658/478/293 661/479/293 662/480/293
f 657/481/293 658/478/293 662/480/293
f 662/480/293 665/482/293 657/481/293
f 665/482/293 666/483/293 657/481/293
f 661/479/293 658/478/293 659/484/293
f 659/484/293 660/485/293 661/479/293
f 665/482/293 662/480/293 663/486/293
f 663/486/293 664/487/293 665/482/293
f 667/283/293 656/284/293 666/483/293
f 657/481/293 666/483/293 656/284/293
f 725/488/293 726/489/293 729/490/293
f 726/489/293 727/491/293 729/490/293
f 728/492/293 729/490/293 727/491/293
f 732/493/293 733/494/293 722/495/293
f 732/493/294 722/495/294 731/496/294
f 722/495/293 723/479/293 731/496/293
f 730/497/293 731/496/293 723/479/293
f 723/479/293 724/498/293 730/497/293
f 729/490/293 730/497/293 724/498/293
f 725/488/293 729/490/293 724/498/293
f 693/499/293 694/500/293 764/501/293
f 692/502/293 693/499/293 764/501/293
f 764/501/293 765/503/293 692/502/293
f 691/504/293 692/502/293 765/503/293
f 765/503/293 766/505/293 691/504/293
f 690/478/293 691/504/293 766/505/293
f 766/505/293 767/482/293 690/478/293
f 689/506/293 690/478/293 767/482/293
f 737/507/293 719/508/293 736/509/293
f 739/510/293 717/511/293 738/512/293
f 717/511/293 718/513/293 738/512/293
f 741/514/293 716/515/293 740/516/293
f 681/517/293 775/518/293 776/519/293
f 717/511/293 739/510/293 740/516/293
f 740/516/293 716/515/293 717/511/293
f 682/520/293 774/521/293 775/518/293
f 775/518/293 681/517/293 682/520/293
f 738/512/293 718/513/293 737/507/293
f 719/508/294 737/507/294 718/513/294
f 698/522/293 761/523/293 697/524/293
f 762/525/293 697/524/293 761/523/293
f 684/526/293 772/527/293 773/528/293
f 683/529/293 684/526/293 773/528/293
f 773/528/294 774/521/294 683/529/294
f 774/521/293 682/520/293 683/529/293
f 736/509/293 719/508/293 735/530/293
f 719/508/293 720/531/293 735/530/293
f 734/480/293 735/530/293 720/531/293
f 720/531/293 721/532/293 734/480/293
f 733/494/293 734/480/293 721/532/293
f 722/495/293 733/494/293 721/532/293
f 697/524/293 762/525/293 696/533/293
f 695/534/293 696/533/293 762/525/293
f 762/525/293 763/535/293 695/534/293
f 694/500/293 695/534/293 763/535/293
f 764/501/293 694/500/293 763/535/293
f 689/506/293 767/482/293 768/536/293
f 688/537/293 689/506/293 768/536/293
f 768/536/293 769/538/293 688/537/293
f 687/539/293 688/537/293 769/538/293
f 769/538/293 770/540/293 687/539/293
f 686/541/293 687/539/293 770/540/293
f 770/540/295 771/542/295 686/541/295
f 685/543/293 686/541/293 771/542/293
f 771/542/296 772/527/296 685/543/296
f 772/527/293 684/526/293 685/543/293
f 778/483/294 680/544/294 777/545/294
f 779/546/293 678/547/293 679/481/293
f 780/548/293 677/549/293 779/546/293
f 678/547/293 779/546/293 677/549/293
f 714/550/293 715/551/293 742/552/293
f 779/546/293 679/481/293 778/483/293
f 680/544/293 778/483/293 679/481/293
f 676/553/294 781/554/294 675/555/294
f 714/550/293 742/552/293 743/556/293
f 713/557/293 714/550/293 743/556/293
f 743/556/293 744/558/293 713/557/293
f 744/558/293 712/485/293 713/557/293
f 759/559/293 700/560/293 758/561/293
f 781/554/293 676/553/293 780/548/293
f 677/549/293 780/548/293 676/553/293
f 788/562/293 789/283/293 668/284/293
f 787/563/293 788/562/293 668/284/293
f 749/564/293 750/565/293 707/566/293
f 706/567/293 707/566/293 750/565/293
f 750/565/293 751/568/293 706/567/293
f 705/569/295 706/567/295 751/568/295
f 751/568/293 752/570/293 705/569/293
f 704/571/297 705/569/297 752/570/297
f 752/570/293 753/572/293 704/571/293
f 703/573/293 704/571/293 753/572/293
f 753/572/293 754/574/293 703/573/293
f 754/574/293 755/575/293 703/573/293
f 787/563/293 668/284/293 786/576/293
f 785/577/293 786/576/293 668/284/293
f 668/284/293 669/578/293 785/577/293
f 669/578/293 670/579/293 785/577/293
f 784/580/293 785/577/293 670/579/293
f 671/581/293 784/580/293 670/579/293
f 712/485/293 744/558/293 745/486/293
f 711/582/293 712/485/293 745/486/293
f 745/486/293 746/583/293 711/582/293
f 710/584/293 711/582/293 746/583/293
f 746/583/293 747/585/293 710/584/293
f 709/586/293 710/584/293 747/585/293
f 747/585/293 748/587/293 709/586/293
f 708/588/293 709/586/293 748/587/293
f 748/587/293 749/564/293 708/588/293
f 749/564/293 707/566/293 708/588/293
f 703/573/293 755/575/293 702/589/293
f 755/575/293 756/487/293 702/589/293
f 701/484/293 702/589/293 756/487/293
f 756/487/293 757/590/293 701/484/293
f 700/560/293 701/484/293 757/590/293
f 758/561/293 700/560/293 757/590/293
f 784/580/293 671/581/293 783/591/293
f 671/581/294 672/592/294 783/591/294
f 672/592/293 673/593/293 783/591/293
f 782/594/293 783/591/293 673/593/293
f 673/593/293 674/595/293 782/594/293
f 781/554/293 782/594/293 674/595/293
f 675/555/298 781/554/298 674/595/298
f 742/552/293 715/551/293 741/514/293
f 716/515/293 741/514/293 715/551/293
f 700/560/293 759/559/293 699/596/293
f 759/559/293 760/597/293 699/596/293
f 698/522/293 699/596/293 760/597/293
f 761/523/293 698/522/293 760/597/293
f 681/517/293 776/519/293 777/545/293
f 777/545/293 680/544/293 681/517/293
f 794/290/299 795/291/299 882/292/299
f 882/292/299 883/293/299 794/290/299
f 793/294/299 794/290/299 883/293/299
f 883/293/299 884/295/299 793/294/299
f 792/296/299 793/294/299 884/295/299
f 884/295/299 885/283/299 792/296/299
f 791/297/299 792/296/299 885/283/299
f 885/283/299 838/298/299 791/297/299
f 790/284/299 791/297/299 838/298/299
f 837/299/299 790/284/299 838/298/299
f 838/298/299 839/300/299 837/299/299
f 836/301/299 837/299/299 839/300/299
f 839/300/299 840/302/299 836/301/299
f 835/303/299 836/301/299 840/302/299
f 840/302/299 841/304/299 835/303/299
f 834/305/299 835/303/299 841/304/299
f 841/304/299 842/306/299 834/305/299
f 833/307/299 834/305/299 842/306/299
f 799/308/299 878/309/299 798/310/299
f 878/309/299 879/311/299 798/310/299
f 845/312/299 846/313/299 830/314/299
f 846/313/299 829/315/299 830/314/299
f 877/316/299 800/317/299 876/318/299
f 848/319/299 828/320/299 847/321/299
f 875/322/299 801/325/299 802/323/299
f 802/323/299 874/324/299 875/322/299
f 876/318/299 800/317/299 801/325/299
f 801/325/299 875/322/299 876/318/299
f 849/326/299 827/327/299 848/319/299
f 828/320/299 848/319/299 827/327/299
f 800/317/299 877/316/299 799/308/299
f 878/309/299 799/308/299 877/316/299
f 829/315/299 846/313/299 847/321/299
f 847/321/299 828/320/299 829/315/299
f 798/310/299 879/311/299 797/328/299
f 879/311/299 880/329/299 797/328/299
f 796/330/299 797/328/299 880/329/299
f 880/329/299 881/331/299 796/330/299
f 795/291/299 796/330/299 881/331/299
f 882/292/299 795/291/299 881/331/299
f 833/307/299 842/306/299 843/332/299
f 832/333/299 833/307/299 843/332/299
f 843/332/299 844/334/299 832/333/299
f 831/335/299 832/333/299 844/334/299
f 844/334/299 845/312/299 831/335/299
f 845/312/299 830/314/299 831/335/299
f 826/336/299 850/337/299 851/338/299
f 851/338/299 825/339/299 826/336/299
f 804/340/299 871/341/299 872/342/299
f 824/343/299 852/344/299 853/345/299
f 804/340/299 872/342/299 803/346/299
f 873/347/299 803/346/299 872/342/299
f 825/339/299 851/338/299 852/344/299
f 852/344/299 824/343/299 825/339/299
f 870/348/300 805/349/300 806/350/300
f 869/351/301 870/348/301 806/350/301
f 854/352/302 855/353/302 822/354/302
f 823/355/303 854/352/303 822/354/303
f 871/341/304 804/340/304 805/349/304
f 805/349/305 870/348/305 871/341/305
f 854/352/299 823/355/299 853/345/299
f 824/343/299 853/345/299 823/355/299
f 809/356/293 810/357/293 866/358/293
f 865/359/293 866/358/293 810/357/293
f 810/357/293 811/360/293 865/359/293
f 864/361/293 865/359/293 811/360/293
f 811/360/293 812/362/293 864/361/293
f 863/363/293 864/361/293 812/362/293
f 812/362/293 813/364/293 863/363/293
f 862/365/293 863/363/293 813/364/293
f 813/364/293 814/366/293 862/365/293
f 814/366/293 815/367/293 862/365/293
f 861/368/293 862/365/293 815/367/293
f 815/367/293 816/369/293 861/368/293
f 860/370/293 861/368/293 816/369/293
f 816/369/293 817/371/293 860/370/293
f 859/372/293 860/370/293 817/371/293
f 817/371/293 818/373/293 859/372/293
f 858/374/293 859/372/293 818/373/293
f 818/373/293 819/375/293 858/374/293
f 869/351/306 806/350/306 807/376/306
f 868/377/307 869/351/307 807/376/307
f 807/376/308 808/378/308 868/377/308
f 867/379/309 868/377/309 808/378/309
f 808/378/293 809/356/293 867/379/293
f 809/356/293 866/358/293 867/379/293
f 858/374/293 819/375/293 857/380/293
f 819/375/293 820/381/293 857/380/293
f 856/382/310 857/380/310 820/381/310
f 820/381/311 821/383/311 856/382/311
f 855/353/312 856/382/312 821/383/312
f 822/354/313 855/353/313 821/383/313
f 803/346/299 873/347/299 802/323/299
f 874/324/299 802/323/299 873/347/299
f 850/337/299 826/336/299 849/326/299
f 827/327/299 849/326/299 826/336/299
f 888/598/299 889/599/299 887/600/299
f 889/599/299 979/283/299 887/600/299
f 886/284/299 887/600/299 979/283/299
f 892/601/314 978/602/314 891/603/314
f 890/604/315 891/603/315 978/602/315
f 979/283/299 889/599/299 890/604/299
f 890/604/299 978/602/299 979/283/299
f 886/284/299 979/283/299 953/605/299
f 894/606/299 977/607/299 893/608/299
f 894/606/299 895/609/299 976/610/299
f 977/607/299 894/606/299 976/610/299
f 956/611/299 951/612/299 955/613/299
f 952/614/299 955/613/299 951/612/299
f 893/608/299 977/607/299 892/601/299
f 978/602/316 892/601/316 977/607/316
f 955/613/299 952/614/299 954/615/299
f 953/605/299 954/615/299 952/614/299
f 886/284/299 953/605/299 952/614/299
f 973/616/299 974/617/299 928/618/299
f 958/619/299 959/620/299 948/413/299
f 949/621/299 958/619/299 948/413/299
f 897/622/299 928/618/299 896/623/299
f 895/609/299 896/623/299 928/618/299
f 976/610/299 895/609/299 928/618/299
f 975/624/299 976/610/299 928/618/299
f 928/618/299 974/617/299 975/624/299
f 958/619/299 949/621/299 957/625/299
f 949/621/299 950/626/299 957/625/299
f 956/611/299 957/625/299 950/626/299
f 951/612/299 956/611/299 950/626/299
f 921/627/299 922/628/299 901/629/299
f 904/630/299 905/631/299 903/632/299
f 905/631/299 906/633/299 903/632/299
f 906/633/299 907/634/299 903/632/299
f 907/634/299 908/635/299 903/632/299
f 908/635/299 909/636/299 903/632/299
f 909/636/299 910/637/299 903/632/299
f 910/637/299 911/638/299 903/632/299
f 911/638/299 912/639/299 903/632/299
f 912/639/299 913/640/299 903/632/299
f 913/640/314 914/641/314 903/632/314
f 914/641/299 915/642/299 903/632/299
f 903/632/299 915/642/299 902/643/299
f 915/642/299 916/644/299 902/643/299
f 916/644/299 917/464/299 902/643/299
f 917/464/299 918/645/299 902/643/299
f 918/645/299 919/646/299 902/643/299
f 919/646/299 920/647/299 902/643/299
f 901/629/299 902/643/299 920/647/299
f 921/627/299 901/629/299 920/647/299
f 940/648/299 941/649/299 966/650/299
f 901/629/299 922/628/299 900/651/299
f 922/628/299 923/652/299 900/651/299
f 923/652/299 924/653/299 900/651/299
f 899/654/299 900/651/299 924/653/299
f 924/653/299 925/655/299 899/654/299
f 925/655/299 926/656/299 899/654/299
f 898/657/299 899/654/299 926/656/299
f 926/656/299 927/658/299 898/657/299
f 897/622/299 898/657/299 927/658/299
f 928/618/299 897/622/299 927/658/299
f 973/616/314 928/618/314 929/659/314
f 929/659/299 930/660/299 973/616/299
f 972/661/299 973/616/299 930/660/299
f 930/660/299 931/662/299 972/661/299
f 931/662/299 932/663/299 972/661/299
f 971/664/299 972/661/299 932/663/299
f 932/663/299 933/665/299 971/664/299
f 970/666/299 971/664/299 933/665/299
f 933/665/299 934/667/299 970/666/299
f 934/667/299 935/668/299 970/666/299
f 969/669/299 970/666/299 935/668/299
f 935/668/299 936/670/299 969/669/299
f 936/670/299 937/671/299 969/669/299
f 968/672/299 969/669/299 937/671/299
f 937/671/299 938/673/299 968/672/299
f 967/674/299 968/672/299 938/673/299
f 938/673/299 939/675/299 967/674/299
f 939/675/299 940/648/299 967/674/299
f 940/648/299 966/650/299 967/674/299
f 966/650/299 941/649/299 965/676/299
f 941/649/299 942/677/299 965/676/299
f 964/678/299 965/676/299 942/677/299
f 942/677/299 943/679/299 964/678/299
f 963/680/299 964/678/299 943/679/299
f 943/679/299 944/681/299 963/680/299
f 962/682/299 963/680/299 944/681/299
f 944/681/299 945/683/299 962/682/299
f 961/684/299 962/682/299 945/683/299
f 945/683/299 946/685/299 961/684/299
f 960/686/299 961/684/299 946/685/299
f 946/685/299 947/687/299 960/686/299
f 959/620/299 960/686/299 947/687/299
f 948/413/299 959/620/299 947/687/299
